<svg width="83" height="104" viewBox="0 0 83 104" fill="none" xmlns="http://www.w3.org/2000/svg">
<path d="M59.1815 39.3757C58.7138 44.4029 56.5258 49.1148 52.987 52.716C49.4482 56.3173 44.7753 58.5872 39.757 59.1427C34.7387 59.6982 29.6824 58.5052 25.4417 55.7651C21.2009 53.0251 18.0354 48.9058 16.4796 44.1025C14.9237 39.2993 15.0727 34.1063 16.9015 29.4002C18.7302 24.6941 22.1267 20.7631 26.5176 18.2707C30.9085 15.7784 36.0249 14.8773 41.0031 15.7197C45.9812 16.562 50.5163 19.0962 53.8428 22.8944" stroke="black" stroke-width="9.03075"/>
<path d="M42.7012 37.9565H76.8621" stroke="black" stroke-width="8.09653"/>
<path d="M60.0977 41.1196L60.0977 71.0148" stroke="black" stroke-width="7.97219"/>
<circle cx="70.3776" cy="19.7687" r="7.11683" fill="black"/>
<path d="M14.8477 89.4102C14.4473 88.082 13.3828 87.2715 11.8398 87.2617C9.65234 87.2715 8.16797 88.9414 8.16797 91.9102C8.16797 94.8984 9.60352 96.5879 11.8594 96.5977C13.8809 96.5879 15.082 95.4453 15.1211 93.668H12.0547V91.4609H17.9531V93.2188C17.9531 96.9297 15.4043 99.1953 11.8398 99.1953C7.875 99.1953 5.17969 96.4219 5.17969 91.9492C5.17969 87.3594 8.05078 84.6641 11.7812 84.6641C14.9746 84.6641 17.4258 86.627 17.8164 89.4102H14.8477ZM22.0156 99H18.8516L23.7539 84.8594H27.5234L32.4062 99H29.2617L28.1973 95.7383H23.0801L22.0156 99ZM23.8223 93.4531H27.4551L25.6875 88.043H25.5898L23.8223 93.4531ZM31.7227 87.2812V84.8594H43.3047V87.2812H38.9688V99H36.0586V87.2812H31.7227ZM45.1211 99V84.8594H48.0508V90.7188H54.1836V84.8594H57.1328V99H54.1836V93.1406H48.0508V99H45.1211ZM59.5156 99V84.8594H69.0078V87.2812H62.4453V90.7188H68.5195V93.1406H62.4453V96.5781H69.0273V99H59.5156ZM71.293 99V84.8594H76.8398C80.0527 84.8594 81.8984 86.666 81.8984 89.4688C81.8984 91.4023 81.0098 92.8086 79.3984 93.502L82.4062 99H79.1641L76.459 93.9805H74.2227V99H71.293ZM74.2227 91.5977H76.293C78.0312 91.5977 78.8809 90.8848 78.8711 89.4688C78.8809 88.043 78.0312 87.2715 76.293 87.2617H74.2227V91.5977Z" fill="black"/>
</svg>
