<svg width="24" height="24" viewBox="0 0 24 24" fill="none" xmlns="http://www.w3.org/2000/svg">
<path d="M3.75 19.2226V24L5.64375 22.8469L11.5963 19.2226H17.5C18.8787 19.2226 20 18.0847 20 16.6855V6.53711C20 5.13789 18.8787 4 17.5 4H2.5C1.12125 4 0 5.13789 0 6.53711V16.6855C0 18.0847 1.12125 19.2226 2.5 19.2226H3.75ZM2.5 6.53711H17.5V16.6855H10.9037L6.25 19.5195V16.6855H2.5V6.53711Z" fill="#D4D4D4"/>
<path d="M21.5 0H6.5C5.12125 0 4 1.0465 4 2.33333H19C20.3787 2.33333 21.5 3.37983 21.5 4.66667V14C22.8787 14 24 12.9535 24 11.6667V2.33333C24 1.0465 22.8787 0 21.5 0Z" fill="#D4D4D4"/>
</svg>
