<svg width="28" height="25" viewBox="0 0 28 25" fill="none" xmlns="http://www.w3.org/2000/svg">
<path d="M5.6 25C5.20333 25 4.87107 24.8666 4.6032 24.6C4.33533 24.3333 4.20093 24.0037 4.2 23.6111C4.19907 23.2185 4.33347 22.8889 4.6032 22.6222C4.87293 22.3555 5.2052 22.2222 5.6 22.2222H22.4C22.7967 22.2222 23.1294 22.3555 23.3982 22.6222C23.667 22.8889 23.8009 23.2185 23.8 23.6111C23.7991 24.0037 23.6647 24.3338 23.3968 24.6014C23.1289 24.869 22.7967 25.0018 22.4 25H5.6ZM6.58 20.1389C5.90333 20.1389 5.30273 19.919 4.7782 19.4792C4.25367 19.0393 3.9326 18.4838 3.815 17.8125L2.415 8.99305C2.36833 8.99305 2.31607 8.99907 2.2582 9.01111C2.20034 9.02314 2.1476 9.0287 2.1 9.02777C1.51667 9.02777 1.02107 8.82546 0.613203 8.42083C0.205336 8.0162 0.000936515 7.52407 3.18182e-06 6.94444C-0.000930151 6.36481 0.20347 5.87315 0.613203 5.46944C1.02294 5.06574 1.51854 4.86296 2.1 4.86111C2.68147 4.85926 3.17754 5.06204 3.5882 5.46944C3.99887 5.87685 4.2028 6.36852 4.2 6.94444C4.2 7.10648 4.18227 7.25694 4.1468 7.39583C4.11133 7.53472 4.07073 7.66203 4.025 7.77777L8.4 9.72222L12.775 3.78472C12.5183 3.59954 12.3083 3.35648 12.145 3.05556C11.9817 2.75463 11.9 2.43056 11.9 2.08333C11.9 1.50463 12.1044 1.0125 12.5132 0.606947C12.922 0.201392 13.4176 -0.000922761 14 3.16375e-06C14.5824 0.000929089 15.0785 0.203707 15.4882 0.608336C15.8979 1.01297 16.1019 1.50463 16.1 2.08333C16.1 2.43056 16.0183 2.75463 15.855 3.05556C15.6917 3.35648 15.4817 3.59954 15.225 3.78472L19.6 9.72222L23.975 7.77777C23.9283 7.66203 23.8873 7.53472 23.8518 7.39583C23.8163 7.25694 23.7991 7.10648 23.8 6.94444C23.8 6.36574 24.0044 5.87361 24.4132 5.46805C24.822 5.0625 25.3176 4.86018 25.9 4.86111C26.4824 4.86204 26.9785 5.06481 27.3882 5.46944C27.7979 5.87407 28.0019 6.36574 28 6.94444C27.9981 7.52315 27.7942 8.01527 27.3882 8.42083C26.9822 8.82638 26.4861 9.0287 25.9 9.02777C25.8533 9.02777 25.8011 9.02222 25.7432 9.01111C25.6853 9 25.6326 8.99398 25.585 8.99305L24.185 17.8125C24.0683 18.4838 23.7477 19.0393 23.2232 19.4792C22.6987 19.919 22.0976 20.1389 21.42 20.1389H6.58ZM6.58 17.3611H21.42L22.33 11.5625L20.72 12.2569C20.1133 12.5116 19.495 12.5579 18.865 12.3958C18.235 12.2338 17.7217 11.8866 17.325 11.3542L14 6.80555L10.675 11.3542C10.2783 11.8866 9.765 12.2338 9.135 12.3958C8.505 12.5579 7.88666 12.5116 7.28 12.2569L5.67 11.5625L6.58 17.3611Z" fill="black"/>
</svg>
