<svg width="35" height="27" viewBox="0 0 35 27" fill="none" xmlns="http://www.w3.org/2000/svg">
<path d="M6.17647 6.5C6.17647 5.30653 6.66452 4.16193 7.53326 3.31802C8.40199 2.47411 9.58025 2 10.8088 2C12.0374 2 13.2157 2.47411 14.0844 3.31802C14.9531 4.16193 15.4412 5.30653 15.4412 6.5C15.4412 7.69347 14.9531 8.83807 14.0844 9.68198C13.2157 10.5259 12.0374 11 10.8088 11C9.58025 11 8.40199 10.5259 7.53326 9.68198C6.66452 8.83807 6.17647 7.69347 6.17647 6.5ZM10.8088 0C9.03421 0 7.33229 0.684819 6.07745 1.90381C4.82261 3.12279 4.11765 4.77609 4.11765 6.5C4.11765 8.22391 4.82261 9.87721 6.07745 11.0962C7.33229 12.3152 9.03421 13 10.8088 13C12.5834 13 14.2854 12.3152 15.5402 11.0962C16.795 9.87721 17.5 8.22391 17.5 6.5C17.5 4.77609 16.795 3.12279 15.5402 1.90381C14.2854 0.684819 12.5834 0 10.8088 0ZM22.5174 23.29C23.625 23.73 25.0188 24 26.7647 24C30.6374 24 32.7785 22.664 33.9068 21.132C34.4967 20.3287 34.8659 19.3925 34.9794 18.412C34.9895 18.3209 34.9964 18.2295 35 18.138V18C35 17.606 34.9201 17.2159 34.7649 16.8519C34.6097 16.488 34.3822 16.1573 34.0955 15.8787C33.8087 15.6001 33.4683 15.3791 33.0936 15.2284C32.7189 15.0776 32.3173 15 31.9118 15H22.3794C22.8735 15.58 23.2441 16.258 23.4603 17H31.9118C32.1848 17 32.4466 17.1054 32.6397 17.2929C32.8327 17.4804 32.9412 17.7348 32.9412 18V18.108L32.9309 18.208C32.8536 18.8425 32.6128 19.4478 32.2309 19.968C31.5576 20.886 30.0959 22 26.7647 22C25.2576 22 24.1335 21.772 23.2915 21.438C23.1226 21.998 22.8776 22.63 22.5174 23.29ZM0 19C0 17.9391 0.433822 16.9217 1.20603 16.1716C1.97824 15.4214 3.02558 15 4.11765 15H17.5C18.5921 15 19.6394 15.4214 20.4116 16.1716C21.1838 16.9217 21.6176 17.9391 21.6176 19V19.168L21.6135 19.248L21.5929 19.518C21.447 20.8141 20.9731 22.055 20.2135 23.13C18.7703 25.16 15.9826 27 10.8088 27C5.635 27 2.84735 25.16 1.40412 23.132C0.644203 22.0564 0.170294 20.8148 0.0247058 19.518C0.0129604 19.4016 0.0047217 19.2849 0 19.168V19ZM2.05882 19.12V19.156L2.07324 19.322C2.18496 20.2807 2.537 21.1982 3.09853 21.994C4.10118 23.402 6.20324 25 10.8088 25C15.4144 25 17.5165 23.402 18.5191 21.994C19.0806 21.1982 19.4327 20.2807 19.5444 19.322C19.5526 19.246 19.5568 19.1907 19.5568 19.156L19.5588 19.122V19C19.5588 18.4696 19.3419 17.9609 18.9558 17.5858C18.5697 17.2107 18.046 17 17.5 17H4.11765C3.57161 17 3.04794 17.2107 2.66184 17.5858C2.27573 17.9609 2.05882 18.4696 2.05882 19V19.12ZM23.6765 8C23.6765 7.20435 24.0018 6.44129 24.581 5.87868C25.1602 5.31607 25.9457 5 26.7647 5C27.5838 5 28.3693 5.31607 28.9484 5.87868C29.5276 6.44129 29.8529 7.20435 29.8529 8C29.8529 8.79565 29.5276 9.55871 28.9484 10.1213C28.3693 10.6839 27.5838 11 26.7647 11C25.9457 11 25.1602 10.6839 24.581 10.1213C24.0018 9.55871 23.6765 8.79565 23.6765 8ZM26.7647 3C25.3996 3 24.0904 3.52678 23.1252 4.46447C22.1599 5.40215 21.6176 6.67392 21.6176 8C21.6176 9.32608 22.1599 10.5979 23.1252 11.5355C24.0904 12.4732 25.3996 13 26.7647 13C28.1298 13 29.439 12.4732 30.4042 11.5355C31.3695 10.5979 31.9118 9.32608 31.9118 8C31.9118 6.67392 31.3695 5.40215 30.4042 4.46447C29.439 3.52678 28.1298 3 26.7647 3Z" fill="#DFDFDF"/>
</svg>
