<svg width="13" height="14" viewBox="0 0 13 14" fill="none" xmlns="http://www.w3.org/2000/svg">
<path d="M8.12477 6.87662V12.8975C8.15727 13.1267 8.07603 13.3712 7.88918 13.5317C7.81402 13.6025 7.72475 13.6587 7.62648 13.697C7.5282 13.7354 7.42285 13.7551 7.31645 13.7551C7.21005 13.7551 7.1047 13.7354 7.00642 13.697C6.90814 13.6587 6.81887 13.6025 6.74372 13.5317L5.11082 11.9959C5.02226 11.9144 4.95493 11.8147 4.91406 11.7047C4.8732 11.5947 4.8599 11.4773 4.87522 11.3617V6.87662H4.85085L0.171501 1.23779C0.0395761 1.07851 -0.0199511 0.876584 0.00592682 0.676147C0.0318047 0.47571 0.140984 0.293056 0.309607 0.168095C0.463961 0.0611255 0.634562 0 0.813287 0H12.1867C12.3654 0 12.536 0.0611255 12.6904 0.168095C12.859 0.293056 12.9682 0.47571 12.9941 0.676147C13.0199 0.876584 12.9604 1.07851 12.8285 1.23779L8.14915 6.87662H8.12477Z" fill="#BCBCBC"/>
</svg>
