<svg width="17" height="17" viewBox="0 0 17 17" fill="none" xmlns="http://www.w3.org/2000/svg">
<path d="M7.55555 12.2778H0V15.1111C0 15.6306 0.185111 16.0754 0.555333 16.4456C0.925555 16.8158 1.37007 17.0006 1.88889 17H7.55555V12.2778ZM9.44444 12.2778V17H15.1111C15.6306 17 16.0754 16.8152 16.4456 16.4456C16.8158 16.076 17.0006 15.6312 17 15.1111V12.2778H9.44444ZM7.55555 10.3889V5.66667H0V10.3889H7.55555ZM9.44444 10.3889H17V5.66667H9.44444V10.3889ZM0 3.77778H17V1.88889C17 1.36944 16.8152 0.924926 16.4456 0.555333C16.076 0.185741 15.6312 0.00062963 15.1111 0H1.88889C1.36944 0 0.924926 0.185111 0.555333 0.555333C0.185741 0.925555 0.00062963 1.37007 0 1.88889V3.77778Z" fill="#D4D4D4"/>
</svg>
