<svg width="23" height="19" viewBox="0 0 23 19" fill="none" xmlns="http://www.w3.org/2000/svg">
<path d="M11.5018 4.44468C11.5018 5.62348 11.0357 6.754 10.2061 7.58754C9.37646 8.42108 8.25127 8.88935 7.07801 8.88935C5.90476 8.88935 4.77956 8.42108 3.94994 7.58754C3.12033 6.754 2.65425 5.62348 2.65425 4.44468C2.65425 3.26587 3.12033 2.13535 3.94994 1.30182C4.77956 0.468277 5.90476 0 7.07801 0C8.25127 0 9.37646 0.468277 10.2061 1.30182C11.0357 2.13535 11.5018 3.26587 11.5018 4.44468ZM17.695 8.88935C18.6336 8.88935 19.5338 8.51473 20.1975 7.8479C20.8612 7.18107 21.234 6.27665 21.234 5.33361C21.234 4.39057 20.8612 3.48615 20.1975 2.81932C19.5338 2.15249 18.6336 1.77787 17.695 1.77787C16.7564 1.77787 15.8563 2.15249 15.1926 2.81932C14.5289 3.48615 14.156 4.39057 14.156 5.33361C14.156 6.27665 14.5289 7.18107 15.1926 7.8479C15.8563 8.51473 16.7564 8.88935 17.695 8.88935ZM15.9255 13.5011V13.334C15.9255 12.3723 15.6151 11.4366 15.0408 10.6672H20.8324C22.0285 10.6672 23 11.6415 23 12.8451C23 12.8451 23 16.8898 17.6915 16.8898C16.6333 16.8898 15.7857 16.7298 15.108 16.472C15.5291 15.6931 15.7976 14.8403 15.899 13.9598C15.9096 13.8496 15.9167 13.7554 15.9202 13.6772L15.9255 13.5011ZM14.156 13.334C14.156 12.6267 13.8764 11.9484 13.3786 11.4483C12.8808 10.9482 12.2057 10.6672 11.5018 10.6672H2.65425C1.9503 10.6672 1.27518 10.9482 0.777413 11.4483C0.279644 11.9484 0 12.6267 0 13.334V13.4674C0 13.4674 0 18.6676 7.07801 18.6676C13.8234 18.6676 14.1401 13.9456 14.156 13.5011V13.334Z" fill="#6F2626"/>
</svg>
