<svg width="70" height="123" viewBox="0 0 70 123" fill="none" xmlns="http://www.w3.org/2000/svg">
<path d="M23.4188 60.4136C5.81876 58.7617 -2.24735 45.7658 10.7401 40.6452C2.05769 28.8305 7.37239 5.0882 24.7919 15.6535C27.5297 9.04221 36.4775 0.986251 48.4506 4.8203C56.0834 7.26447 63.7956 16.8734 57.3103 31.9865C64.4506 36.3753 73.8899 53.2876 45.3937 60.4136" stroke="#6F2626" stroke-width="6.92699" stroke-linecap="round" stroke-linejoin="round"/>
<path fill-rule="evenodd" clip-rule="evenodd" d="M31.7025 34.9722C30.6854 33.3522 28.5476 32.8634 26.9276 33.8805C25.3076 34.8976 24.8188 37.0354 25.8359 38.6555C27.8068 41.7945 30.2282 47.7684 30.7446 55.0253C30.8125 57.6889 30.4875 61.0983 29.1714 65.6525L24.202 78.1331C23.2964 80.4074 24.9718 82.8778 27.4198 82.8778H41.2015C43.6495 82.8778 45.3249 80.4074 44.4193 78.1331L40.3332 67.8709C37.6046 59.466 38.5085 53.1879 40.1884 49.7884C40.2085 49.7595 40.2288 49.7307 40.2491 49.7018C41.6968 47.6496 43.6107 45.8379 45.9981 44.8735C47.7717 44.1571 48.6288 42.1386 47.9123 40.365C47.1959 38.5914 45.1774 37.7343 43.4038 38.4507C41.2865 39.3059 39.482 40.5199 37.9628 41.8849C36.1923 42.9076 35.4583 42.1662 34.709 41.163C33.7514 38.6441 32.6878 36.5415 31.7025 34.9722Z" fill="black"/>
<circle cx="7.709" cy="78.1694" r="4.709" fill="#6F2626"/>
<path d="M30.9673 101.576C30.9673 103.416 30.9273 105.024 30.8473 106.4C30.7673 107.776 30.5753 109.376 30.2713 111.2L27.4393 110.936C27.7433 109.224 27.9353 107.696 28.0153 106.352C28.0953 104.992 28.1353 103.4 28.1353 101.576V101.456H17.2393V99.176H30.9673V101.576ZM33.1273 114.752H15.3913V112.4H33.1273V114.752ZM49.604 103.952H38.78V105.584H50.06V107.864H35.948V101.816H46.7V100.256H35.876V97.952H49.604V103.952ZM51.644 111.632H44.132V117.392H41.276V111.632H33.836V109.328H51.644V111.632Z" fill="black" fill-opacity="0.8"/>
</svg>
