<svg width="49" height="48" viewBox="0 0 49 48" fill="none" xmlns="http://www.w3.org/2000/svg">
<path d="M37.376 24.8933C37.0812 28.0618 35.7022 31.0315 33.4719 33.3012C31.2415 35.5708 28.2964 37.0015 25.1335 37.3516C21.9707 37.7017 18.784 36.9498 16.1112 35.2229C13.4385 33.4959 11.4434 30.8997 10.4628 27.8724C9.48221 24.8452 9.57613 21.5723 10.7287 18.6062C11.8813 15.6401 14.022 13.1626 16.7894 11.5918C19.5568 10.021 22.7814 9.45306 25.9189 9.98396C29.0564 10.5149 31.9147 12.112 34.0112 14.5059" stroke="black" stroke-width="5.8"/>
<path d="M27 24H48.6001" stroke="black" stroke-width="5.2"/>
<path d="M38 26L38 44.9028" stroke="black" stroke-width="5.12014"/>
<circle cx="44.5" cy="12.5" r="4.5" fill="black"/>
</svg>
