<svg width="38" height="44" viewBox="0 0 38 44" fill="none" xmlns="http://www.w3.org/2000/svg">
<path d="M12.8403 32.0735C3.49647 31.1965 -0.785816 24.297 6.10921 21.5785C1.49972 15.3061 4.32129 2.70132 13.5693 8.31042C15.0228 4.80049 19.7731 0.523599 26.1297 2.55909C30.1819 3.85669 34.2763 8.95805 30.8332 16.9816C34.624 19.3116 39.6353 28.2903 24.5067 32.0735" stroke="#6F2626" stroke-width="3.67753" stroke-linecap="round" stroke-linejoin="round"/>
<path fill-rule="evenodd" clip-rule="evenodd" d="M17.2376 18.5664C16.6976 17.7063 15.5627 17.4468 14.7026 17.9868C13.8426 18.5268 13.5831 19.6618 14.1231 20.5218C15.1694 22.1884 16.4551 25.3603 16.7291 29.2133C16.7651 30.6274 16.5925 32.4374 15.8937 34.8552L13.2558 41.4803C12.775 42.6877 13.6645 43.9993 14.9641 43.9993H22.2808C23.5804 43.9993 24.4699 42.6877 23.9891 41.4803L21.8182 36.0281C20.3714 31.5684 20.8511 28.2372 21.7425 26.4328L21.7752 26.3862C22.5438 25.2966 23.5599 24.3348 24.8273 23.8229C25.7689 23.4425 26.2239 22.3709 25.8436 21.4293C25.4633 20.4877 24.3916 20.0327 23.45 20.413C22.3258 20.8671 21.3677 21.5117 20.5611 22.2365C19.621 22.7794 19.2314 22.3853 18.8335 21.8524C18.3252 20.5155 17.7606 19.3994 17.2376 18.5664Z" fill="black"/>
<circle cx="4.5" cy="41.5" r="2.5" fill="#6F2626"/>
</svg>
