<svg width="21" height="24" viewBox="0 0 21 24" fill="none" xmlns="http://www.w3.org/2000/svg">
<path d="M14.0625 18.43V19.6308C14.0625 20.5862 13.6872 21.5026 13.0191 22.1782C12.351 22.8538 11.4448 23.2333 10.5 23.2333C9.55517 23.2333 8.64903 22.8538 7.98093 22.1782C7.31283 21.5026 6.9375 20.5862 6.9375 19.6308V18.43M14.0625 18.43H6.9375M14.0625 18.43H18.3256C18.7804 18.43 19.0084 18.43 19.1925 18.3675C19.3656 18.3082 19.5229 18.2093 19.652 18.0785C19.7812 17.9477 19.8787 17.7886 19.9371 17.6134C20 17.4261 20 17.1955 20 16.732C20 16.529 20 16.4282 19.9834 16.3309C19.9541 16.1491 19.8838 15.9765 19.7779 15.8265C19.7209 15.7461 19.6497 15.674 19.5084 15.5311L19.0452 15.0628C18.9714 14.988 18.9128 14.8993 18.8729 14.8016C18.8329 14.7039 18.8124 14.5993 18.8125 14.4936V10.0241C18.8125 8.92018 18.5975 7.82711 18.1797 6.80726C17.762 5.78741 17.1497 4.86075 16.3778 4.08019C15.6059 3.29963 14.6896 2.68046 13.6811 2.25802C12.6725 1.83559 11.5916 1.61816 10.5 1.61816C9.40839 1.61816 8.32746 1.83559 7.31894 2.25802C6.31042 2.68046 5.39406 3.29963 4.62217 4.08019C3.85029 4.86075 3.23799 5.78741 2.82025 6.80726C2.40251 7.82711 2.1875 8.92018 2.1875 10.0241V14.4936C2.18757 14.5993 2.16706 14.7039 2.12712 14.8016C2.08719 14.8993 2.02861 14.988 1.95475 15.0628L1.49163 15.5311C1.34913 15.6752 1.27906 15.7461 1.22325 15.8253C1.11641 15.9754 1.04529 16.1484 1.01544 16.3309C1 16.427 1 16.529 1 16.732C1 17.1955 1 17.4261 1.06175 17.6134C1.12033 17.7888 1.21824 17.9482 1.34781 18.079C1.47738 18.2098 1.63512 18.3086 1.80869 18.3675C1.99275 18.43 2.21956 18.43 2.67437 18.43H6.9375" stroke="black" stroke-width="1.5" stroke-linecap="round" stroke-linejoin="round"/>
<circle cx="17.5" cy="3.5" r="3.5" fill="#FF4040"/>
</svg>
