<svg width="37" height="49" viewBox="0 0 37 49" fill="none" xmlns="http://www.w3.org/2000/svg">
<path fill-rule="evenodd" clip-rule="evenodd" d="M16.1875 0V7.11633C13.2487 7.40747 10.3935 8.26949 7.77925 9.65487L4.625 7.002V0.00233333L16.1875 0Z" fill="#FF3030"/>
<path d="M20.8125 0L32.375 0.00233333V7.002L29.2231 9.65721C26.6081 8.27153 23.7521 7.40951 20.8125 7.11866V0Z" fill="#3067FF"/>
<path fill-rule="evenodd" clip-rule="evenodd" d="M18.5 11.6684C23.4065 11.6684 28.1121 13.635 31.5815 17.1355C35.0509 20.636 37 25.3838 37 30.3342C37 35.2847 35.0509 40.0324 31.5815 43.5329C28.1121 47.0334 23.4065 49 18.5 49C13.5935 49 8.88795 47.0334 5.41852 43.5329C1.9491 40.0324 0 35.2847 0 30.3342C0 25.3838 1.9491 20.636 5.41852 17.1355C8.88795 13.635 13.5935 11.6684 18.5 11.6684ZM15.4429 26.0878L18.5 19.8347L21.5571 26.0854L28.3975 27.0887L23.4488 31.9558L24.6166 38.8272L18.5 35.584L12.3834 38.8295L13.5512 31.9558L8.6025 27.091L15.4429 26.0878Z" fill="#FFA930"/>
<rect x="8" y="18" width="22" height="23" fill="#FFA930"/>
<path d="M21.6484 22.0312V39H18.1094V25.3828H18.0156L14.125 27.8203V24.7031L18.3203 22.0312H21.6484Z" fill="white"/>
</svg>
