<svg width="37" height="49" viewBox="0 0 37 49" fill="none" xmlns="http://www.w3.org/2000/svg">
<path fill-rule="evenodd" clip-rule="evenodd" d="M16.1875 0V7.11633C13.2487 7.40747 10.3935 8.26949 7.77925 9.65487L4.625 7.002V0.00233333L16.1875 0Z" fill="#FF3030"/>
<path d="M20.8125 0L32.375 0.00233333V7.002L29.2231 9.65721C26.6081 8.27153 23.7521 7.40951 20.8125 7.11866V0Z" fill="#3067FF"/>
<path fill-rule="evenodd" clip-rule="evenodd" d="M18.5 11.6684C23.4065 11.6684 28.1121 13.635 31.5815 17.1355C35.0509 20.636 37 25.3838 37 30.3342C37 35.2847 35.0509 40.0324 31.5815 43.5329C28.1121 47.0334 23.4065 49 18.5 49C13.5935 49 8.88795 47.0334 5.41852 43.5329C1.9491 40.0324 0 35.2847 0 30.3342C0 25.3838 1.9491 20.636 5.41852 17.1355C8.88795 13.635 13.5935 11.6684 18.5 11.6684ZM15.4429 26.0878L18.5 19.8347L21.5571 26.0854L28.3975 27.0887L23.4488 31.9558L24.6166 38.8272L18.5 35.584L12.3834 38.8295L13.5512 31.9558L8.6025 27.091L15.4429 26.0878Z" fill="#DFDFDF"/>
<rect x="8" y="18" width="21" height="23" fill="#DFDFDF"/>
<path d="M12.3359 39L12.3125 36.4453L18.4062 30.8438C19.9883 29.332 20.8438 28.3945 20.8438 27.0469C20.8438 25.5352 19.707 24.5977 18.1484 24.6094C16.5547 24.5977 15.5117 25.6055 15.5234 27.2344H12.1719C12.1602 23.918 14.6211 21.7969 18.1953 21.7969C21.8281 21.7969 24.2422 23.8711 24.2422 26.8125C24.2422 28.7461 23.3047 30.3281 19.8125 33.4922L17.2344 36V36.0938H24.4766V39H12.3359Z" fill="white"/>
</svg>
