<svg width="37" height="49" viewBox="0 0 37 49" fill="none" xmlns="http://www.w3.org/2000/svg">
<path fill-rule="evenodd" clip-rule="evenodd" d="M16.1875 0V7.11633C13.2487 7.40747 10.3935 8.26949 7.77925 9.65487L4.625 7.002V0.00233333L16.1875 0Z" fill="#FF3030"/>
<path d="M20.8125 0L32.375 0.00233333V7.002L29.2231 9.65721C26.6081 8.27153 23.7521 7.40951 20.8125 7.11866V0Z" fill="#3067FF"/>
<path fill-rule="evenodd" clip-rule="evenodd" d="M18.5 11.6684C23.4065 11.6684 28.1121 13.635 31.5815 17.1355C35.0509 20.636 37 25.3838 37 30.3342C37 35.2847 35.0509 40.0324 31.5815 43.5329C28.1121 47.0334 23.4065 49 18.5 49C13.5935 49 8.88795 47.0334 5.41852 43.5329C1.9491 40.0324 0 35.2847 0 30.3342C0 25.3838 1.9491 20.636 5.41852 17.1355C8.88795 13.635 13.5935 11.6684 18.5 11.6684ZM15.4429 26.0878L18.5 19.8347L21.5571 26.0854L28.3975 27.0887L23.4488 31.9558L24.6166 38.8272L18.5 35.584L12.3834 38.8295L13.5512 31.9558L8.6025 27.091L15.4429 26.0878Z" fill="#B07200"/>
<rect x="8" y="18" width="21" height="23" fill="#B07200"/>
<path d="M18.6172 39.2344C14.8906 39.2344 12.2188 37.1836 12.1484 34.2188H15.7109C15.7695 35.4844 17 36.3164 18.6406 36.3281C20.3281 36.3164 21.5352 35.3789 21.5234 34.0078C21.5352 32.625 20.3047 31.6523 18.3125 31.6406H16.7422V29.0391H18.3125C19.9883 29.0391 21.1602 28.125 21.1484 26.7891C21.1602 25.4883 20.1641 24.5977 18.6641 24.6094C17.1641 24.5977 15.9336 25.4414 15.875 26.7422H12.5C12.5586 23.8242 15.1836 21.7969 18.6641 21.7969C22.2031 21.7969 24.5586 23.8945 24.5469 26.5781C24.5586 28.4766 23.2344 29.8242 21.3359 30.1641V30.3047C23.832 30.6094 25.2031 32.1211 25.1797 34.2422C25.2031 37.1484 22.4492 39.2344 18.6172 39.2344Z" fill="white"/>
</svg>
