<svg width="13" height="15" viewBox="0 0 13 15" fill="none" xmlns="http://www.w3.org/2000/svg">
<path d="M5.2 15V11.45C4.79267 11.5917 4.35933 11.6667 3.9 11.6667C1.73333 11.6667 0 10 0 7.91667C0 6.85833 0.433333 5.90833 1.17867 5.225C0.979333 4.775 0.866667 4.275 0.866667 3.75C0.866667 1.66667 2.6 0 4.76667 0C6.11867 0 7.31467 0.666667 8.01667 1.66667H8.23333C8.8593 1.66667 9.47914 1.78522 10.0575 2.01555C10.6358 2.24589 11.1613 2.58349 11.6039 3.00909C12.0465 3.4347 12.3976 3.93996 12.6372 4.49603C12.8767 5.05211 13 5.64811 13 6.25C13 6.85189 12.8767 7.44789 12.6372 8.00397C12.3976 8.56004 12.0465 9.0653 11.6039 9.49091C11.1613 9.91651 10.6358 10.2541 10.0575 10.4844C9.47914 10.7148 8.8593 10.8333 8.23333 10.8333C7.8 10.8333 7.36667 10.775 6.93333 10.6583V15H5.2Z" fill="#6F2626"/>
</svg>
