<svg width="15" height="15" viewBox="0 0 15 15" fill="none" xmlns="http://www.w3.org/2000/svg">
<path d="M8.25 1.7916V0H6.75V1.7916L6.636 1.77223L6.42975 1.73497C6.18375 1.69099 5.90625 1.64106 5.63175 1.61125C4.86225 1.52853 4.0155 1.58889 3.01125 2.14337C1.0335 3.23368 0 5.29135 0 7.82523C0 11.0164 2.03925 14.0086 4.64025 14.859C5.421 15.1146 5.9805 14.9767 6.4455 14.8068C6.5185 14.78 6.5865 14.7544 6.6495 14.7301C6.9615 14.6116 7.17075 14.5326 7.5 14.5326C7.83 14.5326 8.03925 14.6116 8.35125 14.7301L8.5545 14.8061C9.0195 14.9753 9.57825 15.1131 10.3582 14.8597C12.9683 14.0101 15 11.0149 15 7.82523C15 5.29135 13.965 3.2307 11.9888 2.14262C10.9838 1.58964 10.1377 1.53002 9.369 1.612C9.09375 1.64181 8.81625 1.69174 8.57025 1.73571L8.25 1.7916ZM5.25 2.98104C5.25 2.98104 6.65625 3.45502 7.5 3.45502C8.34375 3.45502 9.75 2.98104 9.75 2.98104C9.75 2.98104 9.1935 4.47156 7.5 4.47156C5.8065 4.47156 5.25 2.98104 5.25 2.98104Z" fill="#6F2626"/>
</svg>
