<svg width="20" height="20" viewBox="0 0 20 20" fill="none" xmlns="http://www.w3.org/2000/svg">
<path d="M8.88889 14.4444H0V17.7778C0 18.3889 0.217778 18.9122 0.653333 19.3478C1.08889 19.7833 1.61185 20.0007 2.22222 20H8.88889V14.4444ZM11.1111 14.4444V20H17.7778C18.3889 20 18.9122 19.7826 19.3478 19.3478C19.7833 18.913 20.0007 18.3896 20 17.7778V14.4444H11.1111ZM8.88889 12.2222V6.66667H0V12.2222H8.88889ZM11.1111 12.2222H20V6.66667H11.1111V12.2222ZM0 4.44444H20V2.22222C20 1.61111 19.7826 1.08815 19.3478 0.653333C18.913 0.218519 18.3896 0.000740741 17.7778 0H2.22222C1.61111 0 1.08815 0.217778 0.653333 0.653333C0.218519 1.08889 0.000740741 1.61185 0 2.22222V4.44444Z" fill="#D4D4D4"/>
</svg>
