<svg width="213" height="269" viewBox="0 0 213 269" fill="none" xmlns="http://www.w3.org/2000/svg">
<ellipse cx="106.5" cy="240.5" rx="106.5" ry="28.5" fill="#17893D"/>
<path d="M0 241.045V231H6.5L7 244L0 241.045Z" fill="#17893D"/>
<path d="M213 240.737V230L209.571 231.263L209 242L213 240.737Z" fill="#17893D"/>
<ellipse cx="106.5" cy="230.5" rx="106.5" ry="26.5" fill="#5ECF84"/>
<path fill-rule="evenodd" clip-rule="evenodd" d="M41.6988 217.091L41.7041 217.098L41.7489 217.127L41.7581 217.137L41.7606 217.147L41.764 217.201C41.7661 217.208 41.77 217.212 41.7758 217.213L41.783 217.212L42.0383 217.074L42.0483 217.065L42.0524 217.054L42.0598 216.968L42.057 216.958L42.0506 216.953L41.9717 216.917L41.9582 216.916L41.9469 216.919L41.7038 217.076C41.6985 217.081 41.6969 217.086 41.6988 217.091ZM41.5422 216.976L41.5482 216.984L41.6657 217.059L41.6749 217.062L41.6824 217.06L41.9269 216.901L41.9322 216.894L41.9341 216.887L41.9187 216.738C41.9162 216.73 41.9114 216.725 41.904 216.724L41.8945 216.726L41.5482 216.957C41.542 216.963 41.54 216.97 41.5422 216.976ZM41.7891 217.393C41.789 217.396 41.7904 217.399 41.7927 217.402C41.7951 217.405 41.7984 217.406 41.8019 217.406L41.8121 217.405L42.1817 217.214C42.1885 217.209 42.1912 217.203 42.1899 217.196L42.1836 217.188L42.0603 217.102L42.0522 217.099L42.0447 217.101L41.7879 217.239L41.7819 217.244L41.7795 217.254L41.7891 217.393Z" fill="#C01700"/>
<path fill-rule="evenodd" clip-rule="evenodd" d="M30.0926 224.399C30.1459 224.489 30.2196 224.566 30.3077 224.623C30.7577 224.915 31.5386 225.139 32.3909 225.176C32.9599 225.202 33.5296 225.14 34.0798 224.992C34.0672 225.567 34.1486 226.135 34.2875 226.784C34.3076 226.878 34.3475 226.966 34.4044 227.043C34.4613 227.121 34.534 227.185 34.6176 227.232C34.7012 227.279 34.7939 227.307 34.8894 227.316C34.985 227.324 35.0812 227.312 35.1718 227.281C36.0093 226.989 36.8041 226.642 37.4573 226.085C37.8617 225.739 38.1967 225.32 38.4444 224.849C38.779 225.128 39.1482 225.364 39.543 225.549C39.6828 225.617 39.8414 225.634 39.9925 225.598C40.1435 225.563 40.2777 225.476 40.3725 225.353C40.6959 224.936 40.8985 224.241 40.8152 223.232C40.7396 222.322 40.4286 221.111 39.7097 219.513C39.7281 219.504 39.7463 219.495 39.7642 219.484L40.9302 218.797C41.0848 218.706 41.1969 218.557 41.2418 218.383C41.2867 218.209 41.2607 218.025 41.1696 217.87C41.0785 217.716 40.9296 217.604 40.7559 217.559C40.5821 217.514 40.3976 217.54 40.243 217.631L39.0769 218.318C39.0592 218.329 39.042 218.34 39.0253 218.352C37.9756 216.949 37.0672 216.09 36.3075 215.584C35.4647 215.021 34.7585 214.863 34.2367 214.942C34.0833 214.966 33.9427 215.042 33.8384 215.156C33.7341 215.271 33.6725 215.419 33.6639 215.574C33.6348 216.009 33.6619 216.446 33.7445 216.874C33.2125 216.861 32.6829 216.951 32.185 217.139C31.3809 217.439 30.6919 217.967 30.0311 218.558C29.9596 218.622 29.9026 218.701 29.8637 218.789C29.8249 218.876 29.8052 218.971 29.8059 219.067C29.8066 219.163 29.8276 219.258 29.8677 219.345C29.9078 219.432 29.9659 219.51 30.0383 219.573C30.5386 220.009 30.9957 220.355 31.5053 220.623C31.0794 221.058 30.7587 221.544 30.5258 222.011C30.1456 222.775 29.9629 223.566 30.0005 224.102C30.0078 224.207 30.0393 224.308 30.0926 224.399Z" fill="#C01700"/>
<path d="M113 227.454C92.7943 258.433 90.0654 238.907 91.2267 225.272L103.42 216L113 227.454Z" fill="#404046"/>
<path d="M133 227.476C133 250.158 123 236.927 118 227.476L126 216L133 227.476Z" fill="#404046"/>
<path d="M121.5 233C116.7 226.2 111.167 230.166 109 233L111 219.5L122.5 222L121.5 233Z" fill="#404046"/>
<path d="M91.5 234.5C92.3 228.9 87.5 230.167 85 231.5L89.5 224.5L96.5 225L91.5 234.5Z" fill="#404046"/>
<path d="M135.5 233C133.5 230.6 132.667 232.333 132.5 233.5L130 226.5L135.5 226V233Z" fill="#404046"/>
<circle cx="25" cy="208" r="1" fill="#CBFAFE"/>
<path d="M166 202C161.52 204.182 160.133 208 160 209.636L170 211C168.889 209.875 169.333 207.455 170 206.364C167.5 206.781 166.133 209.091 166 210.182C164.444 207.625 164.667 203.636 166 202Z" fill="#5ECF84"/>
<path d="M142 230C137.52 232.182 136.133 236 136 237.636L146 239C144.889 237.875 145.333 235.455 146 234.364C143.5 234.781 142.133 237.091 142 238.182C140.444 235.625 140.667 231.636 142 230Z" fill="#5ECF84"/>
<path d="M194.4 211C190.368 212.939 189.12 216.333 189 217.788L198 219C197 218 197.4 215.848 198 214.879C195.75 215.25 194.52 217.303 194.4 218.273C193 216 193.2 212.455 194.4 211Z" fill="#5ECF84"/>
<path d="M61 201.5C63.4 203.5 64.3333 206.333 64.5 207.5L61 208.5C61.8 204.9 61.3333 202.333 61 201.5Z" fill="#5ECF84"/>
<path d="M58 203C60.4 205 61.3333 207.833 61.5 209L58 210C58.8 206.4 58.3333 203.833 58 203Z" fill="#5ECF84"/>
<path d="M120.695 228.731C122.672 231.15 123.052 234.109 122.995 235.286L119.368 235.605C120.836 232.221 120.864 229.613 120.695 228.731Z" fill="#5ECF84"/>
<path d="M78 230C80.4 232 81.3333 234.833 81.5 236L78 237C78.8 233.4 78.3333 230.833 78 230Z" fill="#5ECF84"/>
<path d="M75 231.5C77.4 233.5 78.3333 236.333 78.5 237.5L75 238.5C75.8 234.9 75.3333 232.333 75 231.5Z" fill="#5ECF84"/>
<path d="M86 225C88.4 227 89.3333 229.833 89.5 231L86 232C86.8 228.4 86.3333 225.833 86 225Z" fill="#5ECF84"/>
<path d="M35 207C37.4 209 38.3333 211.833 38.5 213L35 214C35.8 210.4 35.3333 207.833 35 207Z" fill="#5ECF84"/>
<ellipse cx="106.5" cy="240.5" rx="106.5" ry="28.5" fill="#17893D"/>
<path d="M0 241.045V231H6.5L7 244L0 241.045Z" fill="#17893D"/>
<path d="M213 240.737V230L209.571 231.263L209 242L213 240.737Z" fill="#17893D"/>
<ellipse cx="106.5" cy="230.5" rx="106.5" ry="26.5" fill="#5ECF84"/>
<path d="M166 202C161.52 204.182 160.133 208 160 209.636L170 211C168.889 209.875 169.333 207.455 170 206.364C167.5 206.781 166.133 209.091 166 210.182C164.444 207.625 164.667 203.636 166 202Z" fill="#5ECF84"/>
<path d="M142 231C137.52 233.182 136.133 237 136 238.636L146 240C144.889 238.875 145.333 236.455 146 235.364C143.5 235.781 142.133 238.091 142 239.182C140.444 236.625 140.667 232.636 142 231Z" fill="#5ECF84"/>
<path d="M194.4 211C190.368 212.939 189.12 216.333 189 217.788L198 219C197 218 197.4 215.848 198 214.879C195.75 215.25 194.52 217.303 194.4 218.273C193 216 193.2 212.455 194.4 211Z" fill="#5ECF84"/>
<path d="M61 201.5C63.4 203.5 64.3333 206.333 64.5 207.5L61 208.5C61.8 204.9 61.3333 202.333 61 201.5Z" fill="#5ECF84"/>
<path d="M58 203C60.4 205 61.3333 207.833 61.5 209L58 210C58.8 206.4 58.3333 203.833 58 203Z" fill="#5ECF84"/>
<path d="M120.695 228.732C122.673 231.151 123.052 234.11 122.995 235.287L119.369 235.606C120.836 232.222 120.864 229.614 120.695 228.732Z" fill="#5ECF84"/>
<path d="M78 230C80.4 232 81.3333 234.833 81.5 236L78 237C78.8 233.4 78.3333 230.833 78 230Z" fill="#5ECF84"/>
<path d="M75 231.5C77.4 233.5 78.3333 236.333 78.5 237.5L75 238.5C75.8 234.9 75.3333 232.333 75 231.5Z" fill="#5ECF84"/>
<path d="M86 225C88.4 227 89.3333 229.833 89.5 231L86 232C86.8 228.4 86.3333 225.833 86 225Z" fill="#5ECF84"/>
<path d="M35 207C37.4 209 38.3333 211.833 38.5 213L35 214C35.8 210.4 35.3333 207.833 35 207Z" fill="#5ECF84"/>
<ellipse cx="65.5" cy="38.5" rx="39.5" ry="31.5" fill="#4DBE72"/>
<path fill-rule="evenodd" clip-rule="evenodd" d="M86.9999 219.501C90.6666 209.834 98.2999 183.801 99.4999 157.001C99.9999 144.501 98.1999 115.101 86.9999 97.5007C66.6666 63.334 38.1999 10.8007 86.9999 74.0007C92.8831 79.5496 99.7586 87.807 106.045 98.8375C109.639 88.9821 116.625 78.0641 128.115 65.1667C132.792 60.8981 140.29 55.2807 132.871 66.9595C126.199 74.261 115.83 90.3358 111.92 110.444C118.627 125.445 123.828 144.263 125 167C125 168.55 124.991 170.151 124.982 171.79C124.877 190.783 124.744 214.9 138 223L86.9999 219.501Z" fill="url(#paint0_linear_585_356)"/>
<path fill-rule="evenodd" clip-rule="evenodd" d="M75.7632 60.261L75.7455 60.2593L75.6319 60.2817L75.6021 60.2798L75.5838 60.2688L75.4972 60.191C75.4832 60.1832 75.4711 60.183 75.461 60.1903L75.4516 60.2029L75.265 60.8011L75.2645 60.8312L75.2736 60.8534L75.3924 60.9974L75.4121 61.0088L75.4306 61.0077L75.6056 60.9427L75.6286 60.9246L75.6407 60.9021L75.7789 60.2925C75.7792 60.2764 75.774 60.2659 75.7632 60.261ZM76.179 60.2017L76.1585 60.1992L75.8632 60.2606L75.8453 60.271L75.8369 60.2854L75.699 60.8996L75.7015 60.9185L75.7098 60.9328L75.9587 61.1391C75.9754 61.1487 75.99 61.1486 76.0027 61.1388L76.0137 61.1206L76.1989 60.2403C76.199 60.2212 76.1924 60.2083 76.179 60.2017ZM75.1683 59.9329C75.163 59.9274 75.1559 59.9242 75.1484 59.9239C75.1409 59.9235 75.1335 59.9261 75.1278 59.9311L75.114 59.9486L74.8328 60.803C74.8291 60.8202 74.8341 60.8337 74.8477 60.8434L74.8696 60.8462L75.1889 60.7912L75.206 60.7837L75.2145 60.7693L75.4032 60.1687L75.4036 60.1506L75.3932 60.1327L75.1683 59.9329Z" fill="#48B56D"/>
<path fill-rule="evenodd" clip-rule="evenodd" d="M82.6196 31.4187C82.4004 31.3598 82.1705 31.3527 81.9481 31.3979C80.812 31.6287 79.2679 32.4646 77.8959 33.6968C76.9786 34.5182 76.1932 35.476 75.5675 36.5364C74.7174 35.6307 73.7311 34.8762 72.5352 34.085C72.3622 33.9708 72.1668 33.8946 71.9622 33.8616C71.7575 33.8286 71.5481 33.8395 71.3479 33.8935C71.1478 33.9475 70.9614 34.0435 70.8011 34.175C70.6409 34.3065 70.5104 34.4706 70.4184 34.6564C69.5672 36.374 68.865 38.112 68.7009 39.9613C68.5999 41.1069 68.7177 42.2613 69.048 43.3629C68.1083 43.4375 67.1821 43.6329 66.2923 43.9443C65.9746 44.0518 65.7034 44.2652 65.5243 44.5488C65.3452 44.8323 65.269 45.1689 65.3084 45.502C65.4412 46.6359 66.1794 48.0144 67.8349 49.4457C69.3296 50.7369 71.6411 52.134 75.1693 53.513C75.1541 53.5544 75.1407 53.5967 75.1291 53.64L74.3693 56.4653C74.2686 56.8399 74.3208 57.2393 74.5145 57.5754C74.7081 57.9116 75.0274 58.157 75.4021 58.2578C75.7767 58.3585 76.176 58.3063 76.5122 58.1127C76.8484 57.919 77.0938 57.5997 77.1946 57.225L77.9543 54.3998C77.9659 54.3569 77.9756 54.3135 77.9832 54.2697C81.7258 54.846 84.4277 54.797 86.367 54.4293C88.5185 54.0218 89.8489 53.198 90.5336 52.2855C90.7347 52.0169 90.8373 51.6874 90.8243 51.3521C90.8114 51.0168 90.6835 50.6962 90.4623 50.444C89.8487 49.7284 89.1454 49.0948 88.3698 48.5589C89.2108 47.774 89.8921 46.8338 90.3762 45.7902C91.1629 44.1098 91.4275 42.2526 91.5526 40.3398C91.566 40.1328 91.5353 39.9254 91.4624 39.7312C91.3896 39.537 91.2763 39.3605 91.13 39.2135C90.9838 39.0664 90.808 38.9522 90.6142 38.8783C90.4204 38.8043 90.2131 38.7725 90.0061 38.7848C88.5746 38.8694 87.3448 39.0265 86.1533 39.3847C86.1514 38.0678 85.9111 36.8323 85.5636 35.7587C84.9946 34.0046 84.0794 32.5073 83.2109 31.7375C83.0412 31.5868 82.8388 31.4777 82.6196 31.4187Z" fill="#48B56D"/>
<path fill-rule="evenodd" clip-rule="evenodd" d="M93.7849 110.086L93.7798 110.103L93.7801 110.219L93.7724 110.248L93.7582 110.264L93.6652 110.334C93.6548 110.346 93.6523 110.358 93.6576 110.369L93.6681 110.381L94.2194 110.679L94.2488 110.685L94.2724 110.68L94.4365 110.592L94.4514 110.574L94.4539 110.556L94.4237 110.372L94.4104 110.346L94.3906 110.33L93.8188 110.077C93.8031 110.074 93.7918 110.077 93.7849 110.086ZM93.8065 109.667L93.8001 109.686L93.8038 109.988L93.8105 110.008L93.823 110.019L94.3994 110.272L94.4183 110.273L94.434 110.268L94.6843 110.063C94.6968 110.048 94.6995 110.034 94.6924 110.02L94.6766 110.005L93.8483 109.655C93.8295 109.651 93.8155 109.655 93.8065 109.667ZM93.3487 110.607C93.3424 110.611 93.3378 110.618 93.3361 110.625C93.3343 110.632 93.3354 110.64 93.3392 110.647L93.3537 110.663L94.1383 111.103C94.1545 111.11 94.1686 111.108 94.1808 111.097L94.1878 111.076L94.1951 110.752L94.191 110.733L94.1785 110.722L93.6253 110.422L93.6076 110.418L93.588 110.425L93.3487 110.607Z" fill="#39AA5F"/>
<path fill-rule="evenodd" clip-rule="evenodd" d="M66.795 97.822C66.6951 98.0259 66.644 98.2501 66.6457 98.4771C66.6541 99.6363 67.1782 101.312 68.1241 102.895C68.7543 103.953 69.5435 104.908 70.4641 105.725C69.4121 106.386 68.4824 107.209 67.4764 108.231C67.3311 108.379 67.2188 108.556 67.1471 108.75C67.0755 108.945 67.0459 109.152 67.0605 109.359C67.0752 109.566 67.1336 109.767 67.2319 109.95C67.3302 110.132 67.4662 110.292 67.6309 110.418C69.1532 111.583 70.7241 112.605 72.5076 113.121C73.6125 113.44 74.768 113.546 75.9126 113.434C75.8054 114.37 75.8194 115.317 75.9543 116.25C75.9988 116.582 76.1562 116.889 76.4001 117.119C76.644 117.35 76.9597 117.489 77.2942 117.514C78.4325 117.601 79.927 117.142 81.6495 115.792C83.2035 114.572 85.0183 112.572 87.0488 109.374C87.0864 109.397 87.1254 109.418 87.1657 109.438L89.7926 110.726C90.141 110.897 90.5429 110.922 90.91 110.796C91.2771 110.671 91.5792 110.405 91.75 110.056C91.9208 109.708 91.9462 109.306 91.8206 108.939C91.6951 108.572 91.4288 108.27 91.0805 108.099L88.4535 106.811C88.4137 106.791 88.3729 106.774 88.3314 106.758C89.6152 103.195 90.0857 100.534 90.0971 98.5603C90.11 96.3706 89.5569 94.9069 88.7927 94.0598C88.5677 93.8109 88.264 93.6469 87.9324 93.5953C87.6009 93.5437 87.2617 93.6076 86.9717 93.7764C86.1516 94.2412 85.3949 94.8098 84.7201 95.4681C84.1112 94.4921 83.3192 93.643 82.3879 92.9677C80.8897 91.8732 79.1179 91.257 77.2646 90.7672C77.0641 90.7143 76.8546 90.7046 76.65 90.7388C76.4455 90.7731 76.2505 90.8504 76.0781 90.9657C75.9058 91.081 75.7599 91.2317 75.6501 91.4076C75.5404 91.5836 75.4694 91.7809 75.4417 91.9865C75.25 93.4076 75.1681 94.6447 75.291 95.8828C73.9983 95.6319 72.7396 95.6306 71.6193 95.7657C69.7886 95.9874 68.1435 96.5982 67.2214 97.3028C67.0409 97.4405 66.8949 97.6182 66.795 97.822Z" fill="#39AA5F"/>
<path fill-rule="evenodd" clip-rule="evenodd" d="M69.9588 104.411L69.9616 104.418L69.9931 104.459L69.9983 104.471L69.9975 104.481L69.9839 104.53C69.9836 104.537 69.9859 104.542 69.9908 104.545L69.9977 104.546L70.2717 104.501L70.2838 104.495L70.2908 104.487L70.3242 104.412L70.3248 104.402L70.3207 104.395L70.2602 104.338L70.2485 104.333L70.2371 104.332L69.9682 104.399C69.9617 104.402 69.9586 104.406 69.9588 104.411ZM69.8527 104.258L69.8558 104.267L69.9388 104.372L69.9465 104.377L69.9538 104.377L70.2246 104.31L70.2316 104.305L70.2356 104.299L70.2679 104.159C70.2683 104.151 70.2654 104.145 70.259 104.142L70.2496 104.141L69.8641 104.243C69.8565 104.246 69.8527 104.252 69.8527 104.258ZM69.947 104.712C69.9459 104.715 69.946 104.719 69.9474 104.722C69.9487 104.725 69.9512 104.727 69.9543 104.728L69.964 104.73L70.3583 104.672C70.3659 104.67 70.3702 104.665 70.3714 104.658L70.3682 104.649L70.283 104.533L70.2766 104.528L70.2692 104.528L69.9938 104.572L69.9865 104.575L69.9815 104.583L69.947 104.712Z" fill="#39AA5F"/>
<path fill-rule="evenodd" clip-rule="evenodd" d="M57.1705 107.423C57.1907 107.522 57.2336 107.614 57.2957 107.693C57.6127 108.097 58.2506 108.543 59.0112 108.842C59.5189 109.042 60.0543 109.163 60.5987 109.201C60.4087 109.717 60.3057 110.258 60.2298 110.889C60.2189 110.98 60.2275 111.072 60.2551 111.16C60.2826 111.248 60.3285 111.329 60.3897 111.397C60.4508 111.466 60.5259 111.52 60.6098 111.558C60.6937 111.595 60.7847 111.614 60.8765 111.614C61.7261 111.61 62.5541 111.543 63.3193 111.241C63.7933 111.053 64.2272 110.777 64.5981 110.428C64.8142 110.785 65.0756 111.113 65.3757 111.404C65.4814 111.508 65.6198 111.573 65.7677 111.588C65.9156 111.603 66.0641 111.566 66.1882 111.484C66.6111 111.206 67.0106 110.64 67.2489 109.7C67.4635 108.851 67.5579 107.658 67.4035 105.986C67.4229 105.984 67.4424 105.981 67.4618 105.977L68.732 105.717C68.9005 105.683 69.0483 105.583 69.143 105.439C69.2377 105.296 69.2716 105.12 69.2371 104.952C69.2026 104.783 69.1026 104.636 68.9591 104.541C68.8156 104.446 68.6403 104.412 68.4719 104.447L67.2017 104.707C67.1824 104.711 67.1633 104.716 67.1444 104.721C66.6294 103.124 66.0734 102.064 65.5425 101.368C64.9538 100.597 64.3632 100.233 63.8657 100.143C63.7193 100.117 63.5684 100.142 63.4381 100.213C63.3079 100.285 63.2062 100.4 63.1503 100.537C62.9886 100.923 62.8773 101.327 62.819 101.741C62.341 101.563 61.8332 101.48 61.3236 101.496C60.5016 101.518 59.7133 101.782 58.9306 102.112C58.846 102.148 58.7699 102.201 58.7074 102.269C58.645 102.336 58.5976 102.416 58.5684 102.503C58.5391 102.59 58.5288 102.683 58.538 102.774C58.5472 102.866 58.5758 102.954 58.6217 103.034C58.9396 103.584 59.2461 104.04 59.6246 104.441C59.1033 104.703 58.6615 105.044 58.3052 105.395C57.7233 105.969 57.3119 106.629 57.1794 107.125C57.1534 107.223 57.1504 107.325 57.1705 107.423Z" fill="#39AA5F"/>
<path fill-rule="evenodd" clip-rule="evenodd" d="M78.7219 95.2851L78.7193 95.2938L78.7194 95.3529L78.7155 95.3676L78.7083 95.3756L78.6608 95.4114C78.6555 95.4177 78.6542 95.4237 78.657 95.4294L78.6623 95.4354L78.9435 95.5874L78.9585 95.5906L78.9705 95.5881L79.0543 95.5428L79.0619 95.534L79.0631 95.5247L79.0477 95.4307L79.0409 95.4174L79.0308 95.4092L78.7392 95.2803C78.7312 95.2786 78.7254 95.2802 78.7219 95.2851ZM78.7329 95.0711L78.7296 95.0812L78.7315 95.235L78.7349 95.245L78.7413 95.2506L79.0353 95.3798L79.045 95.3803L79.053 95.3776L79.1806 95.2732C79.187 95.2658 79.1884 95.2584 79.1848 95.2511L79.1767 95.2438L78.7542 95.065C78.7446 95.063 78.7375 95.0651 78.7329 95.0711ZM78.4994 95.5508C78.4962 95.5529 78.4939 95.5561 78.493 95.5598C78.4921 95.5636 78.4926 95.5675 78.4946 95.5709L78.502 95.5795L78.9021 95.8039C78.9104 95.8074 78.9176 95.8062 78.9238 95.8004L78.9274 95.7897L78.9311 95.6245L78.929 95.6152L78.9226 95.6095L78.6405 95.4563L78.6315 95.4543L78.6215 95.4577L78.4994 95.5508Z" fill="#4DBE72"/>
<path fill-rule="evenodd" clip-rule="evenodd" d="M64.9557 89.0296C64.9048 89.1335 64.8787 89.2479 64.8796 89.3637C64.8839 89.9549 65.1512 90.8097 65.6336 91.6171C65.955 92.1566 66.3576 92.6435 66.8272 93.0606C66.2906 93.3974 65.8164 93.8172 65.3033 94.3385C65.2291 94.4139 65.1719 94.5042 65.1353 94.6034C65.0988 94.7027 65.0837 94.8085 65.0912 94.914C65.0986 95.0195 65.1284 95.1222 65.1786 95.2153C65.2287 95.3084 65.2981 95.3897 65.3821 95.454C66.1585 96.0482 66.9598 96.5698 67.8694 96.833C68.433 96.9957 69.0224 97.0497 69.6061 96.9922C69.5515 97.4699 69.5586 97.9526 69.6274 98.4285C69.6501 98.5981 69.7304 98.7547 69.8548 98.8721C69.9792 98.9895 70.1402 99.0606 70.3108 99.0735C70.8914 99.118 71.6537 98.8835 72.5322 98.1949C73.3248 97.573 74.2505 96.5527 75.2861 94.9216C75.3053 94.9333 75.3252 94.9441 75.3458 94.9542L76.6856 95.6111C76.8633 95.6982 77.0683 95.7111 77.2555 95.6471C77.4427 95.583 77.5969 95.4472 77.684 95.2696C77.7711 95.0919 77.784 94.8869 77.72 94.6997C77.6559 94.5124 77.5202 94.3583 77.3425 94.2712L76.0026 93.6143C75.9823 93.6043 75.9615 93.5953 75.9403 93.5871C76.5951 91.7701 76.8351 90.4129 76.8409 89.4061C76.8475 88.2892 76.5654 87.5427 76.1756 87.1106C76.0608 86.9837 75.9059 86.9 75.7368 86.8737C75.5677 86.8474 75.3947 86.88 75.2468 86.9661C74.8285 87.2032 74.4425 87.4932 74.0984 87.8289C73.7878 87.3311 73.3839 86.8981 72.9089 86.5536C72.1447 85.9953 71.241 85.6811 70.2957 85.4312C70.1934 85.4042 70.0866 85.3993 69.9823 85.4168C69.8779 85.4342 69.7785 85.4737 69.6906 85.5325C69.6027 85.5913 69.5282 85.6681 69.4723 85.7579C69.4163 85.8477 69.3801 85.9483 69.366 86.0531C69.2682 86.778 69.2264 87.409 69.2891 88.0405C68.6297 87.9125 67.9877 87.9118 67.4164 87.9807C66.4826 88.0938 65.6435 88.4054 65.1732 88.7647C65.0811 88.8349 65.0067 88.9256 64.9557 89.0296Z" fill="#4DBE72"/>
<path fill-rule="evenodd" clip-rule="evenodd" d="M62.7998 46.3879L62.7914 46.3989L62.7598 46.4835L62.7464 46.5024L62.7316 46.51L62.6445 46.5357C62.6336 46.5418 62.6285 46.5497 62.6293 46.5594L62.6338 46.5708L62.9543 46.9394L62.974 46.9521L62.9925 46.9551L63.1367 46.9352L63.1523 46.9268L63.1591 46.9141L63.1876 46.7714L63.185 46.7487L63.1751 46.7315L62.8272 46.3903C62.8166 46.3835 62.8075 46.3827 62.7998 46.3879ZM62.9307 46.0877L62.9206 46.1003L62.8405 46.3213L62.8401 46.3375L62.8462 46.3489L63.1972 46.6918L63.2108 46.6979L63.2237 46.6983L63.4625 46.6175C63.4756 46.6104 63.4815 46.6006 63.4803 46.5882L63.4726 46.5735L62.9645 46.0903C62.9518 46.0824 62.9405 46.0815 62.9307 46.0877ZM62.3386 46.6483C62.3329 46.6495 62.3279 46.6529 62.3245 46.6578C62.3212 46.6626 62.3199 46.6686 62.3209 46.6744L62.3269 46.6907L62.7786 47.227C62.7886 47.2364 62.7995 47.2386 62.8115 47.2336L62.8224 47.2202L62.9166 46.9859L62.9186 46.9714L62.9125 46.96L62.5913 46.5889L62.5794 46.5813L62.5633 46.5808L62.3386 46.6483Z" fill="#48B56D"/>
<path fill-rule="evenodd" clip-rule="evenodd" d="M46.4711 30.0353C46.3423 30.1565 46.2435 30.3062 46.1825 30.4722C45.8706 31.3203 45.7932 32.6869 46.0492 34.1015C46.2187 35.0462 46.5327 35.9592 46.9802 36.8084C46.0314 37.0017 45.1272 37.3472 44.1128 37.8168C43.9662 37.8849 43.8358 37.9833 43.7301 38.1056C43.6244 38.2278 43.5459 38.3712 43.4998 38.5261C43.4538 38.681 43.4411 38.8439 43.4628 39.0041C43.4845 39.1642 43.54 39.318 43.6255 39.4551C44.4167 40.7227 45.2824 41.8999 46.4421 42.7656C47.1608 43.3015 47.9749 43.6958 48.8409 43.9275C48.5058 44.5815 48.2564 45.2759 48.0988 45.9936C48.0401 46.2484 48.0707 46.5157 48.1855 46.7506C48.3003 46.9855 48.4924 47.1738 48.7295 47.2839C49.5362 47.6599 50.7528 47.7344 52.38 47.2218C53.8483 46.7586 55.7213 45.7969 58.0801 44.0205C58.1014 44.0475 58.124 44.0737 58.1479 44.0992L59.7114 45.7595C59.9187 45.9797 60.205 46.1085 60.5073 46.1176C60.8095 46.1266 61.1031 46.0153 61.3232 45.808C61.5434 45.6006 61.6722 45.3143 61.6813 45.0121C61.6904 44.7098 61.579 44.4163 61.3717 44.1961L59.8083 42.5357C59.7846 42.5105 59.7597 42.4863 59.7338 42.4633C61.6478 40.2162 62.7211 38.4036 63.2709 36.9665C63.8811 35.3724 63.879 34.1526 63.5538 33.3249C63.4579 33.0815 63.2813 32.8786 63.0536 32.75C62.8258 32.6214 62.5608 32.575 62.3029 32.6185C61.577 32.7327 60.8689 32.94 60.1959 33.2352C60.0194 32.356 59.6745 31.5192 59.1802 30.771C58.3873 29.5613 57.2635 28.6257 56.0457 27.7598C55.9139 27.6662 55.7636 27.6017 55.605 27.5706C55.4464 27.5394 55.2829 27.5424 55.1255 27.5792C54.9681 27.6161 54.8203 27.686 54.692 27.7843C54.5636 27.8826 54.4577 28.0071 54.3811 28.1494C53.8514 29.1338 53.4522 30.014 53.2022 30.9511C52.3278 30.4133 51.4098 30.0671 50.5553 29.8583C49.1587 29.5179 47.7908 29.5122 46.9246 29.7734C46.7552 29.8243 46.5999 29.914 46.4711 30.0353Z" fill="#48B56D"/>
<path fill-rule="evenodd" clip-rule="evenodd" d="M44.7998 34.3879L44.7914 34.3989L44.7598 34.4835L44.7464 34.5024L44.7316 34.51L44.6445 34.5357C44.6336 34.5418 44.6285 34.5497 44.6293 34.5594L44.6338 34.5708L44.9543 34.9394L44.974 34.9521L44.9925 34.9551L45.1367 34.9352L45.1523 34.9268L45.1591 34.9141L45.1876 34.7714L45.185 34.7487L45.1751 34.7315L44.8272 34.3903C44.8166 34.3835 44.8075 34.3827 44.7998 34.3879ZM44.9307 34.0877L44.9206 34.1003L44.8405 34.3213L44.8401 34.3375L44.8462 34.3489L45.1972 34.6918L45.2108 34.6979L45.2237 34.6983L45.4625 34.6175C45.4756 34.6104 45.4815 34.6006 45.4803 34.5882L45.4726 34.5735L44.9645 34.0903C44.9518 34.0824 44.9405 34.0815 44.9307 34.0877ZM44.3386 34.6483C44.3329 34.6495 44.3279 34.6529 44.3245 34.6578C44.3212 34.6626 44.3199 34.6686 44.3209 34.6744L44.3269 34.6907L44.7786 35.227C44.7886 35.2364 44.7995 35.2386 44.8115 35.2336L44.8224 35.2202L44.9166 34.9859L44.9186 34.9714L44.9125 34.96L44.5913 34.5889L44.5794 34.5813L44.5633 34.5808L44.3386 34.6483Z" fill="#48B56D"/>
<path fill-rule="evenodd" clip-rule="evenodd" d="M28.4711 18.0353C28.3423 18.1565 28.2435 18.3062 28.1825 18.4722C27.8706 19.3203 27.7932 20.6869 28.0492 22.1015C28.2187 23.0462 28.5327 23.9592 28.9802 24.8084C28.0314 25.0017 27.1272 25.3472 26.1128 25.8168C25.9662 25.8849 25.8358 25.9833 25.7301 26.1056C25.6244 26.2278 25.5459 26.3712 25.4998 26.5261C25.4538 26.681 25.4411 26.8439 25.4628 27.0041C25.4845 27.1642 25.54 27.318 25.6255 27.4551C26.4167 28.7227 27.2824 29.8999 28.4421 30.7656C29.1608 31.3015 29.9749 31.6958 30.8409 31.9275C30.5058 32.5815 30.2564 33.2759 30.0988 33.9936C30.0401 34.2484 30.0707 34.5157 30.1855 34.7506C30.3003 34.9855 30.4924 35.1738 30.7295 35.2839C31.5362 35.6599 32.7528 35.7344 34.38 35.2218C35.8483 34.7586 37.7213 33.7969 40.0801 32.0205C40.1014 32.0475 40.124 32.0737 40.1479 32.0992L41.7114 33.7595C41.9187 33.9797 42.205 34.1085 42.5073 34.1176C42.8095 34.1266 43.1031 34.0153 43.3232 33.808C43.5434 33.6006 43.6722 33.3143 43.6813 33.0121C43.6904 32.7098 43.579 32.4163 43.3717 32.1961L41.8083 30.5357C41.7846 30.5105 41.7597 30.4863 41.7338 30.4633C43.6478 28.2162 44.7211 26.4036 45.2709 24.9665C45.8811 23.3724 45.879 22.1526 45.5538 21.3249C45.4579 21.0815 45.2813 20.8786 45.0536 20.75C44.8258 20.6214 44.5608 20.575 44.3029 20.6185C43.577 20.7327 42.8689 20.94 42.1959 21.2352C42.0194 20.356 41.6745 19.5192 41.1802 18.771C40.3873 17.5613 39.2635 16.6257 38.0457 15.7598C37.9139 15.6662 37.7636 15.6017 37.605 15.5706C37.4464 15.5394 37.2829 15.5424 37.1255 15.5792C36.9681 15.6161 36.8203 15.686 36.692 15.7843C36.5636 15.8826 36.4577 16.0071 36.3811 16.1494C35.8514 17.1338 35.4522 18.014 35.2022 18.9511C34.3278 18.4133 33.4098 18.0671 32.5553 17.8583C31.1587 17.5179 29.7908 17.5122 28.9246 17.7734C28.7552 17.8243 28.5999 17.914 28.4711 18.0353Z" fill="#48B56D"/>
<path fill-rule="evenodd" clip-rule="evenodd" d="M50.4858 18.7485L50.4782 18.7528L50.439 18.794L50.4265 18.8016L50.4161 18.8024L50.3592 18.7957C50.3514 18.7965 50.3465 18.7998 50.3445 18.8056L50.3443 18.8134L50.4388 19.1064L50.4471 19.1186L50.457 19.1249L50.5455 19.1491L50.5566 19.1481L50.5637 19.1424L50.6156 19.0668L50.6197 19.053L50.6182 19.0405L50.5011 18.7566C50.4966 18.7501 50.4916 18.7474 50.4858 18.7485ZM50.636 18.6069L50.627 18.6117L50.5259 18.72L50.5216 18.7292L50.5223 18.7374L50.6409 19.023L50.6472 19.0299L50.6546 19.0333L50.813 19.0457C50.8224 19.0448 50.8282 19.0406 50.8306 19.0331L50.8298 19.0226L50.6549 18.6168C50.6496 18.6091 50.6432 18.6058 50.636 18.6069ZM50.1541 18.7852C50.1504 18.7845 50.1467 18.7852 50.1436 18.7872C50.1404 18.7892 50.1382 18.7923 50.1373 18.7959L50.1368 18.8068L50.2658 19.2295C50.2692 19.2375 50.275 19.2415 50.2832 19.2415L50.2928 19.2364L50.4054 19.124L50.4102 19.1161L50.4095 19.1079L50.3152 18.8133L50.3102 18.806L50.301 18.8017L50.1541 18.7852Z" fill="#48B56D"/>
<path fill-rule="evenodd" clip-rule="evenodd" d="M45.0721 5.227C44.9674 5.2654 44.8731 5.32763 44.7966 5.40878C44.4058 5.82308 44.0226 6.59593 43.8206 7.47911C43.6849 8.06863 43.6408 8.67553 43.6898 9.27848C43.0921 9.15556 42.4825 9.13189 41.7783 9.15287C41.6765 9.156 41.5765 9.18073 41.485 9.22543C41.3935 9.27012 41.3125 9.33376 41.2474 9.41213C41.1823 9.4905 41.1347 9.5818 41.1076 9.67999C41.0805 9.77818 41.0746 9.881 41.0902 9.98165C41.2348 10.9122 41.445 11.8088 41.9028 12.5978C42.1866 13.0863 42.5608 13.5165 43.0053 13.8652C42.6491 14.1612 42.3326 14.5019 42.0635 14.8789C41.9664 15.012 41.918 15.1745 41.9264 15.339C41.9347 15.5036 41.9994 15.6603 42.1096 15.7829C42.484 16.2005 43.1706 16.545 44.2406 16.6509C45.2063 16.746 46.5299 16.6524 48.3369 16.2071C48.3425 16.228 48.3491 16.2488 48.3567 16.2695L48.8517 17.6189C48.9173 17.7978 49.0513 17.9434 49.2243 18.0235C49.3972 18.1036 49.5949 18.1117 49.7738 18.0461C49.9528 17.9805 50.0983 17.8464 50.1784 17.6735C50.2586 17.5006 50.2667 17.3029 50.2011 17.1239L49.7061 15.7745C49.6987 15.754 49.6902 15.7339 49.6809 15.7141C51.3467 14.8858 52.4176 14.101 53.0921 13.4043C53.8405 12.6315 54.1413 11.9241 54.1578 11.3638C54.1625 11.1991 54.1104 11.0377 54.0103 10.9068C53.9102 10.7758 53.768 10.6833 53.6078 10.6447C53.1588 10.5311 52.6971 10.4759 52.234 10.4803C52.3494 9.92706 52.3567 9.35669 52.2555 8.80063C52.0955 7.90323 51.6759 7.08268 51.1845 6.27928C51.1313 6.19239 51.0603 6.1178 50.976 6.06047C50.8918 6.00313 50.7963 5.96437 50.696 5.94674C50.5956 5.92911 50.4927 5.93302 50.394 5.95821C50.2952 5.98341 50.203 6.02931 50.1233 6.09287C49.5726 6.53217 49.1233 6.94344 48.7463 7.42463C48.3727 6.89646 47.9264 6.46846 47.4829 6.13586C46.7578 5.5927 45.9664 5.25069 45.3998 5.18754C45.289 5.17509 45.1768 5.1886 45.0721 5.227Z" fill="#48B56D"/>
<path fill-rule="evenodd" clip-rule="evenodd" d="M67.6615 20.5964L67.6503 20.5949L67.5778 20.6065L67.5589 20.6046L67.5476 20.5972L67.4945 20.5458C67.4858 20.5405 67.4781 20.5401 67.4716 20.5446L67.4653 20.5523L67.333 20.9273L67.3319 20.9464L67.3373 20.9607L67.4092 21.0548L67.4214 21.0625L67.4332 21.0622L67.5457 21.025L67.5607 21.0141L67.5689 21.0002L67.6708 20.6168C67.6714 20.6066 67.6683 20.5998 67.6615 20.5964ZM67.9266 20.5685L67.9137 20.5664L67.725 20.5985L67.7134 20.6047L67.7077 20.6136L67.6059 20.9999L67.6071 21.0119L67.612 21.0212L67.7651 21.1579C67.7754 21.1643 67.7847 21.1646 67.793 21.1587L67.8003 21.1474L67.9384 20.5935C67.9389 20.5813 67.935 20.573 67.9266 20.5685ZM67.2919 20.3744C67.2887 20.3709 67.2843 20.3686 67.2795 20.3683C67.2748 20.3679 67.27 20.3693 67.2663 20.3724L67.2572 20.3831L67.0588 20.9184C67.0561 20.9293 67.059 20.9379 67.0673 20.9444L67.0812 20.9467L67.2849 20.9193L67.296 20.9149L67.3017 20.906L67.4354 20.5295L67.436 20.518L67.4299 20.5064L67.2919 20.3744Z" fill="#4DBE72"/>
<path fill-rule="evenodd" clip-rule="evenodd" d="M72.6832 2.4649C72.5456 2.4224 72.4 2.41252 72.2578 2.43602C71.532 2.55582 70.5332 3.0499 69.6344 3.79928C69.0335 4.29879 68.5131 4.88785 68.0915 5.54575C67.5735 4.95152 66.9657 4.45003 66.2257 3.92034C66.1186 3.84386 65.9965 3.791 65.8675 3.76528C65.7385 3.73956 65.6055 3.74156 65.4773 3.77115C65.3491 3.80074 65.2286 3.85724 65.1239 3.93691C65.0192 4.01659 64.9326 4.1176 64.8699 4.23327C64.29 5.30265 63.8042 6.38843 63.6569 7.55741C63.5661 8.28158 63.6138 9.0164 63.7976 9.72273C63.1999 9.74809 62.608 9.85037 62.0364 10.0271C61.8324 10.0878 61.6555 10.2168 61.5353 10.3925C61.4151 10.5681 61.3589 10.7798 61.3761 10.9919C61.4339 11.7141 61.8698 12.6056 62.8862 13.5519C63.804 14.4057 65.2373 15.3457 67.4426 16.3026C67.432 16.3285 67.4225 16.355 67.4141 16.3822L66.8663 18.1562C66.7937 18.3914 66.8175 18.6459 66.9324 18.8636C67.0474 19.0813 67.2442 19.2444 67.4794 19.317C67.7147 19.3897 67.9691 19.3659 68.1868 19.2509C68.4045 19.1359 68.5676 18.9392 68.6403 18.7039L69.1881 16.93C69.1964 16.903 69.2036 16.8757 69.2094 16.8482C71.5694 17.301 73.284 17.333 74.5225 17.1451C75.8964 16.9369 76.7594 16.4456 77.2149 15.8828C77.3487 15.7172 77.4215 15.5106 77.4211 15.2977C77.4207 15.0848 77.3471 14.8785 77.2126 14.7133C76.8402 14.2452 76.409 13.827 75.9297 13.469C76.4814 12.9909 76.9354 12.4105 77.2667 11.76C77.8048 10.7127 78.016 9.54113 78.14 8.33097C78.1534 8.20003 78.1387 8.06776 78.0971 7.94291C78.0554 7.81807 77.9877 7.70351 77.8983 7.60684C77.809 7.51017 77.7002 7.4336 77.579 7.3822C77.4579 7.3308 77.3272 7.30576 77.1956 7.30872C76.2858 7.32897 75.5022 7.39984 74.7382 7.59918C74.7678 6.76404 74.6442 5.97487 74.4489 5.28596C74.129 4.16026 73.5836 3.18933 73.0508 2.68088C72.9467 2.58134 72.8208 2.5074 72.6832 2.4649Z" fill="#4DBE72"/>
<path fill-rule="evenodd" clip-rule="evenodd" d="M77.9952 24.4714L77.984 24.4699L77.9114 24.4815L77.8926 24.4796L77.8812 24.4722L77.8281 24.4208C77.8194 24.4155 77.8118 24.4151 77.8052 24.4196L77.7989 24.4273L77.6666 24.8023L77.6656 24.8214L77.6709 24.8357L77.7429 24.9298L77.7551 24.9375L77.7668 24.9372L77.8793 24.9L77.8943 24.8891L77.9025 24.8752L78.0044 24.4918C78.005 24.4816 78.0019 24.4748 77.9952 24.4714ZM78.2603 24.4435L78.2473 24.4414L78.0586 24.4735L78.047 24.4797L78.0413 24.4886L77.9395 24.8749L77.9407 24.8869L77.9456 24.8962L78.0987 25.0329C78.109 25.0393 78.1183 25.0396 78.1266 25.0337L78.134 25.0224L78.272 24.4685C78.2725 24.4563 78.2686 24.448 78.2603 24.4435ZM77.6255 24.2494C77.6224 24.2459 77.6179 24.2436 77.6131 24.2433C77.6084 24.2429 77.6036 24.2443 77.5999 24.2474L77.5908 24.2581L77.3925 24.7934C77.3898 24.8043 77.3926 24.8129 77.401 24.8194L77.4148 24.8217L77.6186 24.7943L77.6296 24.7899L77.6353 24.781L77.769 24.4045L77.7697 24.393L77.7635 24.3814L77.6255 24.2494Z" fill="#4DBE72"/>
<path fill-rule="evenodd" clip-rule="evenodd" d="M83.017 6.3399C82.8793 6.2974 82.7337 6.28752 82.5916 6.31102C81.8658 6.43082 80.867 6.9249 79.9681 7.67428C79.3672 8.17379 78.8468 8.76285 78.4252 9.42075C77.9072 8.82652 77.2994 8.32503 76.5594 7.79534C76.4524 7.71886 76.3303 7.666 76.2013 7.64028C76.0722 7.61456 75.9392 7.61656 75.811 7.64615C75.6828 7.67574 75.5624 7.73224 75.4576 7.81191C75.3529 7.89159 75.2664 7.9926 75.2037 8.10827C74.6238 9.17765 74.1379 10.2634 73.9907 11.4324C73.8998 12.1566 73.9476 12.8914 74.1313 13.5977C73.5336 13.6231 72.9417 13.7254 72.3702 13.9021C72.1662 13.9628 71.9892 14.0918 71.869 14.2675C71.7488 14.4431 71.6926 14.6548 71.7098 14.8669C71.7676 15.5891 72.2035 16.4806 73.22 17.4269C74.1378 18.2807 75.571 19.2207 77.7763 20.1776C77.7657 20.2035 77.7563 20.23 77.7479 20.2572L77.2001 22.0312C77.1274 22.2664 77.1512 22.5209 77.2662 22.7386C77.3812 22.9563 77.5779 23.1194 77.8132 23.192C78.0484 23.2647 78.3029 23.2409 78.5206 23.1259C78.7383 23.0109 78.9014 22.8142 78.974 22.5789L79.5218 20.805C79.5302 20.778 79.5373 20.7507 79.5432 20.7232C81.9032 21.176 83.6178 21.208 84.8562 21.0201C86.2302 20.8119 87.0931 20.3206 87.5486 19.7578C87.6824 19.5922 87.7552 19.3856 87.7548 19.1727C87.7544 18.9598 87.6808 18.7535 87.5464 18.5883C87.174 18.1202 86.7428 17.702 86.2634 17.344C86.8151 16.8659 87.2691 16.2855 87.6005 15.635C88.1386 14.5877 88.3498 13.4161 88.4738 12.206C88.4871 12.075 88.4725 11.9428 88.4308 11.8179C88.3891 11.6931 88.3214 11.5785 88.2321 11.4818C88.1428 11.3852 88.0339 11.3086 87.9128 11.2572C87.7916 11.2058 87.6609 11.1808 87.5293 11.1837C86.6195 11.204 85.8359 11.2748 85.0719 11.4742C85.1015 10.639 84.978 9.84987 84.7826 9.16096C84.4628 8.03526 83.9173 7.06433 83.3845 6.55588C83.2804 6.45634 83.1546 6.3824 83.017 6.3399Z" fill="#4DBE72"/>
<path fill-rule="evenodd" clip-rule="evenodd" d="M94.7053 34.9449L94.6967 34.9437L94.6405 34.9527L94.6259 34.9512L94.6171 34.9455L94.576 34.9057C94.5693 34.9016 94.5633 34.9013 94.5583 34.9047L94.5534 34.9108L94.451 35.201L94.4502 35.2158L94.4543 35.2269L94.51 35.2997L94.5195 35.3057L94.5285 35.3055L94.6156 35.2767L94.6273 35.2683L94.6336 35.2574L94.7125 34.9606C94.7129 34.9527 94.7105 34.9475 94.7053 34.9449ZM94.9106 34.9233L94.9005 34.9217L94.7545 34.9465L94.7455 34.9513L94.7411 34.9582L94.6623 35.2573L94.6632 35.2666L94.667 35.2738L94.7855 35.3795C94.7935 35.3845 94.8007 35.3847 94.8071 35.3802L94.8128 35.3714L94.9196 34.9426C94.92 34.9332 94.917 34.9268 94.9106 34.9233ZM94.4192 34.773C94.4167 34.7703 94.4133 34.7686 94.4096 34.7683C94.4059 34.768 94.4022 34.7691 94.3994 34.7714L94.3923 34.7798L94.2387 35.1942C94.2366 35.2026 94.2388 35.2092 94.2453 35.2143L94.256 35.2161L94.4138 35.1948L94.4223 35.1914L94.4267 35.1845L94.5303 34.8931L94.5308 34.8842L94.526 34.8752L94.4192 34.773Z" fill="#4DBE72"/>
<path fill-rule="evenodd" clip-rule="evenodd" d="M98.593 20.9082C98.4865 20.8753 98.3737 20.8677 98.2637 20.8859C97.7018 20.9786 96.9286 21.3611 96.2327 21.9413C95.7675 22.328 95.3647 22.784 95.0383 23.2933C94.6373 22.8333 94.1667 22.4451 93.5938 22.035C93.511 21.9758 93.4164 21.9349 93.3166 21.9149C93.2167 21.895 93.1137 21.8966 93.0144 21.9195C92.9152 21.9424 92.8219 21.9861 92.7409 22.0478C92.6598 22.1095 92.5928 22.1877 92.5443 22.2773C92.0953 23.1051 91.7192 23.9457 91.6052 24.8507C91.5349 25.4113 91.5718 25.9802 91.7141 26.527C91.2514 26.5466 90.7931 26.6258 90.3507 26.7626C90.1927 26.8096 90.0558 26.9095 89.9627 27.0455C89.8696 27.1815 89.8261 27.3453 89.8395 27.5096C89.8842 28.0687 90.2216 28.7588 91.0085 29.4914C91.7191 30.1524 92.8287 30.8801 94.5359 31.6209C94.5277 31.6409 94.5204 31.6615 94.5139 31.6825L94.0898 33.0559C94.0336 33.238 94.052 33.435 94.141 33.6035C94.23 33.772 94.3823 33.8983 94.5644 33.9546C94.7465 34.0108 94.9435 33.9924 95.1121 33.9034C95.2806 33.8144 95.4069 33.662 95.4631 33.4799L95.8872 32.1066C95.8937 32.0857 95.8992 32.0646 95.9038 32.0433C97.7308 32.3938 99.0582 32.4186 100.017 32.2732C101.081 32.112 101.749 31.7316 102.101 31.2959C102.205 31.1677 102.261 31.0078 102.261 30.8429C102.261 30.6781 102.204 30.5184 102.1 30.3906C101.811 30.0281 101.477 29.7043 101.106 29.4272C101.533 29.0571 101.885 28.6078 102.141 28.1042C102.558 27.2934 102.722 26.3864 102.817 25.4495C102.828 25.3482 102.816 25.2458 102.784 25.1491C102.752 25.0525 102.7 24.9638 102.63 24.8889C102.561 24.8141 102.477 24.7548 102.383 24.715C102.289 24.6752 102.188 24.6559 102.086 24.6582C101.382 24.6738 100.775 24.7287 100.184 24.883C100.207 24.2365 100.111 23.6255 99.96 23.0922C99.7123 22.2207 99.2901 21.4691 98.8776 21.0754C98.797 20.9984 98.6996 20.9411 98.593 20.9082Z" fill="#4DBE72"/>
<path fill-rule="evenodd" clip-rule="evenodd" d="M100.705 45.9449L100.697 45.9437L100.64 45.9527L100.626 45.9512L100.617 45.9455L100.576 45.9057C100.569 45.9016 100.563 45.9013 100.558 45.9047L100.553 45.9108L100.451 46.201L100.45 46.2158L100.454 46.2269L100.51 46.2997L100.519 46.3057L100.529 46.3055L100.616 46.2767L100.627 46.2683L100.634 46.2574L100.712 45.9606C100.713 45.9527 100.711 45.9475 100.705 45.9449ZM100.911 45.9233L100.901 45.9217L100.754 45.9465L100.745 45.9513L100.741 45.9582L100.662 46.2573L100.663 46.2666L100.667 46.2738L100.785 46.3795C100.793 46.3845 100.801 46.3847 100.807 46.3802L100.813 46.3714L100.92 45.9426C100.92 45.9332 100.917 45.9268 100.911 45.9233ZM100.419 45.773C100.417 45.7703 100.413 45.7686 100.41 45.7683C100.406 45.768 100.402 45.7691 100.399 45.7714L100.392 45.7798L100.239 46.1942C100.237 46.2026 100.239 46.2092 100.245 46.2143L100.256 46.2161L100.414 46.1948L100.422 46.1914L100.427 46.1845L100.53 45.8931L100.531 45.8842L100.526 45.8752L100.419 45.773Z" fill="#4DBE72"/>
<path fill-rule="evenodd" clip-rule="evenodd" d="M104.593 31.9082C104.486 31.8753 104.374 31.8677 104.264 31.8859C103.702 31.9786 102.929 32.3611 102.233 32.9413C101.768 33.328 101.365 33.784 101.038 34.2933C100.637 33.8333 100.167 33.4451 99.5938 33.035C99.511 32.9758 99.4164 32.9349 99.3166 32.9149C99.2167 32.895 99.1137 32.8966 99.0144 32.9195C98.9152 32.9424 98.8219 32.9861 98.7409 33.0478C98.6598 33.1095 98.5928 33.1877 98.5443 33.2773C98.0953 34.1051 97.7192 34.9457 97.6052 35.8507C97.5349 36.4113 97.5718 36.9802 97.7141 37.527C97.2514 37.5466 96.7931 37.6258 96.3507 37.7626C96.1927 37.8096 96.0558 37.9095 95.9627 38.0455C95.8696 38.1815 95.8261 38.3453 95.8395 38.5096C95.8842 39.0687 96.2216 39.7588 97.0085 40.4914C97.7191 41.1524 98.8287 41.8801 100.536 42.6209C100.528 42.6409 100.52 42.6615 100.514 42.6825L100.09 44.0559C100.034 44.238 100.052 44.435 100.141 44.6035C100.23 44.772 100.382 44.8983 100.564 44.9546C100.747 45.0108 100.944 44.9924 101.112 44.9034C101.281 44.8144 101.407 44.662 101.463 44.4799L101.887 43.1066C101.894 43.0857 101.899 43.0646 101.904 43.0433C103.731 43.3938 105.058 43.4186 106.017 43.2732C107.081 43.112 107.749 42.7316 108.101 42.2959C108.205 42.1677 108.261 42.0078 108.261 41.8429C108.261 41.6781 108.204 41.5184 108.1 41.3906C107.811 41.0281 107.477 40.7043 107.106 40.4272C107.533 40.0571 107.885 39.6078 108.141 39.1042C108.558 38.2934 108.722 37.3864 108.817 36.4495C108.828 36.3482 108.816 36.2458 108.784 36.1491C108.752 36.0525 108.7 35.9638 108.63 35.8889C108.561 35.8141 108.477 35.7548 108.383 35.715C108.289 35.6752 108.188 35.6559 108.086 35.6582C107.382 35.6738 106.775 35.7287 106.184 35.883C106.207 35.2365 106.111 34.6255 105.96 34.0922C105.712 33.2207 105.29 32.4691 104.878 32.0754C104.797 31.9984 104.7 31.9411 104.593 31.9082Z" fill="#4DBE72"/>
<path fill-rule="evenodd" clip-rule="evenodd" d="M79.7961 75.0004L79.7824 74.9891L79.6757 74.944L79.6522 74.9257L79.6432 74.9064L79.6151 74.7934C79.6078 74.779 79.598 74.7721 79.5855 74.7726L79.5706 74.7777L79.0808 75.1685L79.0635 75.1932L79.0587 75.2167L79.0763 75.4026L79.0863 75.423L79.1022 75.4324L79.2836 75.4767L79.3127 75.4747L79.3354 75.4628L79.7915 75.0354C79.8008 75.0222 79.8023 75.0106 79.7961 75.0004ZM80.1738 75.1844L80.1582 75.1708L79.8792 75.0562L79.8586 75.0547L79.8435 75.0619L79.385 75.4934L79.3765 75.5104L79.3753 75.5269L79.4659 75.8373C79.4743 75.8545 79.4866 75.8626 79.5025 75.8617L79.5218 75.8528L80.1686 75.2275C80.1794 75.2117 80.1811 75.1973 80.1738 75.1844ZM79.4873 74.3953C79.486 74.3878 79.482 74.3812 79.4759 74.3767C79.4699 74.3722 79.4623 74.3702 79.4548 74.3711L79.4336 74.3779L78.7218 74.9279C78.7091 74.9401 78.7057 74.954 78.7115 74.9696L78.7281 74.9843L79.0233 75.1177L79.0417 75.1211L79.0568 75.1139L79.5497 74.7223L79.5601 74.7075L79.5616 74.6869L79.4873 74.3953Z" fill="#39AA5F"/>
<path fill-rule="evenodd" clip-rule="evenodd" d="M101.639 54.9564C101.491 54.7847 101.304 54.65 101.095 54.5628C100.024 54.1172 98.2771 53.9441 96.4503 54.1956C95.2302 54.3618 94.043 54.7149 92.9304 55.2424C92.734 54.0158 92.3401 52.8383 91.793 51.5127C91.7138 51.3211 91.5947 51.1486 91.4437 51.0065C91.2927 50.8645 91.1132 50.7561 90.9171 50.6887C90.7211 50.6213 90.5129 50.5963 90.3065 50.6154C90.1 50.6345 89.9 50.6973 89.7197 50.7995C88.0521 51.745 86.4965 52.7908 85.3242 54.2304C84.5984 55.1226 84.049 56.1446 83.7051 57.2421C82.8851 56.7772 82.0085 56.4199 81.0971 56.1791C80.7737 56.0901 80.4296 56.1148 80.1223 56.2493C79.815 56.3838 79.5633 56.6198 79.4092 56.9177C78.8837 57.9313 78.7224 59.4866 79.2913 61.5999C79.8056 63.5069 80.9369 65.9595 83.086 69.079C83.0503 69.1047 83.0154 69.1323 82.9815 69.1616L80.7689 71.0756C80.4755 71.3295 80.2949 71.6894 80.2669 72.0764C80.2389 72.4633 80.3657 72.8456 80.6196 73.139C80.8734 73.4324 81.2333 73.613 81.6203 73.641C82.0072 73.669 82.3895 73.5421 82.6829 73.2883L84.8955 71.3743C84.9292 71.3453 84.9615 71.3147 84.9924 71.2828C87.7689 73.8575 90.0341 75.3313 91.8462 76.1137C93.8565 76.982 95.42 77.0454 96.4985 76.6733C96.8155 76.5636 97.0852 76.3482 97.2624 76.0633C97.4395 75.7784 97.5133 75.4412 97.4714 75.1083C97.3644 74.1717 97.137 73.2528 96.795 72.3744C97.9315 72.1957 99.0226 71.7989 100.008 71.2059C101.602 70.2551 102.862 68.8653 104.037 67.3512C104.165 67.1874 104.255 66.9983 104.304 66.7967C104.352 66.595 104.357 66.3854 104.319 66.1816C104.28 65.9779 104.198 65.7847 104.079 65.6149C103.96 65.4451 103.806 65.3025 103.628 65.1967C102.395 64.4645 101.289 63.9053 100.101 63.5341C100.838 62.4425 101.331 61.2845 101.645 60.2007C102.157 58.4291 102.238 56.6761 101.95 55.5519C101.894 55.3319 101.788 55.1281 101.639 54.9564Z" fill="#39AA5F"/>
<path fill-rule="evenodd" clip-rule="evenodd" d="M134.796 62.0004L134.782 61.9891L134.676 61.944L134.652 61.9257L134.643 61.9064L134.615 61.7934C134.608 61.779 134.598 61.7721 134.585 61.7726L134.571 61.7777L134.081 62.1685L134.063 62.1932L134.059 62.2167L134.076 62.4026L134.086 62.423L134.102 62.4324L134.284 62.4767L134.313 62.4747L134.335 62.4628L134.792 62.0354C134.801 62.0222 134.802 62.0106 134.796 62.0004ZM135.174 62.1844L135.158 62.1708L134.879 62.0562L134.859 62.0547L134.844 62.0619L134.385 62.4934L134.377 62.5104L134.375 62.5269L134.466 62.8373C134.474 62.8545 134.487 62.8626 134.503 62.8617L134.522 62.8528L135.169 62.2275C135.179 62.2117 135.181 62.1973 135.174 62.1844ZM134.487 61.3953C134.486 61.3878 134.482 61.3812 134.476 61.3767C134.47 61.3722 134.462 61.3702 134.455 61.3711L134.434 61.3779L133.722 61.9279C133.709 61.9401 133.706 61.954 133.711 61.9696L133.728 61.9843L134.023 62.1177L134.042 62.1211L134.057 62.1139L134.55 61.7223L134.56 61.7075L134.562 61.6869L134.487 61.3953Z" fill="#39AA5F"/>
<path fill-rule="evenodd" clip-rule="evenodd" d="M156.639 41.9564C156.491 41.7847 156.304 41.65 156.095 41.5628C155.024 41.1172 153.277 40.9441 151.45 41.1956C150.23 41.3618 149.043 41.7149 147.93 42.2424C147.734 41.0158 147.34 39.8383 146.793 38.5127C146.714 38.3211 146.595 38.1486 146.444 38.0065C146.293 37.8645 146.113 37.7561 145.917 37.6887C145.721 37.6213 145.513 37.5963 145.306 37.6154C145.1 37.6345 144.9 37.6973 144.72 37.7995C143.052 38.745 141.497 39.7908 140.324 41.2304C139.598 42.1226 139.049 43.1446 138.705 44.2421C137.885 43.7772 137.009 43.4199 136.097 43.1791C135.774 43.0901 135.43 43.1148 135.122 43.2493C134.815 43.3838 134.563 43.6198 134.409 43.9177C133.884 44.9313 133.722 46.4866 134.291 48.5999C134.806 50.5069 135.937 52.9595 138.086 56.079C138.05 56.1047 138.015 56.1323 137.982 56.1616L135.769 58.0756C135.475 58.3295 135.295 58.6894 135.267 59.0764C135.239 59.4633 135.366 59.8456 135.62 60.139C135.873 60.4324 136.233 60.613 136.62 60.641C137.007 60.669 137.389 60.5421 137.683 60.2883L139.896 58.3743C139.929 58.3453 139.962 58.3147 139.992 58.2828C142.769 60.8575 145.034 62.3313 146.846 63.1137C148.856 63.982 150.42 64.0454 151.498 63.6733C151.816 63.5636 152.085 63.3482 152.262 63.0633C152.44 62.7784 152.513 62.4412 152.471 62.1083C152.364 61.1717 152.137 60.2528 151.795 59.3744C152.931 59.1957 154.023 58.7989 155.008 58.2059C156.602 57.2551 157.862 55.8653 159.037 54.3512C159.165 54.1874 159.255 53.9983 159.304 53.7967C159.352 53.595 159.357 53.3854 159.319 53.1816C159.28 52.9779 159.198 52.7847 159.079 52.6149C158.96 52.4451 158.806 52.3025 158.628 52.1967C157.395 51.4645 156.289 50.9053 155.101 50.5341C155.838 49.4425 156.331 48.2845 156.645 47.2007C157.157 45.4291 157.238 43.6761 156.95 42.5519C156.894 42.3319 156.788 42.1281 156.639 41.9564Z" fill="#39AA5F"/>
<path fill-rule="evenodd" clip-rule="evenodd" d="M128.715 63.6989L128.706 63.7017L128.654 63.7366L128.638 63.7418L128.627 63.74L128.567 63.7189C128.559 63.7179 128.552 63.7203 128.549 63.7261L128.547 63.7344L128.577 64.0738L128.583 64.0891L128.592 64.0983L128.682 64.1461L128.694 64.1477L128.703 64.1433L128.778 64.0743L128.786 64.0604L128.787 64.0466L128.73 63.7114C128.727 63.7033 128.722 63.6991 128.715 63.6989ZM128.912 63.5826L128.901 63.5856L128.766 63.6779L128.759 63.6868L128.758 63.6958L128.816 64.0332L128.821 64.0422L128.828 64.0477L128.996 64.0996C129.006 64.101 129.014 64.0979 129.018 64.0904L129.02 64.0789L128.93 63.5979C128.926 63.5883 128.92 63.5832 128.912 63.5826ZM128.348 63.6575C128.344 63.6559 128.34 63.6557 128.336 63.6571C128.332 63.6585 128.329 63.6614 128.328 63.665L128.324 63.6767L128.36 64.1646C128.362 64.174 128.367 64.1797 128.376 64.1818L128.388 64.1787L128.537 64.0847L128.544 64.0774L128.545 64.0684L128.515 63.7273L128.512 63.7181L128.503 63.7112L128.348 63.6575Z" fill="#4DBE72"/>
<path fill-rule="evenodd" clip-rule="evenodd" d="M126.17 47.7765C126.047 47.7924 125.93 47.8365 125.828 47.9055C125.305 48.2575 124.702 48.9985 124.269 49.9029C123.978 50.5064 123.782 51.151 123.688 51.814C123.073 51.5354 122.42 51.361 121.655 51.2118C121.544 51.1903 121.43 51.1926 121.32 51.2186C121.21 51.2445 121.107 51.2934 121.018 51.3622C120.929 51.4309 120.855 51.5179 120.802 51.6173C120.748 51.7167 120.717 51.8263 120.709 51.9388C120.638 52.979 120.646 53.9985 120.948 54.9622C121.135 55.559 121.434 56.1148 121.829 56.5999C121.372 56.8326 120.947 57.1233 120.565 57.4646C120.428 57.5847 120.336 57.7483 120.304 57.9281C120.273 58.1078 120.305 58.2928 120.394 58.452C120.696 58.9944 121.354 59.534 122.483 59.9095C123.503 60.248 124.955 60.47 127.015 60.4302C127.016 60.4541 127.018 60.4782 127.021 60.5024L127.226 62.0804C127.253 62.2896 127.363 62.4795 127.53 62.6083C127.697 62.737 127.908 62.794 128.118 62.7668C128.327 62.7396 128.517 62.6304 128.646 62.4632C128.774 62.2961 128.831 62.0846 128.804 61.8753L128.599 60.2973C128.596 60.2734 128.592 60.2495 128.587 60.2259C130.588 59.7381 131.936 59.1521 132.834 58.5644C133.831 57.9125 134.328 57.2221 134.483 56.6211C134.528 56.4443 134.511 56.2573 134.435 56.0915C134.359 55.9257 134.228 55.7911 134.064 55.7103C133.607 55.478 133.122 55.3057 132.621 55.1975C132.881 54.6282 133.028 54.014 133.054 53.3889C133.101 52.3808 132.848 51.3923 132.513 50.4048C132.477 50.298 132.419 50.2001 132.342 50.1176C132.265 50.0351 132.171 49.97 132.067 49.9264C131.963 49.8829 131.851 49.862 131.738 49.8651C131.625 49.8682 131.514 49.8953 131.413 49.9445C130.711 50.2844 130.125 50.6188 129.601 51.0464C129.326 50.3849 128.949 49.8138 128.551 49.3464C127.901 48.5828 127.13 48.0203 126.533 47.8138C126.417 47.7733 126.292 47.7605 126.17 47.7765Z" fill="#4DBE72"/>
<path fill-rule="evenodd" clip-rule="evenodd" d="M119.699 86.8512L119.693 86.8433L119.644 86.8044L119.634 86.7914L119.632 86.78L119.634 86.7167C119.632 86.7081 119.628 86.7031 119.621 86.7015L119.612 86.7021L119.299 86.8371L119.287 86.8476L119.281 86.8593L119.264 86.9593L119.266 86.9715L119.273 86.9787L119.362 87.0279L119.377 87.031L119.391 87.028L119.691 86.8689C119.698 86.8633 119.701 86.8574 119.699 86.8512ZM119.871 87.0018L119.865 86.9924L119.735 86.8924L119.724 86.8887L119.715 86.8903L119.413 87.0511L119.406 87.0588L119.403 87.0673L119.406 87.2432C119.408 87.2534 119.413 87.2594 119.422 87.2612L119.433 87.2593L119.862 87.0237C119.87 87.0169 119.873 87.0096 119.871 87.0018ZM119.623 86.4895C119.624 86.4854 119.623 86.4813 119.62 86.4781C119.618 86.4749 119.614 86.4728 119.61 86.4722L119.598 86.4727L119.145 86.6595C119.137 86.6641 119.133 86.6709 119.134 86.68L119.141 86.69L119.277 86.8022L119.286 86.8067L119.295 86.805L119.609 86.67L119.617 86.6638L119.621 86.6531L119.623 86.4895Z" fill="#63C785"/>
<path fill-rule="evenodd" clip-rule="evenodd" d="M134.028 79.4565C133.974 79.3451 133.896 79.2478 133.798 79.1721C133.301 78.7852 132.408 78.4444 131.414 78.3152C130.75 78.2279 130.076 78.2434 129.417 78.3611C129.489 77.6894 129.451 77.0151 129.353 76.2412C129.339 76.1294 129.301 76.0218 129.243 75.9256C129.184 75.8295 129.105 75.747 129.012 75.6836C128.918 75.6201 128.813 75.5772 128.702 75.5578C128.591 75.5383 128.477 75.5426 128.367 75.5705C127.357 75.8281 126.391 76.1545 125.57 76.7423C125.062 77.1067 124.627 77.5644 124.29 78.0912C123.926 77.7299 123.517 77.4171 123.073 77.1604C122.916 77.0674 122.732 77.0312 122.552 77.0578C122.371 77.0844 122.205 77.1722 122.082 77.3066C121.661 77.7633 121.354 78.5564 121.35 79.7467C121.348 80.821 121.59 82.2698 122.272 84.2142C122.25 84.2226 122.227 84.2321 122.205 84.2426L120.771 84.9306C120.58 85.0218 120.434 85.1849 120.364 85.3839C120.294 85.583 120.306 85.8017 120.397 85.992C120.488 86.1822 120.652 86.3285 120.851 86.3985C121.05 86.4686 121.268 86.4566 121.459 86.3654L122.893 85.6774C122.915 85.667 122.937 85.6556 122.957 85.6433C124.046 87.3915 125.024 88.4888 125.863 89.1586C126.794 89.9017 127.605 90.1585 128.224 90.1176C128.407 90.1053 128.579 90.0309 128.713 89.9067C128.846 89.7825 128.933 89.6161 128.959 89.4354C129.037 88.9286 129.049 88.4139 128.995 87.904C129.617 87.9728 130.246 87.9206 130.848 87.7504C131.82 87.4793 132.68 86.9302 133.514 86.3038C133.604 86.236 133.679 86.1498 133.733 86.0509C133.787 85.952 133.82 85.8427 133.829 85.7303C133.837 85.6178 133.822 85.5048 133.784 85.3986C133.746 85.2925 133.686 85.1957 133.607 85.1146C133.065 84.5541 132.564 84.1024 131.994 83.7378C132.537 83.2703 132.961 82.7332 133.281 82.2093C133.803 81.3529 134.096 80.4446 134.106 79.8134C134.108 79.69 134.081 79.5678 134.028 79.4565Z" fill="#63C785"/>
<path fill-rule="evenodd" clip-rule="evenodd" d="M144.922 140.706L144.926 140.697L144.932 140.634L144.938 140.619L144.946 140.611L145.001 140.578C145.007 140.572 145.009 140.566 145.007 140.56L145.002 140.553L144.72 140.361L144.705 140.356L144.692 140.357L144.598 140.396L144.589 140.404L144.586 140.414L144.592 140.515L144.598 140.53L144.608 140.54L144.903 140.709C144.911 140.712 144.918 140.71 144.922 140.706ZM144.887 140.931L144.891 140.921L144.906 140.758L144.904 140.747L144.898 140.74L144.6 140.571L144.59 140.569L144.581 140.571L144.434 140.668C144.427 140.675 144.424 140.683 144.427 140.691L144.435 140.699L144.864 140.936C144.874 140.939 144.881 140.937 144.887 140.931ZM145.187 140.448C145.191 140.446 145.194 140.443 145.195 140.439C145.196 140.436 145.196 140.431 145.195 140.428L145.188 140.418L144.788 140.136C144.779 140.131 144.772 140.131 144.764 140.137L144.759 140.148L144.737 140.323L144.739 140.333L144.745 140.339L145.027 140.533L145.037 140.536L145.047 140.534L145.187 140.448Z" fill="#63C785"/>
<path fill-rule="evenodd" clip-rule="evenodd" d="M158.837 148.853C158.902 148.748 158.942 148.629 158.954 148.507C159.015 147.879 158.825 146.943 158.402 146.034C158.12 145.426 157.747 144.865 157.294 144.371C157.901 144.073 158.45 143.68 159.051 143.183C159.138 143.111 159.209 143.022 159.259 142.921C159.308 142.819 159.336 142.709 159.339 142.596C159.343 142.483 159.323 142.371 159.28 142.267C159.237 142.163 159.172 142.069 159.09 141.991C158.332 141.276 157.539 140.634 156.603 140.255C156.023 140.021 155.404 139.899 154.779 139.896C154.889 139.395 154.935 138.882 154.914 138.37C154.908 138.188 154.841 138.013 154.721 137.874C154.602 137.736 154.439 137.643 154.26 137.611C153.649 137.5 152.815 137.665 151.807 138.299C150.898 138.871 149.804 139.852 148.527 141.468C148.507 141.454 148.487 141.44 148.467 141.427L147.118 140.583C146.939 140.471 146.723 140.435 146.517 140.482C146.312 140.53 146.133 140.657 146.021 140.836C145.909 141.015 145.873 141.231 145.921 141.436C145.968 141.642 146.095 141.82 146.274 141.932L147.623 142.776C147.643 142.789 147.664 142.801 147.686 142.812C146.792 144.667 146.388 146.08 146.272 147.148C146.142 148.332 146.359 149.154 146.725 149.656C146.833 149.803 146.988 149.909 147.164 149.955C147.341 150.002 147.528 149.986 147.694 149.911C148.164 149.705 148.605 149.44 149.007 149.122C149.282 149.684 149.663 150.188 150.129 150.605C150.878 151.281 151.802 151.714 152.777 152.083C152.883 152.123 152.996 152.14 153.108 152.133C153.221 152.125 153.331 152.095 153.43 152.042C153.53 151.989 153.617 151.916 153.687 151.827C153.756 151.738 153.805 151.635 153.832 151.525C154.015 150.767 154.129 150.102 154.132 149.426C154.817 149.634 155.498 149.705 156.112 149.695C157.114 149.677 158.039 149.439 158.577 149.11C158.682 149.045 158.771 148.957 158.837 148.853Z" fill="#63C785"/>
<path fill-rule="evenodd" clip-rule="evenodd" d="M53.1908 66.0254L53.1878 66.0343L53.1858 66.095L53.1813 66.11L53.1735 66.118L53.1234 66.1531C53.1177 66.1593 53.1162 66.1655 53.1188 66.1715L53.1241 66.1778L53.4078 66.3443L53.4231 66.3481L53.4356 66.346L53.5233 66.3024L53.5315 66.2937L53.5331 66.2841L53.5206 66.1869L53.5141 66.173L53.5041 66.1641L53.2088 66.0211C53.2006 66.019 53.1946 66.0205 53.1908 66.0254ZM53.2098 65.8057L53.2061 65.8159L53.2025 65.9742L53.2056 65.9846L53.212 65.9906L53.5097 66.1341L53.5196 66.135L53.5279 66.1325L53.663 66.0297C53.6698 66.0223 53.6715 66.0148 53.6681 66.0071L53.66 65.9994L53.2319 65.8001C53.2222 65.7978 53.2148 65.7997 53.2098 65.8057ZM52.9524 66.2906C52.949 66.2927 52.9465 66.2959 52.9454 66.2997C52.9443 66.3035 52.9448 66.3076 52.9466 66.3111L52.954 66.3202L53.3574 66.5655C53.3658 66.5694 53.3733 66.5684 53.3799 66.5627L53.3839 66.5518L53.3937 66.382L53.3919 66.3723L53.3855 66.3663L53.1009 66.1985L53.0917 66.1962L53.0813 66.1993L52.9524 66.2906Z" fill="#39AA5F"/>
<path fill-rule="evenodd" clip-rule="evenodd" d="M39.2575 59.0951C39.2013 59.2001 39.1704 59.3168 39.1671 59.4359C39.1502 60.0442 39.3943 60.933 39.8614 61.7808C40.1725 62.3474 40.569 62.8626 41.0369 63.3085C40.4729 63.6357 39.97 64.0503 39.4235 64.5679C39.3445 64.6428 39.2824 64.7337 39.2412 64.8344C39.2 64.9351 39.1807 65.0435 39.1845 65.1522C39.1884 65.261 39.2153 65.3677 39.2636 65.4652C39.3118 65.5628 39.3802 65.649 39.4643 65.7181C40.2414 66.3573 41.0467 66.9226 41.9728 67.2261C42.5466 67.4138 43.1508 67.4906 43.7533 67.4525C43.6799 67.9419 43.6698 68.4387 43.7234 68.9306C43.7406 69.1058 43.8176 69.2698 43.9413 69.395C44.065 69.5203 44.228 69.5992 44.403 69.6186C44.9986 69.6853 45.7911 69.4716 46.7195 68.7951C47.5572 68.1841 48.546 67.1681 49.67 65.5278C49.6893 65.5404 49.7094 65.5523 49.7302 65.5634L51.0846 66.2873C51.2642 66.3833 51.4745 66.404 51.6694 66.3449C51.8643 66.2858 52.0277 66.1517 52.1237 65.9721C52.2197 65.7925 52.2404 65.5821 52.1813 65.3872C52.1222 65.1924 51.9881 65.0289 51.8085 64.933L50.4541 64.209C50.4335 64.198 50.4125 64.1879 50.391 64.1788C51.13 62.3336 51.4258 60.9463 51.4681 59.911C51.5151 58.7625 51.2519 57.9845 50.8666 57.526C50.7531 57.3913 50.5968 57.2997 50.4238 57.2666C50.2509 57.2334 50.0718 57.2607 49.9165 57.3439C49.4778 57.5726 49.0703 57.857 48.7042 58.1899C48.4027 57.6667 48.0029 57.2067 47.5267 56.8353C46.7609 56.2336 45.8428 55.8778 44.8796 55.5867C44.7753 55.5552 44.6656 55.5463 44.5577 55.5605C44.4497 55.5747 44.3461 55.6117 44.2535 55.669C44.1609 55.7263 44.0816 55.8027 44.0208 55.893C43.96 55.9833 43.9191 56.0855 43.9008 56.1928C43.7742 56.9348 43.7084 57.5823 43.7501 58.234C43.0766 58.0786 42.4163 58.0548 41.8261 58.105C40.8617 58.1877 39.9874 58.4779 39.4907 58.8305C39.3935 58.8994 39.3136 58.99 39.2575 59.0951Z" fill="#39AA5F"/>
<path d="M118.61 163.169C118.369 147.695 122.212 152.053 124.164 156.166C127.591 162.526 127.222 174.361 126.609 179.483C124.906 188.542 122.478 183.47 121.476 179.802C119.875 174.839 118.899 166.646 118.61 163.169Z" fill="#684536"/>
<path d="M121.049 165.973C120.816 155.638 123.46 158.565 124.812 161.32C127.18 165.583 126.98 173.486 126.584 176.904C125.46 182.946 123.78 179.549 123.08 177.094C121.964 173.773 121.261 168.296 121.049 165.973Z" fill="#885E49"/>
<path d="M114.596 151.641C114.717 148.546 116.028 150.966 116.668 152.563C117.804 155.2 117.514 157.34 117.227 158.08C116.5 159.135 115.703 157.157 115.395 156.037C114.891 154.419 114.653 152.432 114.596 151.641Z" fill="#5E3D30"/>
<path d="M81.3183 83.7389C80.6697 80.7105 82.5383 82.7311 83.5537 84.12C85.3063 86.3941 85.5548 88.5388 85.46 89.3268C85.0162 90.5293 83.7547 88.8102 83.1794 87.8003C82.291 86.3578 81.5685 84.4917 81.3183 83.7389Z" fill="#A27358"/>
<path d="M113.742 161.105C112.308 151.847 113.427 153.795 114.165 155.927C115.384 159.152 116.376 166.329 116.72 169.515C117.21 175.257 116.296 172.632 115.777 170.602C115.029 167.899 114.109 163.144 113.742 161.105Z" fill="#5E3D30"/>
<path d="M61.5 46.5L62.5 45.5L63.5 46.5L62.5 48L61.5 46.5Z" fill="#9D7052"/>
<circle cx="79.5" cy="75.5" r="1.5" fill="#94684E"/>
<ellipse cx="75" cy="60.5003" rx="2" ry="1.5" transform="rotate(50.0382 75 60.5003)" fill="#94684E"/>
<ellipse cx="118.576" cy="88.4971" rx="0.76308" ry="4.0351" transform="rotate(20.9637 118.576 88.4971)" fill="#8F644C"/>
<path d="M132.5 62.5L134.5 61L135.5 62L134.5 63.5L132.5 62.5Z" fill="#986C50"/>
<path d="M127.5 64L129 63L130 63.5L128.5 64.5L127.5 64Z" fill="#BAF2FF"/>
<path d="M94 112L93 110L93.5 108L96 110.5L94 112Z" fill="#865E46"/>
<circle cx="79" cy="96" r="1" fill="#39AA5F"/>
<circle cx="145" cy="140" r="1" fill="#C2F6FF"/>
<path d="M133.4 215C127.128 218.152 125.187 223.667 125 226.03L139 228C137.444 226.375 138.067 222.879 139 221.303C135.5 221.906 133.587 225.242 133.4 226.818C131.222 223.125 131.533 217.364 133.4 215Z" fill="#5ECF84"/>
<path d="M81.6273 219C86.4273 217.4 88.9606 214.333 89.6273 213L98.6272 217.5C97.0272 219.5 89.6272 221 86.1273 221.5C72.1273 221.9 77.2939 220 81.6273 219Z" fill="#624032"/>
<path d="M113.375 221.018C110.375 228.685 105.875 223.54 104 220.009L114 219L113.375 221.018Z" fill="#614032"/>
<path d="M102 220C98 225.774 92.3333 221.906 91 219.5L97.5 215L102 220Z" fill="#624032"/>
<path d="M89 216C91.4 218 92.3333 220.833 92.5 222L89 223C89.8 219.4 89.3333 216.833 89 216Z" fill="#5ECF84"/>
<path d="M121.4 210C115.128 213.394 113.187 219.333 113 221.879L127 224C125.444 222.25 126.067 218.485 127 216.788C123.5 217.438 121.587 221.03 121.4 222.727C119.222 218.75 119.533 212.545 121.4 210Z" fill="#5ECF84"/>
<path d="M101 215C103.4 217 104.333 219.833 104.5 221L101 222C101.8 218.4 101.333 215.833 101 215Z" fill="#5ECF84"/>
<defs>
<linearGradient id="paint0_linear_585_356" x1="99.0275" y1="44.4023" x2="99.0275" y2="223" gradientUnits="userSpaceOnUse">
<stop stop-color="#9F7154"/>
<stop offset="1" stop-color="#5E3D30"/>
</linearGradient>
</defs>
</svg>
