<svg width="312" height="390" viewBox="0 0 312 390" fill="none" xmlns="http://www.w3.org/2000/svg">
<ellipse cx="153.5" cy="360.5" rx="106.5" ry="28.5" fill="#17893D"/>
<path d="M47 361.045V351H53.5L54 364L47 361.045Z" fill="#17893D"/>
<path d="M260 360.737V350L256.571 351.263L256 362L260 360.737Z" fill="#17893D"/>
<ellipse cx="153.5" cy="350.5" rx="106.5" ry="26.5" fill="#5ECF84"/>
<path fill-rule="evenodd" clip-rule="evenodd" d="M88.6989 337.091L88.7042 337.098L88.749 337.127L88.7582 337.137L88.7606 337.147L88.7641 337.201C88.7662 337.208 88.7701 337.212 88.7758 337.213L88.783 337.212L89.0384 337.074L89.0483 337.065L89.0525 337.054L89.0599 336.968L89.057 336.958L89.0506 336.953L88.9717 336.917L88.9583 336.916L88.947 336.919L88.7039 337.076C88.6986 337.081 88.6969 337.086 88.6989 337.091ZM88.5423 336.976L88.5483 336.984L88.6657 337.059L88.675 337.062L88.6824 337.06L88.9269 336.901L88.9322 336.894L88.9341 336.887L88.9187 336.738C88.9163 336.73 88.9114 336.725 88.9041 336.724L88.8945 336.726L88.5482 336.957C88.542 336.963 88.54 336.97 88.5423 336.976ZM88.7891 337.393C88.7891 337.396 88.7904 337.399 88.7928 337.402C88.7951 337.405 88.7984 337.406 88.8019 337.406L88.8121 337.405L89.1818 337.214C89.1885 337.209 89.1913 337.203 89.1899 337.196L89.1836 337.188L89.0603 337.102L89.0522 337.099L89.0448 337.101L88.7879 337.239L88.7819 337.244L88.7795 337.254L88.7891 337.393Z" fill="#C01700"/>
<path fill-rule="evenodd" clip-rule="evenodd" d="M77.0926 344.399C77.1459 344.489 77.2196 344.566 77.3077 344.623C77.7577 344.915 78.5386 345.139 79.3909 345.176C79.9599 345.202 80.5296 345.14 81.0798 344.992C81.0672 345.567 81.1486 346.135 81.2875 346.784C81.3076 346.878 81.3475 346.966 81.4044 347.043C81.4613 347.121 81.534 347.185 81.6176 347.232C81.7012 347.279 81.7939 347.307 81.8894 347.316C81.985 347.324 82.0812 347.312 82.1718 347.281C83.0093 346.989 83.8041 346.642 84.4573 346.085C84.8617 345.739 85.1967 345.32 85.4444 344.849C85.779 345.128 86.1482 345.364 86.543 345.549C86.6828 345.617 86.8414 345.634 86.9925 345.598C87.1435 345.563 87.2777 345.476 87.3725 345.353C87.6959 344.936 87.8985 344.241 87.8152 343.232C87.7396 342.322 87.4286 341.111 86.7097 339.513C86.7281 339.504 86.7463 339.495 86.7642 339.484L87.9302 338.797C88.0848 338.706 88.1969 338.557 88.2418 338.383C88.2867 338.209 88.2607 338.025 88.1696 337.87C88.0785 337.716 87.9296 337.604 87.7559 337.559C87.5821 337.514 87.3976 337.54 87.243 337.631L86.0769 338.318C86.0592 338.329 86.042 338.34 86.0253 338.352C84.9756 336.949 84.0672 336.09 83.3075 335.584C82.4647 335.021 81.7585 334.863 81.2367 334.942C81.0833 334.966 80.9427 335.042 80.8384 335.156C80.7341 335.271 80.6725 335.419 80.6639 335.574C80.6348 336.009 80.6619 336.446 80.7445 336.874C80.2125 336.861 79.6829 336.951 79.185 337.139C78.3809 337.439 77.6919 337.967 77.0311 338.558C76.9596 338.622 76.9026 338.701 76.8637 338.789C76.8249 338.876 76.8052 338.971 76.8059 339.067C76.8066 339.163 76.8276 339.258 76.8677 339.345C76.9078 339.432 76.9659 339.51 77.0383 339.573C77.5386 340.009 77.9957 340.355 78.5053 340.623C78.0794 341.058 77.7587 341.544 77.5258 342.011C77.1456 342.775 76.9629 343.566 77.0005 344.102C77.0078 344.207 77.0393 344.308 77.0926 344.399Z" fill="#C01700"/>
<path d="M160 347.454C139.794 378.433 137.065 358.907 138.227 345.272L150.42 336L160 347.454Z" fill="#404046"/>
<path d="M180 347.476C180 370.158 170 356.927 165 347.476L173 336L180 347.476Z" fill="#404046"/>
<path d="M168.5 353C163.7 346.2 158.167 350.166 156 353L158 339.5L169.5 342L168.5 353Z" fill="#404046"/>
<path d="M138.5 354.5C139.3 348.9 134.5 350.167 132 351.5L136.5 344.5L143.5 345L138.5 354.5Z" fill="#404046"/>
<path d="M182.5 353C180.5 350.6 179.667 352.333 179.5 353.5L177 346.5L182.5 346V353Z" fill="#404046"/>
<circle cx="72" cy="328" r="1" fill="#CBFAFE"/>
<path d="M213 322C208.52 324.182 207.133 328 207 329.636L217 331C215.889 329.875 216.333 327.455 217 326.364C214.5 326.781 213.133 329.091 213 330.182C211.444 327.625 211.667 323.636 213 322Z" fill="#5ECF84"/>
<path d="M189 350C184.52 352.182 183.133 356 183 357.636L193 359C191.889 357.875 192.333 355.455 193 354.364C190.5 354.781 189.133 357.091 189 358.182C187.444 355.625 187.667 351.636 189 350Z" fill="#5ECF84"/>
<path d="M241.4 331C237.368 332.939 236.12 336.333 236 337.788L245 339C244 338 244.4 335.848 245 334.879C242.75 335.25 241.52 337.303 241.4 338.273C240 336 240.2 332.455 241.4 331Z" fill="#5ECF84"/>
<path d="M108 321.5C110.4 323.5 111.333 326.333 111.5 327.5L108 328.5C108.8 324.9 108.333 322.333 108 321.5Z" fill="#5ECF84"/>
<path d="M105 323C107.4 325 108.333 327.833 108.5 329L105 330C105.8 326.4 105.333 323.833 105 323Z" fill="#5ECF84"/>
<path d="M167.695 348.731C169.672 351.15 170.052 354.109 169.995 355.286L166.368 355.605C167.836 352.221 167.864 349.613 167.695 348.731Z" fill="#5ECF84"/>
<path d="M125 350C127.4 352 128.333 354.833 128.5 356L125 357C125.8 353.4 125.333 350.833 125 350Z" fill="#5ECF84"/>
<path d="M122 351.5C124.4 353.5 125.333 356.333 125.5 357.5L122 358.5C122.8 354.9 122.333 352.333 122 351.5Z" fill="#5ECF84"/>
<path d="M133 345C135.4 347 136.333 349.833 136.5 351L133 352C133.8 348.4 133.333 345.833 133 345Z" fill="#5ECF84"/>
<path d="M82 327C84.4 329 85.3333 331.833 85.5 333L82 334C82.8 330.4 82.3333 327.833 82 327Z" fill="#5ECF84"/>
<ellipse cx="153.5" cy="360.5" rx="106.5" ry="28.5" fill="#17893D"/>
<path d="M47 361.045V351H53.5L54 364L47 361.045Z" fill="#17893D"/>
<path d="M260 360.737V350L256.571 351.263L256 362L260 360.737Z" fill="#17893D"/>
<ellipse cx="153.5" cy="350.5" rx="106.5" ry="26.5" fill="#5ECF84"/>
<path d="M213 322C208.52 324.182 207.133 328 207 329.636L217 331C215.889 329.875 216.333 327.455 217 326.364C214.5 326.781 213.133 329.091 213 330.182C211.444 327.625 211.667 323.636 213 322Z" fill="#5ECF84"/>
<path d="M189 351C184.52 353.182 183.133 357 183 358.636L193 360C191.889 358.875 192.333 356.455 193 355.364C190.5 355.781 189.133 358.091 189 359.182C187.444 356.625 187.667 352.636 189 351Z" fill="#5ECF84"/>
<path d="M241.4 331C237.368 332.939 236.12 336.333 236 337.788L245 339C244 338 244.4 335.848 245 334.879C242.75 335.25 241.52 337.303 241.4 338.273C240 336 240.2 332.455 241.4 331Z" fill="#5ECF84"/>
<path d="M108 321.5C110.4 323.5 111.333 326.333 111.5 327.5L108 328.5C108.8 324.9 108.333 322.333 108 321.5Z" fill="#5ECF84"/>
<path d="M105 323C107.4 325 108.333 327.833 108.5 329L105 330C105.8 326.4 105.333 323.833 105 323Z" fill="#5ECF84"/>
<path d="M167.695 348.732C169.673 351.151 170.052 354.11 169.995 355.287L166.369 355.606C167.836 352.222 167.864 349.614 167.695 348.732Z" fill="#5ECF84"/>
<path d="M125 350C127.4 352 128.333 354.833 128.5 356L125 357C125.8 353.4 125.333 350.833 125 350Z" fill="#5ECF84"/>
<path d="M122 351.5C124.4 353.5 125.333 356.333 125.5 357.5L122 358.5C122.8 354.9 122.333 352.333 122 351.5Z" fill="#5ECF84"/>
<path d="M133 345C135.4 347 136.333 349.833 136.5 351L133 352C133.8 348.4 133.333 345.833 133 345Z" fill="#5ECF84"/>
<path d="M82 327C84.4 329 85.3333 331.833 85.5 333L82 334C82.8 330.4 82.3333 327.833 82 327Z" fill="#5ECF84"/>
<ellipse cx="112.5" cy="158.5" rx="39.5" ry="31.5" fill="#4DBE72"/>
<path fill-rule="evenodd" clip-rule="evenodd" d="M134 339.501C137.667 329.834 145.3 303.801 146.5 277.001C147 264.501 145.2 235.101 134 217.501C113.667 183.334 85.1999 130.801 134 194.001C139.883 199.55 146.759 207.807 153.045 218.837C156.639 208.982 163.625 198.064 175.115 185.167C179.792 180.898 187.29 175.281 179.871 186.959C173.199 194.261 162.83 210.336 158.92 230.444C165.627 245.445 170.828 264.263 172 287C172 288.55 171.991 290.151 171.982 291.79C171.877 310.783 171.744 334.9 185 343L134 339.501Z" fill="url(#paint0_linear_591_539)"/>
<path fill-rule="evenodd" clip-rule="evenodd" d="M122.763 180.261L122.746 180.259L122.632 180.282L122.602 180.28L122.584 180.269L122.497 180.191C122.483 180.183 122.471 180.183 122.461 180.19L122.452 180.203L122.265 180.801L122.265 180.831L122.274 180.853L122.392 180.997L122.412 181.009L122.431 181.008L122.606 180.943L122.629 180.925L122.641 180.902L122.779 180.292C122.779 180.276 122.774 180.266 122.763 180.261ZM123.179 180.202L123.159 180.199L122.863 180.261L122.845 180.271L122.837 180.285L122.699 180.9L122.702 180.918L122.71 180.933L122.959 181.139C122.975 181.149 122.99 181.149 123.003 181.139L123.014 181.121L123.199 180.24C123.199 180.221 123.192 180.208 123.179 180.202ZM122.168 179.933C122.163 179.927 122.156 179.924 122.148 179.924C122.141 179.924 122.134 179.926 122.128 179.931L122.114 179.949L121.833 180.803C121.829 180.82 121.834 180.834 121.848 180.843L121.87 180.846L122.189 180.791L122.206 180.784L122.215 180.769L122.403 180.169L122.404 180.151L122.393 180.133L122.168 179.933Z" fill="#48B56D"/>
<path fill-rule="evenodd" clip-rule="evenodd" d="M129.62 151.419C129.4 151.36 129.17 151.353 128.948 151.398C127.812 151.629 126.268 152.465 124.896 153.697C123.979 154.518 123.193 155.476 122.567 156.536C121.717 155.631 120.731 154.876 119.535 154.085C119.362 153.971 119.167 153.895 118.962 153.862C118.757 153.829 118.548 153.839 118.348 153.893C118.148 153.948 117.961 154.043 117.801 154.175C117.641 154.307 117.51 154.471 117.418 154.656C116.567 156.374 115.865 158.112 115.701 159.961C115.6 161.107 115.718 162.261 116.048 163.363C115.108 163.438 114.182 163.633 113.292 163.944C112.975 164.052 112.703 164.265 112.524 164.549C112.345 164.832 112.269 165.169 112.308 165.502C112.441 166.636 113.179 168.014 114.835 169.446C116.33 170.737 118.641 172.134 122.169 173.513C122.154 173.554 122.141 173.597 122.129 173.64L121.369 176.465C121.269 176.84 121.321 177.239 121.514 177.575C121.708 177.912 122.027 178.157 122.402 178.258C122.777 178.359 123.176 178.306 123.512 178.113C123.848 177.919 124.094 177.6 124.195 177.225L124.954 174.4C124.966 174.357 124.976 174.314 124.983 174.27C128.726 174.846 131.428 174.797 133.367 174.429C135.519 174.022 136.849 173.198 137.534 172.285C137.735 172.017 137.837 171.687 137.824 171.352C137.811 171.017 137.684 170.696 137.462 170.444C136.849 169.728 136.145 169.095 135.37 168.559C136.211 167.774 136.892 166.834 137.376 165.79C138.163 164.11 138.427 162.253 138.553 160.34C138.566 160.133 138.535 159.925 138.462 159.731C138.39 159.537 138.276 159.361 138.13 159.213C137.984 159.066 137.808 158.952 137.614 158.878C137.42 158.804 137.213 158.772 137.006 158.785C135.575 158.869 134.345 159.026 133.153 159.385C133.151 158.068 132.911 156.832 132.564 155.759C131.995 154.005 131.079 152.507 130.211 151.738C130.041 151.587 129.839 151.478 129.62 151.419Z" fill="#48B56D"/>
<path fill-rule="evenodd" clip-rule="evenodd" d="M140.785 230.086L140.78 230.103L140.78 230.219L140.772 230.248L140.758 230.264L140.665 230.334C140.655 230.346 140.652 230.358 140.658 230.369L140.668 230.381L141.219 230.679L141.249 230.685L141.272 230.68L141.437 230.592L141.451 230.574L141.454 230.556L141.424 230.372L141.41 230.346L141.391 230.33L140.819 230.077C140.803 230.074 140.792 230.077 140.785 230.086ZM140.807 229.667L140.8 229.686L140.804 229.988L140.81 230.008L140.823 230.019L141.399 230.272L141.418 230.273L141.434 230.268L141.684 230.063C141.697 230.048 141.7 230.034 141.692 230.02L141.677 230.005L140.848 229.655C140.83 229.651 140.816 229.655 140.807 229.667ZM140.349 230.607C140.342 230.611 140.338 230.618 140.336 230.625C140.334 230.632 140.335 230.64 140.339 230.647L140.354 230.663L141.138 231.103C141.155 231.11 141.169 231.108 141.181 231.097L141.188 231.076L141.195 230.752L141.191 230.733L141.179 230.722L140.625 230.422L140.608 230.418L140.588 230.425L140.349 230.607Z" fill="#39AA5F"/>
<path fill-rule="evenodd" clip-rule="evenodd" d="M113.795 217.822C113.695 218.026 113.644 218.25 113.646 218.477C113.654 219.636 114.178 221.312 115.124 222.895C115.754 223.953 116.544 224.908 117.464 225.725C116.412 226.386 115.482 227.209 114.476 228.231C114.331 228.379 114.219 228.556 114.147 228.75C114.075 228.945 114.046 229.152 114.061 229.359C114.075 229.566 114.134 229.767 114.232 229.95C114.33 230.132 114.466 230.292 114.631 230.418C116.153 231.583 117.724 232.605 119.508 233.121C120.613 233.44 121.768 233.546 122.913 233.434C122.805 234.37 122.819 235.317 122.954 236.25C122.999 236.582 123.156 236.889 123.4 237.119C123.644 237.35 123.96 237.489 124.294 237.514C125.433 237.601 126.927 237.142 128.649 235.792C130.203 234.572 132.018 232.572 134.049 229.374C134.086 229.397 134.125 229.418 134.166 229.438L136.793 230.726C137.141 230.897 137.543 230.922 137.91 230.796C138.277 230.671 138.579 230.405 138.75 230.056C138.921 229.708 138.946 229.306 138.821 228.939C138.695 228.572 138.429 228.27 138.08 228.099L135.454 226.811C135.414 226.791 135.373 226.774 135.331 226.758C136.615 223.195 137.086 220.534 137.097 218.56C137.11 216.371 136.557 214.907 135.793 214.06C135.568 213.811 135.264 213.647 134.932 213.595C134.601 213.544 134.262 213.608 133.972 213.776C133.152 214.241 132.395 214.81 131.72 215.468C131.111 214.492 130.319 213.643 129.388 212.968C127.89 211.873 126.118 211.257 124.265 210.767C124.064 210.714 123.855 210.705 123.65 210.739C123.445 210.773 123.251 210.85 123.078 210.966C122.906 211.081 122.76 211.232 122.65 211.408C122.54 211.584 122.469 211.781 122.442 211.986C122.25 213.408 122.168 214.645 122.291 215.883C120.998 215.632 119.74 215.631 118.619 215.766C116.789 215.987 115.143 216.598 114.221 217.303C114.041 217.44 113.895 217.618 113.795 217.822Z" fill="#39AA5F"/>
<path fill-rule="evenodd" clip-rule="evenodd" d="M116.959 224.411L116.962 224.418L116.993 224.459L116.998 224.471L116.998 224.481L116.984 224.53C116.984 224.537 116.986 224.542 116.991 224.545L116.998 224.546L117.272 224.501L117.284 224.495L117.291 224.487L117.324 224.412L117.325 224.402L117.321 224.395L117.26 224.338L117.249 224.333L117.237 224.332L116.968 224.399C116.962 224.402 116.959 224.406 116.959 224.411ZM116.853 224.258L116.856 224.267L116.939 224.372L116.947 224.377L116.954 224.377L117.225 224.31L117.232 224.305L117.236 224.299L117.268 224.159C117.268 224.151 117.265 224.145 117.259 224.142L117.25 224.141L116.864 224.243C116.857 224.246 116.853 224.252 116.853 224.258ZM116.947 224.712C116.946 224.715 116.946 224.719 116.947 224.722C116.949 224.725 116.951 224.727 116.954 224.728L116.964 224.73L117.358 224.672C117.366 224.67 117.37 224.665 117.371 224.658L117.368 224.649L117.283 224.533L117.277 224.528L117.269 224.528L116.994 224.572L116.987 224.575L116.982 224.583L116.947 224.712Z" fill="#39AA5F"/>
<path fill-rule="evenodd" clip-rule="evenodd" d="M104.171 227.423C104.191 227.522 104.234 227.614 104.296 227.693C104.613 228.097 105.251 228.543 106.011 228.842C106.519 229.042 107.054 229.163 107.599 229.201C107.409 229.717 107.306 230.258 107.23 230.889C107.219 230.98 107.227 231.072 107.255 231.16C107.283 231.248 107.329 231.329 107.39 231.397C107.451 231.466 107.526 231.52 107.61 231.558C107.694 231.595 107.785 231.614 107.877 231.614C108.726 231.61 109.554 231.543 110.319 231.241C110.793 231.053 111.227 230.777 111.598 230.428C111.814 230.785 112.076 231.113 112.376 231.404C112.481 231.508 112.62 231.573 112.768 231.588C112.916 231.603 113.064 231.566 113.188 231.484C113.611 231.206 114.011 230.64 114.249 229.7C114.464 228.851 114.558 227.658 114.404 225.986C114.423 225.984 114.442 225.981 114.462 225.977L115.732 225.717C115.9 225.683 116.048 225.583 116.143 225.439C116.238 225.296 116.272 225.12 116.237 224.952C116.203 224.783 116.103 224.636 115.959 224.541C115.816 224.446 115.64 224.412 115.472 224.447L114.202 224.707C114.182 224.711 114.163 224.716 114.144 224.721C113.629 223.124 113.073 222.064 112.543 221.368C111.954 220.597 111.363 220.233 110.866 220.143C110.719 220.117 110.568 220.142 110.438 220.213C110.308 220.285 110.206 220.4 110.15 220.537C109.989 220.923 109.877 221.327 109.819 221.741C109.341 221.563 108.833 221.48 108.324 221.496C107.502 221.518 106.713 221.782 105.931 222.112C105.846 222.148 105.77 222.201 105.707 222.269C105.645 222.336 105.598 222.416 105.568 222.503C105.539 222.59 105.529 222.683 105.538 222.774C105.547 222.866 105.576 222.954 105.622 223.034C105.94 223.584 106.246 224.04 106.625 224.441C106.103 224.703 105.662 225.044 105.305 225.395C104.723 225.969 104.312 226.629 104.179 227.125C104.153 227.223 104.15 227.325 104.171 227.423Z" fill="#39AA5F"/>
<path fill-rule="evenodd" clip-rule="evenodd" d="M125.722 215.285L125.719 215.294L125.719 215.353L125.716 215.368L125.708 215.376L125.661 215.411C125.656 215.418 125.654 215.424 125.657 215.429L125.662 215.435L125.943 215.587L125.959 215.591L125.97 215.588L126.054 215.543L126.062 215.534L126.063 215.525L126.048 215.431L126.041 215.417L126.031 215.409L125.739 215.28C125.731 215.279 125.725 215.28 125.722 215.285ZM125.733 215.071L125.73 215.081L125.731 215.235L125.735 215.245L125.741 215.251L126.035 215.38L126.045 215.38L126.053 215.378L126.181 215.273C126.187 215.266 126.188 215.258 126.185 215.251L126.177 215.244L125.754 215.065C125.745 215.063 125.737 215.065 125.733 215.071ZM125.499 215.551C125.496 215.553 125.494 215.556 125.493 215.56C125.492 215.564 125.493 215.568 125.495 215.571L125.502 215.579L125.902 215.804C125.91 215.807 125.918 215.806 125.924 215.8L125.927 215.79L125.931 215.624L125.929 215.615L125.923 215.61L125.64 215.456L125.631 215.454L125.621 215.458L125.499 215.551Z" fill="#4DBE72"/>
<path fill-rule="evenodd" clip-rule="evenodd" d="M111.956 209.03C111.905 209.134 111.879 209.248 111.88 209.364C111.884 209.955 112.151 210.81 112.634 211.617C112.955 212.157 113.358 212.644 113.827 213.061C113.291 213.397 112.816 213.817 112.303 214.338C112.229 214.414 112.172 214.504 112.135 214.603C112.099 214.703 112.084 214.809 112.091 214.914C112.099 215.019 112.128 215.122 112.179 215.215C112.229 215.308 112.298 215.39 112.382 215.454C113.159 216.048 113.96 216.57 114.869 216.833C115.433 216.996 116.022 217.05 116.606 216.992C116.551 217.47 116.559 217.953 116.627 218.429C116.65 218.598 116.73 218.755 116.855 218.872C116.979 218.99 117.14 219.061 117.311 219.073C117.891 219.118 118.654 218.883 119.532 218.195C120.325 217.573 121.25 216.553 122.286 214.922C122.305 214.933 122.325 214.944 122.346 214.954L123.686 215.611C123.863 215.698 124.068 215.711 124.256 215.647C124.443 215.583 124.597 215.447 124.684 215.27C124.771 215.092 124.784 214.887 124.72 214.7C124.656 214.512 124.52 214.358 124.342 214.271L123.003 213.614C122.982 213.604 122.962 213.595 122.94 213.587C123.595 211.77 123.835 210.413 123.841 209.406C123.847 208.289 123.565 207.543 123.176 207.111C123.061 206.984 122.906 206.9 122.737 206.874C122.568 206.847 122.395 206.88 122.247 206.966C121.829 207.203 121.443 207.493 121.098 207.829C120.788 207.331 120.384 206.898 119.909 206.554C119.145 205.995 118.241 205.681 117.296 205.431C117.193 205.404 117.087 205.399 116.982 205.417C116.878 205.434 116.779 205.474 116.691 205.532C116.603 205.591 116.528 205.668 116.472 205.758C116.416 205.848 116.38 205.948 116.366 206.053C116.268 206.778 116.226 207.409 116.289 208.04C115.63 207.912 114.988 207.912 114.416 207.981C113.483 208.094 112.644 208.405 112.173 208.765C112.081 208.835 112.007 208.926 111.956 209.03Z" fill="#4DBE72"/>
<path fill-rule="evenodd" clip-rule="evenodd" d="M109.8 166.388L109.791 166.399L109.76 166.483L109.746 166.502L109.732 166.51L109.645 166.536C109.634 166.542 109.629 166.55 109.629 166.559L109.634 166.571L109.954 166.939L109.974 166.952L109.993 166.955L110.137 166.935L110.152 166.927L110.159 166.914L110.188 166.771L110.185 166.749L110.175 166.731L109.827 166.39C109.817 166.384 109.808 166.383 109.8 166.388ZM109.931 166.088L109.921 166.1L109.841 166.321L109.84 166.337L109.846 166.349L110.197 166.692L110.211 166.698L110.224 166.698L110.462 166.618C110.476 166.61 110.482 166.601 110.48 166.588L110.473 166.573L109.964 166.09C109.952 166.082 109.941 166.082 109.931 166.088ZM109.339 166.648C109.333 166.649 109.328 166.653 109.325 166.658C109.321 166.663 109.32 166.669 109.321 166.674L109.327 166.691L109.779 167.227C109.789 167.236 109.8 167.239 109.812 167.234L109.822 167.22L109.917 166.986L109.919 166.971L109.913 166.96L109.591 166.589L109.579 166.581L109.563 166.581L109.339 166.648Z" fill="#48B56D"/>
<path fill-rule="evenodd" clip-rule="evenodd" d="M93.4711 150.035C93.3423 150.157 93.2435 150.306 93.1825 150.472C92.8706 151.32 92.7932 152.687 93.0492 154.101C93.2187 155.046 93.5327 155.959 93.9802 156.808C93.0314 157.002 92.1272 157.347 91.1128 157.817C90.9662 157.885 90.8358 157.983 90.7301 158.106C90.6244 158.228 90.5459 158.371 90.4998 158.526C90.4538 158.681 90.4411 158.844 90.4628 159.004C90.4845 159.164 90.54 159.318 90.6255 159.455C91.4167 160.723 92.2824 161.9 93.4421 162.766C94.1608 163.301 94.9749 163.696 95.8409 163.927C95.5058 164.581 95.2564 165.276 95.0988 165.994C95.0401 166.248 95.0707 166.516 95.1855 166.751C95.3003 166.985 95.4924 167.174 95.7295 167.284C96.5362 167.66 97.7528 167.734 99.38 167.222C100.848 166.759 102.721 165.797 105.08 164.02C105.101 164.047 105.124 164.074 105.148 164.099L106.711 165.76C106.919 165.98 107.205 166.108 107.507 166.118C107.81 166.127 108.103 166.015 108.323 165.808C108.543 165.601 108.672 165.314 108.681 165.012C108.69 164.71 108.579 164.416 108.372 164.196L106.808 162.536C106.785 162.51 106.76 162.486 106.734 162.463C108.648 160.216 109.721 158.404 110.271 156.967C110.881 155.372 110.879 154.153 110.554 153.325C110.458 153.082 110.281 152.879 110.054 152.75C109.826 152.621 109.561 152.575 109.303 152.619C108.577 152.733 107.869 152.94 107.196 153.235C107.019 152.356 106.674 151.519 106.18 150.771C105.387 149.561 104.264 148.626 103.046 147.76C102.914 147.666 102.764 147.602 102.605 147.571C102.446 147.539 102.283 147.542 102.126 147.579C101.968 147.616 101.82 147.686 101.692 147.784C101.564 147.883 101.458 148.007 101.381 148.149C100.851 149.134 100.452 150.014 100.202 150.951C99.3278 150.413 98.4098 150.067 97.5553 149.858C96.1587 149.518 94.7908 149.512 93.9246 149.773C93.7552 149.824 93.5999 149.914 93.4711 150.035Z" fill="#48B56D"/>
<path fill-rule="evenodd" clip-rule="evenodd" d="M91.7999 154.388L91.7915 154.399L91.7599 154.483L91.7464 154.502L91.7317 154.51L91.6446 154.536C91.6336 154.542 91.6286 154.55 91.6293 154.559L91.6338 154.571L91.9543 154.939L91.9741 154.952L91.9925 154.955L92.1367 154.935L92.1523 154.927L92.1591 154.914L92.1876 154.771L92.1851 154.749L92.1751 154.731L91.8272 154.39C91.8167 154.384 91.8075 154.383 91.7999 154.388ZM91.9307 154.088L91.9206 154.1L91.8406 154.321L91.8401 154.337L91.8462 154.349L92.1973 154.692L92.2108 154.698L92.2237 154.698L92.4625 154.618C92.4756 154.61 92.4816 154.601 92.4803 154.588L92.4727 154.573L91.9645 154.09C91.9518 154.082 91.9406 154.082 91.9307 154.088ZM91.3387 154.648C91.3329 154.649 91.3279 154.653 91.3246 154.658C91.3213 154.663 91.32 154.669 91.321 154.674L91.3269 154.691L91.7787 155.227C91.7886 155.236 91.7996 155.239 91.8116 155.234L91.8224 155.22L91.9166 154.986L91.9187 154.971L91.9125 154.96L91.5913 154.589L91.5795 154.581L91.5634 154.581L91.3387 154.648Z" fill="#48B56D"/>
<path fill-rule="evenodd" clip-rule="evenodd" d="M75.4711 138.035C75.3423 138.157 75.2435 138.306 75.1825 138.472C74.8706 139.32 74.7932 140.687 75.0492 142.101C75.2187 143.046 75.5327 143.959 75.9802 144.808C75.0314 145.002 74.1272 145.347 73.1128 145.817C72.9662 145.885 72.8358 145.983 72.7301 146.106C72.6244 146.228 72.5459 146.371 72.4998 146.526C72.4538 146.681 72.4411 146.844 72.4628 147.004C72.4845 147.164 72.54 147.318 72.6255 147.455C73.4167 148.723 74.2824 149.9 75.4421 150.766C76.1608 151.301 76.9749 151.696 77.8409 151.927C77.5058 152.581 77.2564 153.276 77.0988 153.994C77.0401 154.248 77.0707 154.516 77.1855 154.751C77.3003 154.985 77.4924 155.174 77.7295 155.284C78.5362 155.66 79.7528 155.734 81.38 155.222C82.8483 154.759 84.7213 153.797 87.0801 152.02C87.1014 152.047 87.124 152.074 87.1479 152.099L88.7114 153.76C88.9187 153.98 89.205 154.108 89.5073 154.118C89.8095 154.127 90.1031 154.015 90.3232 153.808C90.5434 153.601 90.6722 153.314 90.6813 153.012C90.6904 152.71 90.579 152.416 90.3717 152.196L88.8083 150.536C88.7846 150.51 88.7597 150.486 88.7338 150.463C90.6478 148.216 91.7211 146.404 92.2709 144.967C92.8811 143.372 92.879 142.153 92.5538 141.325C92.4579 141.082 92.2813 140.879 92.0536 140.75C91.8258 140.621 91.5608 140.575 91.3029 140.619C90.577 140.733 89.8689 140.94 89.1959 141.235C89.0194 140.356 88.6745 139.519 88.1802 138.771C87.3873 137.561 86.2635 136.626 85.0457 135.76C84.9139 135.666 84.7636 135.602 84.605 135.571C84.4464 135.539 84.2829 135.542 84.1255 135.579C83.9681 135.616 83.8203 135.686 83.692 135.784C83.5636 135.883 83.4577 136.007 83.3811 136.149C82.8514 137.134 82.4522 138.014 82.2022 138.951C81.3278 138.413 80.4098 138.067 79.5553 137.858C78.1587 137.518 76.7908 137.512 75.9246 137.773C75.7552 137.824 75.5999 137.914 75.4711 138.035Z" fill="#48B56D"/>
<path fill-rule="evenodd" clip-rule="evenodd" d="M97.4859 138.748L97.4783 138.753L97.4391 138.794L97.4266 138.802L97.4161 138.802L97.3593 138.796C97.3514 138.797 97.3465 138.8 97.3446 138.806L97.3444 138.813L97.4388 139.106L97.4471 139.119L97.4571 139.125L97.5456 139.149L97.5567 139.148L97.5638 139.142L97.6157 139.067L97.6198 139.053L97.6183 139.041L97.5011 138.757C97.4967 138.75 97.4916 138.747 97.4859 138.748ZM97.6361 138.607L97.6271 138.612L97.526 138.72L97.5217 138.729L97.5224 138.737L97.641 139.023L97.6473 139.03L97.6547 139.033L97.8131 139.046C97.8224 139.045 97.8283 139.041 97.8306 139.033L97.8299 139.023L97.655 138.617C97.6496 138.609 97.6433 138.606 97.6361 138.607ZM97.1541 138.785C97.1505 138.784 97.1467 138.785 97.1436 138.787C97.1405 138.789 97.1383 138.792 97.1374 138.796L97.1368 138.807L97.2658 139.23C97.2692 139.237 97.275 139.241 97.2832 139.242L97.2929 139.236L97.4055 139.124L97.4102 139.116L97.4095 139.108L97.3153 138.813L97.3103 138.806L97.3011 138.802L97.1541 138.785Z" fill="#48B56D"/>
<path fill-rule="evenodd" clip-rule="evenodd" d="M92.0721 125.227C91.9674 125.265 91.8731 125.328 91.7966 125.409C91.4058 125.823 91.0226 126.596 90.8206 127.479C90.6849 128.069 90.6408 128.676 90.6898 129.278C90.0921 129.156 89.4825 129.132 88.7783 129.153C88.6765 129.156 88.5765 129.181 88.485 129.225C88.3935 129.27 88.3125 129.334 88.2474 129.412C88.1823 129.491 88.1347 129.582 88.1076 129.68C88.0805 129.778 88.0746 129.881 88.0902 129.982C88.2348 130.912 88.445 131.809 88.9028 132.598C89.1866 133.086 89.5608 133.516 90.0053 133.865C89.6491 134.161 89.3326 134.502 89.0635 134.879C88.9664 135.012 88.918 135.174 88.9264 135.339C88.9347 135.504 88.9994 135.66 89.1096 135.783C89.484 136.201 90.1706 136.545 91.2406 136.651C92.2063 136.746 93.5299 136.652 95.3369 136.207C95.3425 136.228 95.3491 136.249 95.3567 136.269L95.8517 137.619C95.9173 137.798 96.0513 137.943 96.2243 138.023C96.3972 138.104 96.5949 138.112 96.7738 138.046C96.9528 137.98 97.0983 137.846 97.1784 137.674C97.2586 137.501 97.2667 137.303 97.2011 137.124L96.7061 135.775C96.6987 135.754 96.6902 135.734 96.6809 135.714C98.3467 134.886 99.4176 134.101 100.092 133.404C100.84 132.631 101.141 131.924 101.158 131.364C101.163 131.199 101.11 131.038 101.01 130.907C100.91 130.776 100.768 130.683 100.608 130.645C100.159 130.531 99.6971 130.476 99.234 130.48C99.3494 129.927 99.3567 129.357 99.2555 128.801C99.0955 127.903 98.6759 127.083 98.1845 126.279C98.1313 126.192 98.0603 126.118 97.976 126.06C97.8918 126.003 97.7963 125.964 97.696 125.947C97.5956 125.929 97.4927 125.933 97.394 125.958C97.2952 125.983 97.203 126.029 97.1233 126.093C96.5726 126.532 96.1233 126.943 95.7463 127.425C95.3727 126.896 94.9264 126.468 94.4829 126.136C93.7578 125.593 92.9664 125.251 92.3998 125.188C92.289 125.175 92.1768 125.189 92.0721 125.227Z" fill="#48B56D"/>
<path fill-rule="evenodd" clip-rule="evenodd" d="M114.661 140.596L114.65 140.595L114.578 140.606L114.559 140.605L114.548 140.597L114.494 140.546C114.486 140.541 114.478 140.54 114.472 140.545L114.465 140.552L114.333 140.927L114.332 140.946L114.337 140.961L114.409 141.055L114.421 141.062L114.433 141.062L114.546 141.025L114.561 141.014L114.569 141L114.671 140.617C114.671 140.607 114.668 140.6 114.661 140.596ZM114.927 140.568L114.914 140.566L114.725 140.599L114.713 140.605L114.708 140.614L114.606 141L114.607 141.012L114.612 141.021L114.765 141.158C114.775 141.164 114.785 141.165 114.793 141.159L114.8 141.147L114.938 140.593C114.939 140.581 114.935 140.573 114.927 140.568ZM114.292 140.374C114.289 140.371 114.284 140.369 114.279 140.368C114.275 140.368 114.27 140.369 114.266 140.372L114.257 140.383L114.059 140.918C114.056 140.929 114.059 140.938 114.067 140.944L114.081 140.947L114.285 140.919L114.296 140.915L114.302 140.906L114.435 140.53L114.436 140.518L114.43 140.506L114.292 140.374Z" fill="#4DBE72"/>
<path fill-rule="evenodd" clip-rule="evenodd" d="M119.683 122.465C119.546 122.422 119.4 122.413 119.258 122.436C118.532 122.556 117.533 123.05 116.634 123.799C116.033 124.299 115.513 124.888 115.091 125.546C114.573 124.952 113.966 124.45 113.226 123.92C113.119 123.844 112.997 123.791 112.868 123.765C112.738 123.74 112.605 123.742 112.477 123.771C112.349 123.801 112.229 123.857 112.124 123.937C112.019 124.017 111.933 124.118 111.87 124.233C111.29 125.303 110.804 126.388 110.657 127.557C110.566 128.282 110.614 129.016 110.798 129.723C110.2 129.748 109.608 129.85 109.036 130.027C108.832 130.088 108.655 130.217 108.535 130.392C108.415 130.568 108.359 130.78 108.376 130.992C108.434 131.714 108.87 132.606 109.886 133.552C110.804 134.406 112.237 135.346 114.443 136.303C114.432 136.328 114.423 136.355 114.414 136.382L113.866 138.156C113.794 138.391 113.817 138.646 113.932 138.864C114.047 139.081 114.244 139.244 114.479 139.317C114.715 139.39 114.969 139.366 115.187 139.251C115.405 139.136 115.568 138.939 115.64 138.704L116.188 136.93C116.196 136.903 116.204 136.876 116.209 136.848C118.569 137.301 120.284 137.333 121.522 137.145C122.896 136.937 123.759 136.446 124.215 135.883C124.349 135.717 124.421 135.511 124.421 135.298C124.421 135.085 124.347 134.878 124.213 134.713C123.84 134.245 123.409 133.827 122.93 133.469C123.481 132.991 123.935 132.411 124.267 131.76C124.805 130.713 125.016 129.541 125.14 128.331C125.153 128.2 125.139 128.068 125.097 127.943C125.055 127.818 124.988 127.704 124.898 127.607C124.809 127.51 124.7 127.434 124.579 127.382C124.458 127.331 124.327 127.306 124.196 127.309C123.286 127.329 122.502 127.4 121.738 127.599C121.768 126.764 121.644 125.975 121.449 125.286C121.129 124.16 120.584 123.189 120.051 122.681C119.947 122.581 119.821 122.507 119.683 122.465Z" fill="#4DBE72"/>
<path fill-rule="evenodd" clip-rule="evenodd" d="M124.995 144.471L124.984 144.47L124.911 144.481L124.893 144.48L124.881 144.472L124.828 144.421C124.819 144.416 124.812 144.415 124.805 144.42L124.799 144.427L124.667 144.802L124.666 144.821L124.671 144.836L124.743 144.93L124.755 144.937L124.767 144.937L124.879 144.9L124.894 144.889L124.903 144.875L125.004 144.492C125.005 144.482 125.002 144.475 124.995 144.471ZM125.26 144.443L125.247 144.441L125.059 144.474L125.047 144.48L125.041 144.489L124.94 144.875L124.941 144.887L124.946 144.896L125.099 145.033C125.109 145.039 125.118 145.04 125.127 145.034L125.134 145.022L125.272 144.468C125.273 144.456 125.269 144.448 125.26 144.443ZM124.626 144.249C124.622 144.246 124.618 144.244 124.613 144.243C124.608 144.243 124.604 144.244 124.6 144.247L124.591 144.258L124.392 144.793C124.39 144.804 124.393 144.813 124.401 144.819L124.415 144.822L124.619 144.794L124.63 144.79L124.635 144.781L124.769 144.405L124.77 144.393L124.764 144.381L124.626 144.249Z" fill="#4DBE72"/>
<path fill-rule="evenodd" clip-rule="evenodd" d="M130.017 126.34C129.879 126.297 129.734 126.288 129.592 126.311C128.866 126.431 127.867 126.925 126.968 127.674C126.367 128.174 125.847 128.763 125.425 129.421C124.907 128.827 124.299 128.325 123.559 127.795C123.452 127.719 123.33 127.666 123.201 127.64C123.072 127.615 122.939 127.617 122.811 127.646C122.683 127.676 122.562 127.732 122.458 127.812C122.353 127.892 122.266 127.993 122.204 128.108C121.624 129.178 121.138 130.263 120.991 131.432C120.9 132.157 120.948 132.891 121.131 133.598C120.534 133.623 119.942 133.725 119.37 133.902C119.166 133.963 118.989 134.092 118.869 134.267C118.749 134.443 118.693 134.655 118.71 134.867C118.768 135.589 119.204 136.481 120.22 137.427C121.138 138.281 122.571 139.221 124.776 140.178C124.766 140.203 124.756 140.23 124.748 140.257L124.2 142.031C124.127 142.266 124.151 142.521 124.266 142.739C124.381 142.956 124.578 143.119 124.813 143.192C125.048 143.265 125.303 143.241 125.521 143.126C125.738 143.011 125.901 142.814 125.974 142.579L126.522 140.805C126.53 140.778 126.537 140.751 126.543 140.723C128.903 141.176 130.618 141.208 131.856 141.02C133.23 140.812 134.093 140.321 134.549 139.758C134.682 139.592 134.755 139.386 134.755 139.173C134.754 138.96 134.681 138.753 134.546 138.588C134.174 138.12 133.743 137.702 133.263 137.344C133.815 136.866 134.269 136.286 134.6 135.635C135.139 134.588 135.35 133.416 135.474 132.206C135.487 132.075 135.472 131.943 135.431 131.818C135.389 131.693 135.321 131.579 135.232 131.482C135.143 131.385 135.034 131.309 134.913 131.257C134.792 131.206 134.661 131.181 134.529 131.184C133.62 131.204 132.836 131.275 132.072 131.474C132.102 130.639 131.978 129.85 131.783 129.161C131.463 128.035 130.917 127.064 130.385 126.556C130.28 126.456 130.155 126.382 130.017 126.34Z" fill="#4DBE72"/>
<path fill-rule="evenodd" clip-rule="evenodd" d="M141.705 154.945L141.697 154.944L141.64 154.953L141.626 154.951L141.617 154.945L141.576 154.906C141.569 154.902 141.563 154.901 141.558 154.905L141.553 154.911L141.451 155.201L141.45 155.216L141.454 155.227L141.51 155.3L141.519 155.306L141.528 155.305L141.616 155.277L141.627 155.268L141.634 155.257L141.712 154.961C141.713 154.953 141.71 154.947 141.705 154.945ZM141.911 154.923L141.9 154.922L141.754 154.947L141.745 154.951L141.741 154.958L141.662 155.257L141.663 155.267L141.667 155.274L141.785 155.38C141.793 155.385 141.801 155.385 141.807 155.38L141.813 155.371L141.92 154.943C141.92 154.933 141.917 154.927 141.911 154.923ZM141.419 154.773C141.417 154.77 141.413 154.769 141.41 154.768C141.406 154.768 141.402 154.769 141.399 154.771L141.392 154.78L141.239 155.194C141.237 155.203 141.239 155.209 141.245 155.214L141.256 155.216L141.414 155.195L141.422 155.191L141.427 155.185L141.53 154.893L141.531 154.884L141.526 154.875L141.419 154.773Z" fill="#4DBE72"/>
<path fill-rule="evenodd" clip-rule="evenodd" d="M145.593 140.908C145.486 140.875 145.374 140.868 145.264 140.886C144.702 140.979 143.929 141.361 143.233 141.941C142.768 142.328 142.365 142.784 142.038 143.293C141.637 142.833 141.167 142.445 140.594 142.035C140.511 141.976 140.416 141.935 140.317 141.915C140.217 141.895 140.114 141.897 140.014 141.919C139.915 141.942 139.822 141.986 139.741 142.048C139.66 142.11 139.593 142.188 139.544 142.277C139.095 143.105 138.719 143.946 138.605 144.851C138.535 145.411 138.572 145.98 138.714 146.527C138.251 146.547 137.793 146.626 137.351 146.763C137.193 146.81 137.056 146.91 136.963 147.045C136.87 147.181 136.826 147.345 136.839 147.51C136.884 148.069 137.222 148.759 138.009 149.491C138.719 150.152 139.829 150.88 141.536 151.621C141.528 151.641 141.52 151.661 141.514 151.683L141.09 153.056C141.034 153.238 141.052 153.435 141.141 153.604C141.23 153.772 141.382 153.898 141.564 153.955C141.747 154.011 141.944 153.992 142.112 153.903C142.281 153.814 142.407 153.662 142.463 153.48L142.887 152.107C142.894 152.086 142.899 152.065 142.904 152.043C144.731 152.394 146.058 152.419 147.017 152.273C148.081 152.112 148.749 151.732 149.101 151.296C149.205 151.168 149.261 151.008 149.261 150.843C149.261 150.678 149.204 150.518 149.1 150.391C148.811 150.028 148.477 149.704 148.106 149.427C148.533 149.057 148.885 148.608 149.141 148.104C149.558 147.293 149.722 146.386 149.817 145.45C149.828 145.348 149.816 145.246 149.784 145.149C149.752 145.052 149.7 144.964 149.63 144.889C149.561 144.814 149.477 144.755 149.383 144.715C149.289 144.675 149.188 144.656 149.086 144.658C148.382 144.674 147.775 144.729 147.184 144.883C147.207 144.236 147.111 143.626 146.96 143.092C146.712 142.221 146.29 141.469 145.878 141.075C145.797 140.998 145.7 140.941 145.593 140.908Z" fill="#4DBE72"/>
<path fill-rule="evenodd" clip-rule="evenodd" d="M147.705 165.945L147.697 165.944L147.64 165.953L147.626 165.951L147.617 165.945L147.576 165.906C147.569 165.902 147.563 165.901 147.558 165.905L147.553 165.911L147.451 166.201L147.45 166.216L147.454 166.227L147.51 166.3L147.519 166.306L147.528 166.305L147.616 166.277L147.627 166.268L147.634 166.257L147.712 165.961C147.713 165.953 147.71 165.947 147.705 165.945ZM147.911 165.923L147.9 165.922L147.754 165.947L147.745 165.951L147.741 165.958L147.662 166.257L147.663 166.267L147.667 166.274L147.785 166.38C147.793 166.385 147.801 166.385 147.807 166.38L147.813 166.371L147.92 165.943C147.92 165.933 147.917 165.927 147.911 165.923ZM147.419 165.773C147.417 165.77 147.413 165.769 147.41 165.768C147.406 165.768 147.402 165.769 147.399 165.771L147.392 165.78L147.239 166.194C147.237 166.203 147.239 166.209 147.245 166.214L147.256 166.216L147.414 166.195L147.422 166.191L147.427 166.185L147.53 165.893L147.531 165.884L147.526 165.875L147.419 165.773Z" fill="#4DBE72"/>
<path fill-rule="evenodd" clip-rule="evenodd" d="M151.593 151.908C151.486 151.875 151.374 151.868 151.264 151.886C150.702 151.979 149.929 152.361 149.233 152.941C148.768 153.328 148.365 153.784 148.038 154.293C147.637 153.833 147.167 153.445 146.594 153.035C146.511 152.976 146.416 152.935 146.317 152.915C146.217 152.895 146.114 152.897 146.014 152.919C145.915 152.942 145.822 152.986 145.741 153.048C145.66 153.11 145.593 153.188 145.544 153.277C145.095 154.105 144.719 154.946 144.605 155.851C144.535 156.411 144.572 156.98 144.714 157.527C144.251 157.547 143.793 157.626 143.351 157.763C143.193 157.81 143.056 157.91 142.963 158.045C142.87 158.181 142.826 158.345 142.839 158.51C142.884 159.069 143.222 159.759 144.009 160.491C144.719 161.152 145.829 161.88 147.536 162.621C147.528 162.641 147.52 162.661 147.514 162.683L147.09 164.056C147.034 164.238 147.052 164.435 147.141 164.604C147.23 164.772 147.382 164.898 147.564 164.955C147.747 165.011 147.944 164.992 148.112 164.903C148.281 164.814 148.407 164.662 148.463 164.48L148.887 163.107C148.894 163.086 148.899 163.065 148.904 163.043C150.731 163.394 152.058 163.419 153.017 163.273C154.081 163.112 154.749 162.732 155.101 162.296C155.205 162.168 155.261 162.008 155.261 161.843C155.261 161.678 155.204 161.518 155.1 161.391C154.811 161.028 154.477 160.704 154.106 160.427C154.533 160.057 154.885 159.608 155.141 159.104C155.558 158.293 155.722 157.386 155.817 156.45C155.828 156.348 155.816 156.246 155.784 156.149C155.752 156.052 155.7 155.964 155.63 155.889C155.561 155.814 155.477 155.755 155.383 155.715C155.289 155.675 155.188 155.656 155.086 155.658C154.382 155.674 153.775 155.729 153.184 155.883C153.207 155.236 153.111 154.626 152.96 154.092C152.712 153.221 152.29 152.469 151.878 152.075C151.797 151.998 151.7 151.941 151.593 151.908Z" fill="#4DBE72"/>
<path fill-rule="evenodd" clip-rule="evenodd" d="M126.796 195L126.782 194.989L126.676 194.944L126.652 194.926L126.643 194.906L126.615 194.793C126.608 194.779 126.598 194.772 126.586 194.773L126.571 194.778L126.081 195.169L126.064 195.193L126.059 195.217L126.076 195.403L126.086 195.423L126.102 195.432L126.284 195.477L126.313 195.475L126.335 195.463L126.792 195.035C126.801 195.022 126.802 195.011 126.796 195ZM127.174 195.184L127.158 195.171L126.879 195.056L126.859 195.055L126.844 195.062L126.385 195.493L126.377 195.51L126.375 195.527L126.466 195.837C126.474 195.855 126.487 195.863 126.503 195.862L126.522 195.853L127.169 195.228C127.179 195.212 127.181 195.197 127.174 195.184ZM126.487 194.395C126.486 194.388 126.482 194.381 126.476 194.377C126.47 194.372 126.462 194.37 126.455 194.371L126.434 194.378L125.722 194.928C125.709 194.94 125.706 194.954 125.712 194.97L125.728 194.984L126.023 195.118L126.042 195.121L126.057 195.114L126.55 194.722L126.56 194.707L126.562 194.687L126.487 194.395Z" fill="#39AA5F"/>
<path fill-rule="evenodd" clip-rule="evenodd" d="M148.639 174.956C148.491 174.785 148.304 174.65 148.095 174.563C147.024 174.117 145.277 173.944 143.45 174.196C142.23 174.362 141.043 174.715 139.93 175.242C139.734 174.016 139.34 172.838 138.793 171.513C138.714 171.321 138.595 171.149 138.444 171.007C138.293 170.864 138.113 170.756 137.917 170.689C137.721 170.621 137.513 170.596 137.306 170.615C137.1 170.634 136.9 170.697 136.72 170.8C135.052 171.745 133.497 172.791 132.324 174.23C131.598 175.123 131.049 176.145 130.705 177.242C129.885 176.777 129.009 176.42 128.097 176.179C127.774 176.09 127.43 176.115 127.122 176.249C126.815 176.384 126.563 176.62 126.409 176.918C125.884 177.931 125.722 179.487 126.291 181.6C126.806 183.507 127.937 185.96 130.086 189.079C130.05 189.105 130.015 189.132 129.982 189.162L127.769 191.076C127.475 191.329 127.295 191.689 127.267 192.076C127.239 192.463 127.366 192.846 127.62 193.139C127.873 193.432 128.233 193.613 128.62 193.641C129.007 193.669 129.389 193.542 129.683 193.288L131.896 191.374C131.929 191.345 131.962 191.315 131.992 191.283C134.769 193.858 137.034 195.331 138.846 196.114C140.856 196.982 142.42 197.045 143.498 196.673C143.816 196.564 144.085 196.348 144.262 196.063C144.44 195.778 144.513 195.441 144.471 195.108C144.364 194.172 144.137 193.253 143.795 192.374C144.931 192.196 146.023 191.799 147.008 191.206C148.602 190.255 149.862 188.865 151.037 187.351C151.165 187.187 151.255 186.998 151.304 186.797C151.352 186.595 151.357 186.385 151.319 186.182C151.28 185.978 151.198 185.785 151.079 185.615C150.96 185.445 150.806 185.303 150.628 185.197C149.395 184.464 148.289 183.905 147.101 183.534C147.838 182.443 148.331 181.285 148.645 180.201C149.157 178.429 149.238 176.676 148.95 175.552C148.894 175.332 148.788 175.128 148.639 174.956Z" fill="#39AA5F"/>
<path fill-rule="evenodd" clip-rule="evenodd" d="M181.796 182L181.782 181.989L181.676 181.944L181.652 181.926L181.643 181.906L181.615 181.793C181.608 181.779 181.598 181.772 181.586 181.773L181.571 181.778L181.081 182.169L181.064 182.193L181.059 182.217L181.076 182.403L181.086 182.423L181.102 182.432L181.284 182.477L181.313 182.475L181.335 182.463L181.792 182.035C181.801 182.022 181.802 182.011 181.796 182ZM182.174 182.184L182.158 182.171L181.879 182.056L181.859 182.055L181.844 182.062L181.385 182.493L181.377 182.51L181.375 182.527L181.466 182.837C181.474 182.855 181.487 182.863 181.503 182.862L181.522 182.853L182.169 182.228C182.179 182.212 182.181 182.197 182.174 182.184ZM181.487 181.395C181.486 181.388 181.482 181.381 181.476 181.377C181.47 181.372 181.462 181.37 181.455 181.371L181.434 181.378L180.722 181.928C180.709 181.94 180.706 181.954 180.712 181.97L180.728 181.984L181.023 182.118L181.042 182.121L181.057 182.114L181.55 181.722L181.56 181.707L181.562 181.687L181.487 181.395Z" fill="#39AA5F"/>
<path fill-rule="evenodd" clip-rule="evenodd" d="M203.639 161.956C203.491 161.785 203.304 161.65 203.095 161.563C202.024 161.117 200.277 160.944 198.45 161.196C197.23 161.362 196.043 161.715 194.93 162.242C194.734 161.016 194.34 159.838 193.793 158.513C193.714 158.321 193.595 158.149 193.444 158.007C193.293 157.864 193.113 157.756 192.917 157.689C192.721 157.621 192.513 157.596 192.306 157.615C192.1 157.634 191.9 157.697 191.72 157.8C190.052 158.745 188.497 159.791 187.324 161.23C186.598 162.123 186.049 163.145 185.705 164.242C184.885 163.777 184.009 163.42 183.097 163.179C182.774 163.09 182.43 163.115 182.122 163.249C181.815 163.384 181.563 163.62 181.409 163.918C180.884 164.931 180.722 166.487 181.291 168.6C181.806 170.507 182.937 172.96 185.086 176.079C185.05 176.105 185.015 176.132 184.982 176.162L182.769 178.076C182.475 178.329 182.295 178.689 182.267 179.076C182.239 179.463 182.366 179.846 182.62 180.139C182.873 180.432 183.233 180.613 183.62 180.641C184.007 180.669 184.389 180.542 184.683 180.288L186.896 178.374C186.929 178.345 186.962 178.315 186.992 178.283C189.769 180.858 192.034 182.331 193.846 183.114C195.856 183.982 197.42 184.045 198.498 183.673C198.816 183.564 199.085 183.348 199.262 183.063C199.44 182.778 199.513 182.441 199.471 182.108C199.364 181.172 199.137 180.253 198.795 179.374C199.931 179.196 201.023 178.799 202.008 178.206C203.602 177.255 204.862 175.865 206.037 174.351C206.165 174.187 206.255 173.998 206.304 173.797C206.352 173.595 206.357 173.385 206.319 173.182C206.28 172.978 206.198 172.785 206.079 172.615C205.96 172.445 205.806 172.303 205.628 172.197C204.395 171.464 203.289 170.905 202.101 170.534C202.838 169.443 203.331 168.285 203.645 167.201C204.157 165.429 204.238 163.676 203.95 162.552C203.894 162.332 203.788 162.128 203.639 161.956Z" fill="#39AA5F"/>
<path fill-rule="evenodd" clip-rule="evenodd" d="M175.715 183.699L175.706 183.702L175.654 183.737L175.638 183.742L175.627 183.74L175.567 183.719C175.559 183.718 175.552 183.72 175.549 183.726L175.547 183.734L175.577 184.074L175.583 184.089L175.592 184.098L175.682 184.146L175.694 184.148L175.703 184.143L175.778 184.074L175.786 184.06L175.787 184.047L175.73 183.711C175.727 183.703 175.722 183.699 175.715 183.699ZM175.912 183.583L175.901 183.586L175.766 183.678L175.759 183.687L175.758 183.696L175.816 184.033L175.821 184.042L175.828 184.048L175.996 184.1C176.007 184.101 176.014 184.098 176.018 184.09L176.02 184.079L175.93 183.598C175.926 183.588 175.92 183.583 175.912 183.583ZM175.348 183.658C175.344 183.656 175.34 183.656 175.336 183.657C175.333 183.659 175.329 183.661 175.328 183.665L175.324 183.677L175.36 184.165C175.362 184.174 175.367 184.18 175.376 184.182L175.388 184.179L175.537 184.085L175.544 184.077L175.545 184.068L175.515 183.727L175.512 183.718L175.503 183.711L175.348 183.658Z" fill="#4DBE72"/>
<path fill-rule="evenodd" clip-rule="evenodd" d="M173.17 167.776C173.047 167.792 172.93 167.837 172.828 167.906C172.305 168.258 171.702 168.999 171.269 169.903C170.978 170.506 170.782 171.151 170.688 171.814C170.073 171.535 169.42 171.361 168.655 171.212C168.544 171.19 168.43 171.193 168.32 171.219C168.21 171.244 168.107 171.293 168.018 171.362C167.929 171.431 167.855 171.518 167.802 171.617C167.748 171.717 167.717 171.826 167.709 171.939C167.638 172.979 167.646 173.998 167.948 174.962C168.135 175.559 168.434 176.115 168.829 176.6C168.372 176.833 167.947 177.123 167.565 177.465C167.428 177.585 167.336 177.748 167.304 177.928C167.273 178.108 167.305 178.293 167.394 178.452C167.696 178.994 168.354 179.534 169.483 179.91C170.503 180.248 171.955 180.47 174.015 180.43C174.016 180.454 174.018 180.478 174.021 180.502L174.226 182.08C174.253 182.29 174.363 182.48 174.53 182.608C174.697 182.737 174.908 182.794 175.118 182.767C175.327 182.74 175.517 182.63 175.646 182.463C175.774 182.296 175.831 182.085 175.804 181.875L175.599 180.297C175.596 180.273 175.592 180.25 175.587 180.226C177.588 179.738 178.936 179.152 179.834 178.564C180.831 177.913 181.328 177.222 181.483 176.621C181.528 176.444 181.511 176.257 181.435 176.092C181.359 175.926 181.228 175.791 181.064 175.71C180.607 175.478 180.122 175.306 179.621 175.197C179.881 174.628 180.028 174.014 180.054 173.389C180.101 172.381 179.848 171.392 179.513 170.405C179.477 170.298 179.419 170.2 179.342 170.118C179.265 170.035 179.171 169.97 179.067 169.926C178.963 169.883 178.851 169.862 178.738 169.865C178.625 169.868 178.514 169.895 178.413 169.944C177.711 170.284 177.125 170.619 176.601 171.046C176.326 170.385 175.949 169.814 175.551 169.346C174.901 168.583 174.13 168.02 173.533 167.814C173.417 167.773 173.292 167.761 173.17 167.776Z" fill="#4DBE72"/>
<path fill-rule="evenodd" clip-rule="evenodd" d="M166.699 206.851L166.693 206.843L166.644 206.804L166.634 206.791L166.632 206.78L166.634 206.717C166.632 206.708 166.628 206.703 166.621 206.702L166.612 206.702L166.3 206.837L166.287 206.848L166.281 206.859L166.264 206.959L166.266 206.971L166.273 206.979L166.362 207.028L166.377 207.031L166.391 207.028L166.692 206.869C166.698 206.863 166.701 206.857 166.699 206.851ZM166.871 207.002L166.865 206.992L166.735 206.892L166.724 206.889L166.715 206.89L166.413 207.051L166.406 207.059L166.403 207.067L166.406 207.243C166.408 207.253 166.413 207.259 166.422 207.261L166.433 207.259L166.862 207.024C166.87 207.017 166.873 207.01 166.871 207.002ZM166.623 206.489C166.624 206.485 166.623 206.481 166.62 206.478C166.618 206.475 166.614 206.473 166.61 206.472L166.598 206.473L166.146 206.66C166.137 206.664 166.133 206.671 166.134 206.68L166.141 206.69L166.277 206.802L166.286 206.807L166.295 206.805L166.609 206.67L166.617 206.664L166.621 206.653L166.623 206.489Z" fill="#63C785"/>
<path fill-rule="evenodd" clip-rule="evenodd" d="M181.028 199.456C180.974 199.345 180.896 199.248 180.798 199.172C180.301 198.785 179.408 198.444 178.414 198.315C177.75 198.228 177.076 198.243 176.417 198.361C176.489 197.689 176.451 197.015 176.353 196.241C176.339 196.129 176.301 196.022 176.243 195.926C176.184 195.83 176.105 195.747 176.012 195.684C175.918 195.62 175.813 195.577 175.702 195.558C175.591 195.538 175.477 195.543 175.367 195.57C174.357 195.828 173.391 196.154 172.57 196.742C172.062 197.107 171.627 197.564 171.29 198.091C170.926 197.73 170.517 197.417 170.073 197.16C169.916 197.067 169.732 197.031 169.552 197.058C169.371 197.084 169.205 197.172 169.082 197.307C168.661 197.763 168.354 198.556 168.35 199.747C168.348 200.821 168.59 202.27 169.272 204.214C169.25 204.223 169.227 204.232 169.205 204.243L167.771 204.931C167.58 205.022 167.434 205.185 167.364 205.384C167.294 205.583 167.306 205.802 167.397 205.992C167.488 206.182 167.652 206.328 167.851 206.399C168.05 206.469 168.268 206.457 168.459 206.365L169.893 205.677C169.915 205.667 169.937 205.656 169.957 205.643C171.046 207.392 172.024 208.489 172.863 209.159C173.794 209.902 174.605 210.159 175.224 210.118C175.407 210.105 175.579 210.031 175.713 209.907C175.846 209.782 175.933 209.616 175.959 209.435C176.037 208.929 176.049 208.414 175.995 207.904C176.617 207.973 177.246 207.921 177.848 207.75C178.82 207.479 179.68 206.93 180.514 206.304C180.604 206.236 180.679 206.15 180.733 206.051C180.787 205.952 180.82 205.843 180.829 205.73C180.837 205.618 180.822 205.505 180.784 205.399C180.746 205.292 180.686 205.196 180.607 205.115C180.065 204.554 179.564 204.102 178.994 203.738C179.537 203.27 179.961 202.733 180.281 202.209C180.803 201.353 181.096 200.445 181.106 199.813C181.108 199.69 181.081 199.568 181.028 199.456Z" fill="#63C785"/>
<path fill-rule="evenodd" clip-rule="evenodd" d="M191.922 260.706L191.926 260.697L191.932 260.634L191.938 260.619L191.946 260.611L192.001 260.578C192.007 260.572 192.009 260.566 192.007 260.56L192.002 260.553L191.72 260.361L191.705 260.356L191.692 260.357L191.598 260.396L191.589 260.404L191.586 260.414L191.592 260.515L191.598 260.53L191.608 260.54L191.903 260.709C191.911 260.712 191.918 260.71 191.922 260.706ZM191.887 260.931L191.891 260.921L191.906 260.758L191.904 260.747L191.898 260.74L191.6 260.571L191.59 260.569L191.581 260.571L191.434 260.668C191.427 260.675 191.424 260.683 191.427 260.691L191.435 260.699L191.864 260.936C191.873 260.939 191.881 260.937 191.887 260.931ZM192.187 260.448C192.191 260.446 192.194 260.443 192.195 260.439C192.196 260.436 192.196 260.431 192.194 260.428L192.188 260.418L191.788 260.136C191.779 260.131 191.772 260.131 191.764 260.137L191.759 260.148L191.737 260.323L191.739 260.333L191.745 260.339L192.027 260.533L192.036 260.536L192.047 260.534L192.187 260.448Z" fill="#63C785"/>
<path fill-rule="evenodd" clip-rule="evenodd" d="M205.837 268.853C205.902 268.748 205.942 268.629 205.954 268.507C206.015 267.879 205.825 266.943 205.402 266.034C205.12 265.426 204.747 264.865 204.294 264.371C204.901 264.073 205.45 263.68 206.051 263.183C206.138 263.111 206.209 263.022 206.259 262.921C206.308 262.819 206.336 262.709 206.339 262.596C206.343 262.483 206.323 262.371 206.28 262.267C206.237 262.163 206.172 262.069 206.09 261.991C205.332 261.276 204.539 260.634 203.603 260.255C203.023 260.021 202.404 259.899 201.779 259.896C201.889 259.395 201.935 258.882 201.914 258.37C201.908 258.188 201.841 258.013 201.721 257.874C201.602 257.736 201.439 257.643 201.26 257.611C200.649 257.5 199.815 257.665 198.807 258.299C197.898 258.871 196.804 259.852 195.527 261.468C195.507 261.454 195.487 261.44 195.467 261.427L194.118 260.583C193.939 260.471 193.723 260.435 193.517 260.482C193.312 260.53 193.133 260.657 193.021 260.836C192.909 261.015 192.873 261.231 192.921 261.436C192.968 261.642 193.095 261.82 193.274 261.932L194.623 262.776C194.643 262.789 194.664 262.801 194.686 262.812C193.792 264.667 193.388 266.08 193.272 267.148C193.142 268.332 193.359 269.154 193.725 269.656C193.833 269.803 193.988 269.909 194.164 269.955C194.341 270.002 194.528 269.986 194.694 269.911C195.164 269.705 195.605 269.44 196.007 269.122C196.282 269.684 196.663 270.188 197.129 270.605C197.878 271.281 198.802 271.714 199.777 272.083C199.883 272.123 199.996 272.14 200.108 272.133C200.221 272.125 200.331 272.095 200.43 272.042C200.53 271.989 200.617 271.916 200.687 271.827C200.756 271.738 200.805 271.635 200.832 271.525C201.015 270.767 201.129 270.102 201.132 269.426C201.817 269.634 202.498 269.705 203.112 269.695C204.114 269.677 205.039 269.439 205.577 269.11C205.682 269.045 205.771 268.957 205.837 268.853Z" fill="#63C785"/>
<path fill-rule="evenodd" clip-rule="evenodd" d="M100.191 186.025L100.188 186.034L100.186 186.095L100.181 186.11L100.173 186.118L100.123 186.153C100.118 186.159 100.116 186.165 100.119 186.172L100.124 186.178L100.408 186.344L100.423 186.348L100.435 186.346L100.523 186.302L100.531 186.294L100.533 186.284L100.521 186.187L100.514 186.173L100.504 186.164L100.209 186.021C100.201 186.019 100.195 186.02 100.191 186.025ZM100.21 185.806L100.206 185.816L100.202 185.974L100.206 185.985L100.212 185.991L100.51 186.134L100.52 186.135L100.528 186.132L100.663 186.03C100.67 186.022 100.671 186.015 100.668 186.007L100.66 185.999L100.232 185.8C100.222 185.798 100.215 185.8 100.21 185.806ZM99.9523 186.291C99.9489 186.293 99.9464 186.296 99.9453 186.3C99.9443 186.304 99.9447 186.308 99.9466 186.311L99.9539 186.32L100.357 186.565C100.366 186.569 100.373 186.568 100.38 186.563L100.384 186.552L100.394 186.382L100.392 186.372L100.385 186.366L100.101 186.198L100.092 186.196L100.081 186.199L99.9523 186.291Z" fill="#39AA5F"/>
<path fill-rule="evenodd" clip-rule="evenodd" d="M86.2575 179.095C86.2013 179.2 86.1704 179.317 86.1671 179.436C86.1502 180.044 86.3943 180.933 86.8614 181.781C87.1725 182.347 87.569 182.863 88.0369 183.309C87.4729 183.636 86.97 184.05 86.4235 184.568C86.3445 184.643 86.2824 184.734 86.2412 184.834C86.2 184.935 86.1807 185.043 86.1845 185.152C86.1884 185.261 86.2153 185.368 86.2636 185.465C86.3118 185.563 86.3802 185.649 86.4643 185.718C87.2414 186.357 88.0467 186.923 88.9728 187.226C89.5466 187.414 90.1508 187.491 90.7533 187.453C90.6799 187.942 90.6698 188.439 90.7234 188.931C90.7406 189.106 90.8176 189.27 90.9413 189.395C91.065 189.52 91.228 189.599 91.403 189.619C91.9986 189.685 92.7911 189.472 93.7195 188.795C94.5572 188.184 95.546 187.168 96.67 185.528C96.6893 185.54 96.7094 185.552 96.7302 185.563L98.0846 186.287C98.2642 186.383 98.4745 186.404 98.6694 186.345C98.8643 186.286 99.0277 186.152 99.1237 185.972C99.2197 185.792 99.2404 185.582 99.1813 185.387C99.1222 185.192 98.9881 185.029 98.8085 184.933L97.4541 184.209C97.4335 184.198 97.4125 184.188 97.391 184.179C98.13 182.334 98.4258 180.946 98.4681 179.911C98.5151 178.763 98.2519 177.984 97.8666 177.526C97.7531 177.391 97.5968 177.3 97.4238 177.267C97.2509 177.233 97.0718 177.261 96.9165 177.344C96.4778 177.573 96.0703 177.857 95.7042 178.19C95.4027 177.667 95.0029 177.207 94.5267 176.835C93.7609 176.234 92.8428 175.878 91.8796 175.587C91.7753 175.555 91.6656 175.546 91.5577 175.561C91.4497 175.575 91.3461 175.612 91.2535 175.669C91.1609 175.726 91.0816 175.803 91.0208 175.893C90.96 175.983 90.9191 176.085 90.9008 176.193C90.7742 176.935 90.7084 177.582 90.7501 178.234C90.0766 178.079 89.4163 178.055 88.8261 178.105C87.8617 178.188 86.9874 178.478 86.4907 178.831C86.3935 178.899 86.3136 178.99 86.2575 179.095Z" fill="#39AA5F"/>
<path d="M165.61 283.169C165.369 267.695 169.212 272.053 171.164 276.166C174.591 282.526 174.222 294.361 173.609 299.483C171.906 308.542 169.478 303.47 168.476 299.802C166.875 294.839 165.899 286.646 165.61 283.169Z" fill="#684536"/>
<path d="M168.049 285.973C167.816 275.638 170.46 278.565 171.812 281.32C174.18 285.583 173.98 293.486 173.584 296.904C172.46 302.946 170.78 299.549 170.08 297.094C168.964 293.773 168.261 288.296 168.049 285.973Z" fill="#885E49"/>
<path d="M161.596 271.641C161.717 268.546 163.028 270.966 163.668 272.563C164.804 275.2 164.514 277.34 164.227 278.08C163.5 279.135 162.703 277.157 162.395 276.037C161.891 274.419 161.653 272.432 161.596 271.641Z" fill="#5E3D30"/>
<path d="M128.318 203.739C127.67 200.711 129.538 202.731 130.554 204.12C132.306 206.394 132.555 208.539 132.46 209.327C132.016 210.529 130.755 208.81 130.179 207.8C129.291 206.358 128.569 204.492 128.318 203.739Z" fill="#A27358"/>
<path d="M160.742 281.105C159.308 271.847 160.427 273.795 161.165 275.927C162.384 279.152 163.376 286.329 163.72 289.515C164.21 295.257 163.296 292.632 162.777 290.602C162.029 287.899 161.109 283.144 160.742 281.105Z" fill="#5E3D30"/>
<path d="M108.5 166.5L109.5 165.5L110.5 166.5L109.5 168L108.5 166.5Z" fill="#9D7052"/>
<circle cx="126.5" cy="195.5" r="1.5" fill="#94684E"/>
<ellipse cx="122" cy="180.5" rx="2" ry="1.5" transform="rotate(50.0382 122 180.5)" fill="#94684E"/>
<ellipse cx="165.576" cy="208.497" rx="0.76308" ry="4.0351" transform="rotate(20.9637 165.576 208.497)" fill="#8F644C"/>
<path d="M179.5 182.5L181.5 181L182.5 182L181.5 183.5L179.5 182.5Z" fill="#986C50"/>
<path d="M174.5 184L176 183L177 183.5L175.5 184.5L174.5 184Z" fill="#BAF2FF"/>
<path d="M141 232L140 230L140.5 228L143 230.5L141 232Z" fill="#865E46"/>
<circle cx="126" cy="216" r="1" fill="#39AA5F"/>
<circle cx="192" cy="260" r="1" fill="#C2F6FF"/>
<path d="M180.4 335C174.128 338.152 172.187 343.667 172 346.03L186 348C184.444 346.375 185.067 342.879 186 341.303C182.5 341.906 180.587 345.242 180.4 346.818C178.222 343.125 178.533 337.364 180.4 335Z" fill="#5ECF84"/>
<path d="M128.627 339C133.427 337.4 135.961 334.333 136.627 333L145.627 337.5C144.027 339.5 136.627 341 133.127 341.5C119.127 341.9 124.294 340 128.627 339Z" fill="#624032"/>
<path d="M160.375 341.018C157.375 348.685 152.875 343.54 151 340.009L161 339L160.375 341.018Z" fill="#614032"/>
<path d="M149 340C145 345.774 139.333 341.906 138 339.5L144.5 335L149 340Z" fill="#624032"/>
<path d="M136 336C138.4 338 139.333 340.833 139.5 342L136 343C136.8 339.4 136.333 336.833 136 336Z" fill="#5ECF84"/>
<path d="M168.4 330C162.128 333.394 160.187 339.333 160 341.879L174 344C172.444 342.25 173.067 338.485 174 336.788C170.5 337.438 168.587 341.03 168.4 342.727C166.222 338.75 166.533 332.545 168.4 330Z" fill="#5ECF84"/>
<path d="M148 335C150.4 337 151.333 339.833 151.5 341L148 342C148.8 338.4 148.333 335.833 148 335Z" fill="#5ECF84"/>
<defs>
<linearGradient id="paint0_linear_591_539" x1="146.027" y1="164.402" x2="146.027" y2="343" gradientUnits="userSpaceOnUse">
<stop stop-color="#9F7154"/>
<stop offset="1" stop-color="#5E3D30"/>
</linearGradient>
</defs>
</svg>
