<svg width="312" height="390" viewBox="0 0 312 390" fill="none" xmlns="http://www.w3.org/2000/svg">
<ellipse cx="153.5" cy="360.5" rx="106.5" ry="28.5" fill="#17893D"/>
<path d="M47 361.045V351H53.5L54 364L47 361.045Z" fill="#17893D"/>
<path d="M260 360.737V350L256.571 351.263L256 362L260 360.737Z" fill="#17893D"/>
<ellipse cx="153.5" cy="350.5" rx="106.5" ry="26.5" fill="#5ECF84"/>
<path fill-rule="evenodd" clip-rule="evenodd" d="M88.6988 337.091L88.7041 337.098L88.7489 337.127L88.7581 337.137L88.7606 337.147L88.764 337.201C88.7661 337.208 88.77 337.212 88.7757 337.213L88.7829 337.212L89.0383 337.074L89.0482 337.065L89.0524 337.054L89.0598 336.968L89.057 336.958L89.0505 336.953L88.9716 336.917L88.9582 336.916L88.9469 336.919L88.7038 337.076C88.6985 337.081 88.6968 337.086 88.6988 337.091ZM88.5422 336.976L88.5482 336.984L88.6656 337.059L88.6749 337.062L88.6823 337.06L88.9268 336.901L88.9321 336.894L88.934 336.887L88.9186 336.738C88.9162 336.73 88.9113 336.725 88.904 336.724L88.8944 336.726L88.5481 336.957C88.5419 336.963 88.5399 336.97 88.5422 336.976ZM88.789 337.393C88.789 337.396 88.7903 337.399 88.7927 337.402C88.7951 337.405 88.7983 337.406 88.8018 337.406L88.812 337.405L89.1817 337.214C89.1885 337.209 89.1912 337.203 89.1898 337.196L89.1835 337.188L89.0602 337.102L89.0521 337.099L89.0447 337.101L88.7878 337.239L88.7818 337.244L88.7794 337.254L88.789 337.393Z" fill="#C01700"/>
<path fill-rule="evenodd" clip-rule="evenodd" d="M77.0926 344.399C77.1459 344.489 77.2195 344.566 77.3076 344.623C77.7577 344.915 78.5385 345.139 79.3908 345.176C79.9599 345.202 80.5295 345.14 81.0797 344.992C81.0672 345.567 81.1486 346.135 81.2874 346.784C81.3076 346.878 81.3474 346.966 81.4043 347.043C81.4613 347.121 81.5339 347.185 81.6176 347.232C81.7012 347.279 81.7938 347.307 81.8894 347.316C81.9849 347.324 82.0812 347.312 82.1717 347.281C83.0092 346.989 83.8041 346.642 84.4572 346.085C84.8617 345.739 85.1966 345.32 85.4443 344.849C85.7789 345.128 86.1481 345.364 86.5429 345.549C86.6827 345.617 86.8414 345.634 86.9924 345.598C87.1434 345.563 87.2776 345.476 87.3725 345.353C87.6958 344.936 87.8985 344.241 87.8152 343.232C87.7396 342.322 87.4285 341.111 86.7097 339.513C86.7281 339.504 86.7462 339.495 86.7641 339.484L87.9301 338.797C88.0847 338.706 88.1968 338.557 88.2417 338.383C88.2866 338.209 88.2607 338.025 88.1695 337.87C88.0784 337.716 87.9296 337.604 87.7558 337.559C87.582 337.514 87.3975 337.54 87.2429 337.631L86.0769 338.318C86.0591 338.329 86.0419 338.34 86.0252 338.352C84.9755 336.949 84.0671 336.09 83.3074 335.584C82.4647 335.021 81.7584 334.863 81.2367 334.942C81.0832 334.966 80.9426 335.042 80.8383 335.156C80.734 335.271 80.6724 335.419 80.6638 335.574C80.6347 336.009 80.6618 336.446 80.7445 336.874C80.2124 336.861 79.6828 336.951 79.1849 337.139C78.3808 337.439 77.6919 337.967 77.031 338.558C76.9596 338.622 76.9025 338.701 76.8637 338.789C76.8249 338.876 76.8051 338.971 76.8058 339.067C76.8065 339.163 76.8276 339.258 76.8677 339.345C76.9077 339.432 76.9659 339.51 77.0383 339.573C77.5385 340.009 77.9957 340.355 78.5053 340.623C78.0794 341.058 77.7586 341.544 77.5257 342.011C77.1455 342.775 76.9629 343.566 77.0005 344.102C77.0077 344.207 77.0392 344.308 77.0926 344.399Z" fill="#C01700"/>
<path d="M160 347.454C139.794 378.433 137.065 358.907 138.227 345.272L150.42 336L160 347.454Z" fill="#404046"/>
<path d="M180 347.476C180 370.158 170 356.927 165 347.476L173 336L180 347.476Z" fill="#404046"/>
<path d="M168.5 353C163.7 346.2 158.167 350.166 156 353L158 339.5L169.5 342L168.5 353Z" fill="#404046"/>
<path d="M138.5 354.5C139.3 348.9 134.5 350.167 132 351.5L136.5 344.5L143.5 345L138.5 354.5Z" fill="#404046"/>
<path d="M182.5 353C180.5 350.6 179.667 352.333 179.5 353.5L177 346.5L182.5 346V353Z" fill="#404046"/>
<circle cx="72" cy="328" r="1" fill="#CBFAFE"/>
<path d="M213 322C208.52 324.182 207.133 328 207 329.636L217 331C215.889 329.875 216.333 327.455 217 326.364C214.5 326.781 213.133 329.091 213 330.182C211.444 327.625 211.667 323.636 213 322Z" fill="#5ECF84"/>
<path d="M189 350C184.52 352.182 183.133 356 183 357.636L193 359C191.889 357.875 192.333 355.455 193 354.364C190.5 354.781 189.133 357.091 189 358.182C187.444 355.625 187.667 351.636 189 350Z" fill="#5ECF84"/>
<path d="M241.4 331C237.368 332.939 236.12 336.333 236 337.788L245 339C244 338 244.4 335.848 245 334.879C242.75 335.25 241.52 337.303 241.4 338.273C240 336 240.2 332.455 241.4 331Z" fill="#5ECF84"/>
<path d="M108 321.5C110.4 323.5 111.333 326.333 111.5 327.5L108 328.5C108.8 324.9 108.333 322.333 108 321.5Z" fill="#5ECF84"/>
<path d="M105 323C107.4 325 108.333 327.833 108.5 329L105 330C105.8 326.4 105.333 323.833 105 323Z" fill="#5ECF84"/>
<path d="M167.695 348.731C169.672 351.15 170.052 354.109 169.995 355.286L166.368 355.605C167.836 352.221 167.864 349.613 167.695 348.731Z" fill="#5ECF84"/>
<path d="M125 350C127.4 352 128.333 354.833 128.5 356L125 357C125.8 353.4 125.333 350.833 125 350Z" fill="#5ECF84"/>
<path d="M122 351.5C124.4 353.5 125.333 356.333 125.5 357.5L122 358.5C122.8 354.9 122.333 352.333 122 351.5Z" fill="#5ECF84"/>
<path d="M133 345C135.4 347 136.333 349.833 136.5 351L133 352C133.8 348.4 133.333 345.833 133 345Z" fill="#5ECF84"/>
<path d="M82 327C84.4 329 85.3333 331.833 85.5 333L82 334C82.8 330.4 82.3333 327.833 82 327Z" fill="#5ECF84"/>
<ellipse cx="153.5" cy="360.5" rx="106.5" ry="28.5" fill="#17893D"/>
<path d="M47 361.045V351H53.5L54 364L47 361.045Z" fill="#17893D"/>
<path d="M260 360.737V350L256.571 351.263L256 362L260 360.737Z" fill="#17893D"/>
<ellipse cx="153.5" cy="350.5" rx="106.5" ry="26.5" fill="#5ECF84"/>
<path d="M213 322C208.52 324.182 207.133 328 207 329.636L217 331C215.889 329.875 216.333 327.455 217 326.364C214.5 326.781 213.133 329.091 213 330.182C211.444 327.625 211.667 323.636 213 322Z" fill="#5ECF84"/>
<path d="M189 351C184.52 353.182 183.133 357 183 358.636L193 360C191.889 358.875 192.333 356.455 193 355.364C190.5 355.781 189.133 358.091 189 359.182C187.444 356.625 187.667 352.636 189 351Z" fill="#5ECF84"/>
<path d="M241.4 331C237.368 332.939 236.12 336.333 236 337.788L245 339C244 338 244.4 335.848 245 334.879C242.75 335.25 241.52 337.303 241.4 338.273C240 336 240.2 332.455 241.4 331Z" fill="#5ECF84"/>
<path d="M108 321.5C110.4 323.5 111.333 326.333 111.5 327.5L108 328.5C108.8 324.9 108.333 322.333 108 321.5Z" fill="#5ECF84"/>
<path d="M105 323C107.4 325 108.333 327.833 108.5 329L105 330C105.8 326.4 105.333 323.833 105 323Z" fill="#5ECF84"/>
<path d="M167.695 348.732C169.673 351.151 170.052 354.11 169.995 355.287L166.369 355.606C167.836 352.222 167.864 349.614 167.695 348.732Z" fill="#5ECF84"/>
<path d="M125 350C127.4 352 128.333 354.833 128.5 356L125 357C125.8 353.4 125.333 350.833 125 350Z" fill="#5ECF84"/>
<path d="M122 351.5C124.4 353.5 125.333 356.333 125.5 357.5L122 358.5C122.8 354.9 122.333 352.333 122 351.5Z" fill="#5ECF84"/>
<path d="M133 345C135.4 347 136.333 349.833 136.5 351L133 352C133.8 348.4 133.333 345.833 133 345Z" fill="#5ECF84"/>
<path d="M82 327C84.4 329 85.3333 331.833 85.5 333L82 334C82.8 330.4 82.3333 327.833 82 327Z" fill="#5ECF84"/>
<path d="M146.758 283.656C148.314 317.815 141.568 333.592 138 337.21L159.894 343C160.672 321.578 156.975 294.512 155.029 283.656C143.352 240.813 144.649 265.805 146.758 283.656Z" fill="url(#paint0_linear_591_538)"/>
<path d="M163.4 331C157.128 334.152 155.187 339.667 155 342.03L169 344C167.444 342.375 168.067 338.879 169 337.303C165.5 337.906 163.587 341.242 163.4 342.818C161.222 339.125 161.533 333.364 163.4 331Z" fill="#5ECF84"/>
<path d="M145.921 330.687C148.373 333.781 148.285 338.089 147.935 339.856L140.781 339.593C141.838 338.585 142.189 335.929 142.03 334.651C143.614 335.526 143.919 338.222 143.716 339.407C145.461 336.949 146.385 332.66 145.921 330.687Z" fill="#5ECF84"/>
<path d="M137 333C139.4 335 140.333 337.833 140.5 339L137 340C137.8 336.4 137.333 333.833 137 333Z" fill="#5ECF84"/>
<path fill-rule="evenodd" clip-rule="evenodd" d="M146.718 255.037C146.834 255.177 146.95 255.316 147.062 255.457C147.382 256.14 146.635 257.375 145.758 258.826C144.1 261.567 141.977 265.078 145.693 267.095C147.674 268.267 149.622 267.161 150.128 265.005C150.261 264.574 150.386 264.062 150.518 263.519C150.882 262.02 151.301 260.293 152.114 259.45C153.194 259.147 154.317 259.49 155.444 259.834C156.336 260.106 157.232 260.379 158.111 260.334C165.489 260.705 172.408 257.836 178.291 252.344C187.43 243.243 192.169 223.82 181.301 211.826C180.726 211.217 179.894 211.02 179.028 211.229C176.982 211.845 176.041 213.709 175.148 215.647C173.077 219.7 168.851 220.685 164.317 221.741C160.714 222.581 156.916 223.466 153.852 225.972C146.932 231.631 140.812 242.961 145.528 253.315C145.816 253.954 146.269 254.498 146.718 255.037Z" fill="url(#paint1_linear_591_538)"/>
<path fill-rule="evenodd" clip-rule="evenodd" d="M144.745 262.427C144.711 262.544 144.677 262.661 144.645 262.778C144.63 263.285 145.421 263.848 146.351 264.509C148.108 265.758 150.357 267.358 148.603 269.598C147.693 270.851 146.194 270.689 145.305 269.493C145.108 269.263 144.894 268.98 144.668 268.68C144.042 267.852 143.321 266.898 142.594 266.595C141.846 266.696 141.244 267.208 140.64 267.722C140.162 268.129 139.682 268.537 139.127 268.744C134.671 270.946 129.632 271.026 124.531 269.208C116.454 266.033 108.334 255.308 111.837 244.997C112.029 244.466 112.49 244.123 113.081 244.02C114.508 243.853 115.588 244.752 116.657 245.71C119.02 247.659 121.893 247.136 124.975 246.576C127.424 246.131 130.005 245.662 132.567 246.39C138.353 248.033 145.162 253.391 145.019 261.045C145.012 261.517 144.878 261.974 144.745 262.427Z" fill="url(#paint2_linear_591_538)"/>
<path d="M151 270C150.36 268 150.367 264.667 150.5 263.5L149 266L151 270Z" fill="#937B55"/>
<path d="M169.274 232C156.874 236 151.441 247 150.274 252C149.074 259.2 152.107 256 153.774 253.5C155.374 243.9 164.774 235.167 169.274 232Z" fill="#7BD394" fill-opacity="0.41"/>
<path d="M124 255.777C132.504 253.654 139.389 257.895 141.769 260.281C144.92 263.886 142.08 263.163 140.267 262.351C136.066 257.545 127.672 255.966 124 255.777Z" fill="#7BD394" fill-opacity="0.41"/>
<defs>
<linearGradient id="paint0_linear_591_538" x1="149" y1="260" x2="149" y2="343" gradientUnits="userSpaceOnUse">
<stop stop-color="#986E4F"/>
<stop offset="1" stop-color="#5ECF84"/>
</linearGradient>
<linearGradient id="paint1_linear_591_538" x1="179" y1="214.5" x2="148" y2="264" gradientUnits="userSpaceOnUse">
<stop stop-color="#5ECF84"/>
<stop offset="1" stop-color="#927A55"/>
</linearGradient>
<linearGradient id="paint2_linear_591_538" x1="113.68" y1="246.512" x2="145.68" y2="267.512" gradientUnits="userSpaceOnUse">
<stop stop-color="#5ECF84"/>
<stop offset="1" stop-color="#947F57"/>
</linearGradient>
</defs>
</svg>
