<svg width="213" height="178" viewBox="0 0 213 178" fill="none" xmlns="http://www.w3.org/2000/svg">
<ellipse cx="106.5" cy="149.5" rx="106.5" ry="28.5" fill="#17893D"/>
<path d="M0 150.045V140H6.5L7 153L0 150.045Z" fill="#17893D"/>
<path d="M213 149.737V139L209.571 140.263L209 151L213 149.737Z" fill="#17893D"/>
<ellipse cx="106.5" cy="139.5" rx="106.5" ry="26.5" fill="#5ECF84"/>
<path fill-rule="evenodd" clip-rule="evenodd" d="M41.6988 126.091L41.7041 126.098L41.7489 126.127L41.7581 126.137L41.7606 126.147L41.764 126.201C41.7661 126.208 41.77 126.212 41.7757 126.213L41.7829 126.212L42.0383 126.074L42.0482 126.065L42.0524 126.054L42.0598 125.968L42.057 125.958L42.0505 125.953L41.9716 125.917L41.9582 125.916L41.9469 125.919L41.7038 126.076C41.6985 126.081 41.6968 126.086 41.6988 126.091ZM41.5422 125.976L41.5482 125.984L41.6656 126.059L41.6749 126.062L41.6823 126.06L41.9268 125.901L41.9321 125.894L41.934 125.887L41.9186 125.738C41.9162 125.73 41.9113 125.725 41.904 125.724L41.8944 125.726L41.5481 125.957C41.5419 125.963 41.5399 125.97 41.5422 125.976ZM41.789 126.393C41.789 126.396 41.7903 126.399 41.7927 126.402C41.7951 126.405 41.7983 126.406 41.8018 126.406L41.812 126.405L42.1817 126.214C42.1885 126.209 42.1912 126.203 42.1898 126.196L42.1835 126.188L42.0602 126.102L42.0521 126.099L42.0447 126.101L41.7878 126.239L41.7818 126.244L41.7794 126.254L41.789 126.393Z" fill="#C01700"/>
<path fill-rule="evenodd" clip-rule="evenodd" d="M30.0926 133.399C30.1459 133.489 30.2195 133.566 30.3076 133.623C30.7577 133.915 31.5385 134.139 32.3908 134.176C32.9599 134.202 33.5295 134.14 34.0797 133.992C34.0672 134.567 34.1486 135.135 34.2874 135.784C34.3076 135.878 34.3474 135.966 34.4043 136.043C34.4613 136.121 34.5339 136.185 34.6176 136.232C34.7012 136.279 34.7938 136.307 34.8894 136.316C34.9849 136.324 35.0812 136.312 35.1717 136.281C36.0092 135.989 36.8041 135.642 37.4572 135.085C37.8617 134.739 38.1966 134.32 38.4443 133.849C38.7789 134.128 39.1481 134.364 39.5429 134.549C39.6827 134.617 39.8414 134.634 39.9924 134.598C40.1434 134.563 40.2776 134.476 40.3725 134.353C40.6958 133.936 40.8985 133.241 40.8152 132.232C40.7396 131.322 40.4285 130.111 39.7097 128.513C39.7281 128.504 39.7462 128.495 39.7641 128.484L40.9301 127.797C41.0847 127.706 41.1968 127.557 41.2417 127.383C41.2866 127.209 41.2607 127.025 41.1695 126.87C41.0784 126.716 40.9296 126.604 40.7558 126.559C40.582 126.514 40.3975 126.54 40.2429 126.631L39.0769 127.318C39.0591 127.329 39.0419 127.34 39.0252 127.352C37.9755 125.949 37.0671 125.09 36.3074 124.584C35.4647 124.021 34.7584 123.863 34.2367 123.942C34.0832 123.966 33.9426 124.042 33.8383 124.156C33.734 124.271 33.6724 124.419 33.6638 124.574C33.6347 125.009 33.6618 125.446 33.7445 125.874C33.2124 125.861 32.6828 125.951 32.1849 126.139C31.3808 126.439 30.6919 126.967 30.031 127.558C29.9596 127.622 29.9025 127.701 29.8637 127.789C29.8249 127.876 29.8051 127.971 29.8058 128.067C29.8065 128.163 29.8276 128.258 29.8677 128.345C29.9077 128.432 29.9659 128.51 30.0383 128.573C30.5385 129.009 30.9957 129.355 31.5053 129.623C31.0794 130.058 30.7586 130.544 30.5257 131.011C30.1455 131.775 29.9629 132.566 30.0005 133.102C30.0077 133.207 30.0392 133.308 30.0926 133.399Z" fill="#C01700"/>
<path d="M113 136.454C92.7943 167.433 90.0654 147.907 91.2267 134.272L103.42 125L113 136.454Z" fill="#404046"/>
<path d="M133 136.476C133 159.158 123 145.927 118 136.476L126 125L133 136.476Z" fill="#404046"/>
<path d="M121.5 142C116.7 135.2 111.167 139.166 109 142L111 128.5L122.5 131L121.5 142Z" fill="#404046"/>
<path d="M91.5 143.5C92.3 137.9 87.5 139.167 85 140.5L89.5 133.5L96.5 134L91.5 143.5Z" fill="#404046"/>
<path d="M135.5 142C133.5 139.6 132.667 141.333 132.5 142.5L130 135.5L135.5 135V142Z" fill="#404046"/>
<circle cx="25" cy="117" r="1" fill="#CBFAFE"/>
<path d="M166 111C161.52 113.182 160.133 117 160 118.636L170 120C168.889 118.875 169.333 116.455 170 115.364C167.5 115.781 166.133 118.091 166 119.182C164.444 116.625 164.667 112.636 166 111Z" fill="#5ECF84"/>
<path d="M142 139C137.52 141.182 136.133 145 136 146.636L146 148C144.889 146.875 145.333 144.455 146 143.364C143.5 143.781 142.133 146.091 142 147.182C140.444 144.625 140.667 140.636 142 139Z" fill="#5ECF84"/>
<path d="M194.4 120C190.368 121.939 189.12 125.333 189 126.788L198 128C197 127 197.4 124.848 198 123.879C195.75 124.25 194.52 126.303 194.4 127.273C193 125 193.2 121.455 194.4 120Z" fill="#5ECF84"/>
<path d="M61 110.5C63.4 112.5 64.3333 115.333 64.5 116.5L61 117.5C61.8 113.9 61.3333 111.333 61 110.5Z" fill="#5ECF84"/>
<path d="M58 112C60.4 114 61.3333 116.833 61.5 118L58 119C58.8 115.4 58.3333 112.833 58 112Z" fill="#5ECF84"/>
<path d="M120.695 137.731C122.672 140.15 123.052 143.109 122.995 144.286L119.368 144.605C120.836 141.221 120.864 138.613 120.695 137.731Z" fill="#5ECF84"/>
<path d="M78 139C80.4 141 81.3333 143.833 81.5 145L78 146C78.8 142.4 78.3333 139.833 78 139Z" fill="#5ECF84"/>
<path d="M75 140.5C77.4 142.5 78.3333 145.333 78.5 146.5L75 147.5C75.8 143.9 75.3333 141.333 75 140.5Z" fill="#5ECF84"/>
<path d="M86 134C88.4 136 89.3333 138.833 89.5 140L86 141C86.8 137.4 86.3333 134.833 86 134Z" fill="#5ECF84"/>
<path d="M35 116C37.4 118 38.3333 120.833 38.5 122L35 123C35.8 119.4 35.3333 116.833 35 116Z" fill="#5ECF84"/>
<ellipse cx="106.5" cy="149.5" rx="106.5" ry="28.5" fill="#17893D"/>
<path d="M0 150.045V140H6.5L7 153L0 150.045Z" fill="#17893D"/>
<path d="M213 149.737V139L209.571 140.263L209 151L213 149.737Z" fill="#17893D"/>
<ellipse cx="106.5" cy="139.5" rx="106.5" ry="26.5" fill="#5ECF84"/>
<path d="M166 111C161.52 113.182 160.133 117 160 118.636L170 120C168.889 118.875 169.333 116.455 170 115.364C167.5 115.781 166.133 118.091 166 119.182C164.444 116.625 164.667 112.636 166 111Z" fill="#5ECF84"/>
<path d="M142 140C137.52 142.182 136.133 146 136 147.636L146 149C144.889 147.875 145.333 145.455 146 144.364C143.5 144.781 142.133 147.091 142 148.182C140.444 145.625 140.667 141.636 142 140Z" fill="#5ECF84"/>
<path d="M194.4 120C190.368 121.939 189.12 125.333 189 126.788L198 128C197 127 197.4 124.848 198 123.879C195.75 124.25 194.52 126.303 194.4 127.273C193 125 193.2 121.455 194.4 120Z" fill="#5ECF84"/>
<path d="M61 110.5C63.4 112.5 64.3333 115.333 64.5 116.5L61 117.5C61.8 113.9 61.3333 111.333 61 110.5Z" fill="#5ECF84"/>
<path d="M58 112C60.4 114 61.3333 116.833 61.5 118L58 119C58.8 115.4 58.3333 112.833 58 112Z" fill="#5ECF84"/>
<path d="M120.695 137.732C122.673 140.151 123.052 143.11 122.995 144.287L119.369 144.606C120.836 141.222 120.864 138.614 120.695 137.732Z" fill="#5ECF84"/>
<path d="M78 139C80.4 141 81.3333 143.833 81.5 145L78 146C78.8 142.4 78.3333 139.833 78 139Z" fill="#5ECF84"/>
<path d="M75 140.5C77.4 142.5 78.3333 145.333 78.5 146.5L75 147.5C75.8 143.9 75.3333 141.333 75 140.5Z" fill="#5ECF84"/>
<path d="M86 134C88.4 136 89.3333 138.833 89.5 140L86 141C86.8 137.4 86.3333 134.833 86 134Z" fill="#5ECF84"/>
<path d="M35 116C37.4 118 38.3333 120.833 38.5 122L35 123C35.8 119.4 35.3333 116.833 35 116Z" fill="#5ECF84"/>
<path d="M99.7576 72.656C101.314 106.815 94.5679 122.592 91 126.21L112.894 132C113.672 110.578 109.975 83.5117 108.029 72.656C96.3519 29.8127 97.6493 54.8046 99.7576 72.656Z" fill="url(#paint0_linear_585_355)"/>
<path d="M116.4 120C110.128 123.152 108.187 128.667 108 131.03L122 133C120.444 131.375 121.067 127.879 122 126.303C118.5 126.906 116.587 130.242 116.4 131.818C114.222 128.125 114.533 122.364 116.4 120Z" fill="#5ECF84"/>
<path d="M98.9212 119.687C101.373 122.781 101.285 127.089 100.935 128.856L93.7807 128.593C94.838 127.585 95.1888 124.929 95.0305 123.651C96.6145 124.526 96.9193 127.222 96.7158 128.407C98.4606 125.949 99.385 121.66 98.9212 119.687Z" fill="#5ECF84"/>
<path d="M90 122C92.4 124 93.3333 126.833 93.5 128L90 129C90.8 125.4 90.3333 122.833 90 122Z" fill="#5ECF84"/>
<path fill-rule="evenodd" clip-rule="evenodd" d="M99.7178 44.0375C99.834 44.1771 99.9498 44.3164 100.062 44.4569C100.382 45.1399 99.6351 46.375 98.7576 47.8261C97.1003 50.5669 94.9771 54.0783 98.6926 56.0954C100.674 57.2668 102.622 56.1613 103.128 54.005C103.261 53.5745 103.386 53.0618 103.518 52.5195C103.882 51.0197 104.301 49.2931 105.114 48.4504C106.194 48.1472 107.317 48.4898 108.444 48.8339C109.336 49.1062 110.232 49.3794 111.111 49.3343C118.489 49.7046 125.408 46.8364 131.291 41.344C140.43 32.2425 145.169 12.8196 134.301 0.826325C133.726 0.216565 132.894 0.0200321 132.028 0.229175C129.982 0.844698 129.041 2.70857 128.148 4.64706C126.077 8.69963 121.851 9.68459 117.317 10.7412C113.714 11.5809 109.916 12.4659 106.852 14.9719C99.9324 20.6312 93.8121 31.9608 98.5276 42.3151C98.8161 42.9535 99.2692 43.4982 99.7178 44.0375Z" fill="url(#paint1_linear_585_355)"/>
<path fill-rule="evenodd" clip-rule="evenodd" d="M97.7452 51.427C97.7109 51.5443 97.6766 51.6613 97.6446 51.7781C97.63 52.2852 98.4215 52.8481 99.3513 53.5094C101.108 54.7583 103.357 56.3584 101.603 58.5975C100.693 59.8508 99.1944 59.6891 98.3055 58.493C98.108 58.2629 97.894 57.9797 97.6676 57.6801C97.0415 56.8515 96.3208 55.8977 95.5938 55.5947C94.8458 55.6963 94.2443 56.2081 93.6401 56.7221C93.1621 57.1289 92.6825 57.5369 92.1274 57.7443C87.6712 59.9461 82.6324 60.0255 77.531 58.2079C69.4545 55.0327 61.334 44.3082 64.8371 33.9967C65.0291 33.4664 65.4896 33.1228 66.0807 33.0201C67.5083 32.8531 68.5877 33.7522 69.6573 34.7103C72.0199 36.6585 74.8928 36.1363 77.9747 35.5761C80.424 35.1309 83.0053 34.6617 85.5673 35.3895C91.353 37.0331 98.1617 42.3913 98.0194 50.0453C98.012 50.5166 97.878 50.9741 97.7452 51.427Z" fill="url(#paint2_linear_585_355)"/>
<path d="M104 59C103.36 57 103.367 53.6667 103.5 52.5L102 55L104 59Z" fill="#937B55"/>
<path d="M122.274 21C109.874 25 104.441 36 103.274 41C102.074 48.2 105.107 45 106.774 42.5C108.374 32.9 117.774 24.1667 122.274 21Z" fill="#7BD394" fill-opacity="0.41"/>
<path d="M77 44.7772C85.5038 42.654 92.3893 46.8952 94.769 49.2812C97.9196 52.8858 95.0804 52.1628 93.2669 51.3508C89.0662 46.5446 80.672 44.9658 77 44.7772Z" fill="#7BD394" fill-opacity="0.41"/>
<defs>
<linearGradient id="paint0_linear_585_355" x1="102" y1="49" x2="102" y2="132" gradientUnits="userSpaceOnUse">
<stop stop-color="#986E4F"/>
<stop offset="1" stop-color="#5ECF84"/>
</linearGradient>
<linearGradient id="paint1_linear_585_355" x1="132" y1="3.49951" x2="101" y2="52.9995" gradientUnits="userSpaceOnUse">
<stop stop-color="#5ECF84"/>
<stop offset="1" stop-color="#927A55"/>
</linearGradient>
<linearGradient id="paint2_linear_585_355" x1="66.6797" y1="35.5122" x2="98.6797" y2="56.5122" gradientUnits="userSpaceOnUse">
<stop stop-color="#5ECF84"/>
<stop offset="1" stop-color="#947F57"/>
</linearGradient>
</defs>
</svg>
